SplineFontDB: 3.2
FontName: Untitled
FullName: Untitled
FamilyName: Untitled
Weight: Regular
ItalicAngle: 0
UnderlinePosition: 0
UnderlineWidth: 0
Ascent: 1638
Descent: 410
InvalidEm: 1
LayerCount: 2
Layer: 0 0 "Back" 1
Layer: 1 0 "Fore" 0
StyleMap: 0x0000
FSType: 0
OS2Version: 0
OS2_WeightWidthSlopeOnly: 0
OS2_UseTypoMetrics: 0
CreationTime: 1771300331
ModificationTime: 1771398050
PfmFamily: 16
TTFWeight: 400
TTFWidth: 5
LineGap: 0
VLineGap: 0
OS2TypoAscent: 0
OS2TypoAOffset: 1
OS2TypoDescent: 0
OS2TypoDOffset: 1
OS2TypoLinegap: 0
OS2WinAscent: 0
OS2WinAOffset: 1
OS2WinDescent: 0
OS2WinDOffset: 1
HheadAscent: 0
HheadAOffset: 1
HheadDescent: 0
HheadDOffset: 1
OS2Vendor: 'PfEd'
DEI: 91125
Encoding: Custom
UnicodeInterp: none
NameList: AGL For New Fonts
DisplaySize: -48
AntiAlias: 0
FitToEm: 0
WinInfo: 0 34 12
Grid
0 -640 m 1
 0 -603 l 1025
0 -603 m 1
 0 -549 l 1025
0 -549 m 1
 0 -512 l 1025
0 -512 m 1
 37 -512 l 1025
37 -512 m 1
 91 -512 l 1025
91 -512 m 1
 128 -512 l 1025
128 -512 m 1
 128 -549 l 1025
128 -549 m 1
 128 -603 l 1025
128 -603 m 1
 128 -640 l 1025
128 -640 m 1
 91 -640 l 1025
91 -640 m 1
 37 -640 l 1025
37 -640 m 1
 0 -640 l 1025
37 -640 m 1
 0 -603 l 1025
0 -603 m 1
 27 -576 l 1025
27 -576 m 1
 0 -549 l 1025
0 -549 m 1
 37 -512 l 1025
37 -512 m 1
 64 -539 l 1025
64 -539 m 1
 91 -512 l 1025
91 -512 m 1
 128 -549 l 1025
128 -549 m 1
 101 -576 l 1025
101 -576 m 1
 128 -603 l 1025
128 -603 m 1
 91 -640 l 1025
91 -640 m 1
 64 -613 l 1025
64 -613 m 1
 37 -640 l 1025
27 -576 m 1
 64 -539 l 1025
64 -539 m 1
 101 -576 l 1025
101 -576 m 1
 64 -613 l 1025
64 -613 m 1
 27 -576 l 1025
0 -512 m 1
 0 -475 l 1025
0 -475 m 1
 0 -421 l 1025
0 -421 m 1
 0 -384 l 1025
0 -384 m 1
 37 -384 l 1025
37 -384 m 1
 91 -384 l 1025
91 -384 m 1
 128 -384 l 1025
128 -384 m 1
 128 -421 l 1025
128 -421 m 1
 128 -475 l 1025
128 -475 m 1
 128 -512 l 1025
128 -512 m 1
 91 -512 l 1025
91 -512 m 1
 37 -512 l 1025
37 -512 m 1
 0 -512 l 1025
37 -512 m 1
 0 -475 l 1025
0 -475 m 1

StartChar: exclam
Encoding: 1 33 1
GlifName: exclam
Width: 768
VWidth: 0
Flags: HW
LayerCount: 2
Back
SplineSet
256 0 m 257
 256 128 l 257
 384 128 l 257
 384 0 l 257
 256 0 l 257
256 256 m 257
 256 384 l 257
 384 384 l 257
 384 256 l 257
 256 256 l 257
256 384 m 257
 256 512 l 257
 384 512 l 257
 384 384 l 257
 256 384 l 257
256 512 m 257
 256 640 l 257
 384 640 l 257
 384 512 l 257
 256 512 l 257
256 640 m 257
 256 768 l 257
 384 768 l 257
 384 640 l 257
 256 640 l 257
256 768 m 257
 256 896 l 257
 384 896 l 257
 384 768 l 257
 256 768 l 257
EndSplineSet
Fore
SplineSet
256 37.4903320081 m 1
 256 90.5096679919 l 1
 293.490332008 128 l 1
 346.509667992 128 l 1
 384 90.5096679919 l 1
 384 37.4903320081 l 1
 346.509667992 0 l 1
 293.490332008 0 l 1
 256 37.4903320081 l 1
256 256 m 1
 256 896 l 1
 384 896 l 1
 384 256 l 1
 256 256 l 1
EndSplineSet
EndChar

StartChar: quotedbl
Encoding: 2 34 2
GlifName: quotedbl
Width: 768
VWidth: 0
Flags: HW
LayerCount: 2
Back
SplineSet
128 512 m 257
 128 640 l 257
 256 640 l 257
 256 512 l 257
 128 512 l 257
384 512 m 257
 384 640 l 257
 512 640 l 257
 512 512 l 257
 384 512 l 257
128 640 m 257
 128 768 l 257
 256 768 l 257
 256 640 l 257
 128 640 l 257
384 640 m 257
 384 768 l 257
 512 768 l 257
 512 640 l 257
 384 640 l 257
128 768 m 257
 128 896 l 257
 256 896 l 257
 256 768 l 257
 128 768 l 257
384 768 m 257
 384 896 l 257
 512 896 l 257
 512 768 l 257
 384 768 l 257
EndSplineSet
Fore
SplineSet
128 512 m 1
 128 896 l 1
 256 896 l 1
 256 512 l 1
 128 512 l 1
384 512 m 1
 384 896 l 1
 512 896 l 1
 512 512 l 1
 384 512 l 1
EndSplineSet
EndChar

StartChar: numbersign
Encoding: 3 35 3
GlifName: numbersign
Width: 768
VWidth: 0
Flags: HW
LayerCount: 2
Back
SplineSet
128 128 m 257
 128 256 l 257
 256 256 l 257
 256 128 l 257
 128 128 l 257
384 128 m 257
 384 256 l 257
 512 256 l 257
 512 128 l 257
 384 128 l 257
0 256 m 257
 0 384 l 257
 128 384 l 257
 128 256 l 257
 0 256 l 257
128 256 m 257
 128 384 l 257
 256 384 l 257
 256 256 l 257
 128 256 l 257
256 256 m 257
 256 384 l 257
 384 384 l 257
 384 256 l 257
 256 256 l 257
384 256 m 257
 384 384 l 257
 512 384 l 257
 512 256 l 257
 384 256 l 257
512 256 m 257
 512 384 l 257
 640 384 l 257
 640 256 l 257
 512 256 l 257
128 384 m 257
 128 512 l 257
 256 512 l 257
 256 384 l 257
 128 384 l 257
384 384 m 257
 384 512 l 257
 512 512 l 257
 512 384 l 257
 384 384 l 257
0 512 m 257
 0 640 l 257
 128 640 l 257
 128 512 l 257
 0 512 l 257
128 512 m 257
 128 640 l 257
 256 640 l 257
 256 512 l 257
 128 512 l 257
256 512 m 257
 256 640 l 257
 384 640 l 257
 384 512 l 257
 256 512 l 257
384 512 m 257
 384 640 l 257
 512 640 l 257
 512 512 l 257
 384 512 l 257
512 512 m 257
 512 640 l 257
 640 640 l 257
 640 512 l 257
 512 512 l 257
128 640 m 257
 128 768 l 257
 256 768 l 257
 256 640 l 257
 128 640 l 257
384 640 m 257
 384 768 l 257
 512 768 l 257
 512 640 l 257
 384 640 l 257
EndSplineSet
Fore
SplineSet
0 256 m 1
 0 384 l 1
 128 384 l 1
 128 512 l 1
 0 512 l 1
 0 640 l 1
 128 640 l 1
 128 768 l 1
 256 768 l 1
 256 640 l 1
 384 640 l 1
 384 768 l 1
 512 768 l 1
 512 640 l 1
 640 640 l 1
 640 512 l 1
 512 512 l 1
 512 384 l 1
 640 384 l 1
 640 256 l 1
 512 256 l 1
 512 128 l 1
 384 128 l 1
 384 256 l 1
 256 256 l 1
 256 128 l 1
 128 128 l 1
 128 256 l 1
 0 256 l 1
256 384 m 1
 384 384 l 1
 384 512 l 1
 256 512 l 1
 256 384 l 1
EndSplineSet
EndChar

StartChar: dollar
Encoding: 4 36 4
GlifName: dollar
Width: 768
VWidth: 0
Flags: HW
LayerCount: 2
Back
SplineSet
256 -128 m 257
 256 0 l 257
 384 0 l 257
 384 -128 l 257
 256 -128 l 257
128 0 m 257
 128 128 l 257
 256 128 l 257
 256 0 l 257
 128 0 l 257
256 0 m 257
 256 128 l 257
 384 128 l 257
 384 0 l 257
 256 0 l 257
384 0 m 257
 384 128 l 257
 512 128 l 257
 512 0 l 257
 384 0 l 257
0 128 m 257
 0 256 l 257
 128 256 l 257
 128 128 l 257
 0 128 l 257
256 128 m 257
 256 256 l 257
 384 256 l 257
 384 128 l 257
 256 128 l 257
512 128 m 257
 512 256 l 257
 640 256 l 257
 640 128 l 257
 512 128 l 257
256 256 m 257
 256 384 l 257
 384 384 l 257
 384 256 l 257
 256 256 l 257
512 256 m 257
 512 384 l 257
 640 384 l 257
 640 256 l 257
 512 256 l 257
0 384 m 257
 0 512 l 257
 128 512 l 257
 128 384 l 257
 0 384 l 257
128 384 m 257
 128 512 l 257
 256 512 l 257
 256 384 l 257
 128 384 l 257
256 384 m 257
 256 512 l 257
 384 512 l 257
 384 384 l 257
 256 384 l 257
384 384 m 257
 384 512 l 257
 512 512 l 257
 512 384 l 257
 384 384 l 257
0 512 m 257
 0 640 l 257
 128 640 l 257
 128 512 l 257
 0 512 l 257
256 512 m 257
 256 640 l 257
 384 640 l 257
 384 512 l 257
 256 512 l 257
128 640 m 257
 128 768 l 257
 256 768 l 257
 256 640 l 257
 128 640 l 257
256 640 m 257
 256 768 l 257
 384 768 l 257
 384 640 l 257
 256 640 l 257
384 640 m 257
 384 768 l 257
 512 768 l 257
 512 640 l 257
 384 640 l 257
256 768 m 257
 256 896 l 257
 384 896 l 257
 384 768 l 257
 256 768 l 257
EndSplineSet
Fore
SplineSet
0 165.490332008 m 1
 90.5096679919 256 l 1
 218.509667992 128 l 1
 256 128 l 1
 256 384 l 1
 90.5096679919 384 l 1
 0 474.509667992 l 1
 0 602.509667992 l 1
 165.490332008 768 l 1
 256 768 l 1
 256 896 l 1
 384 896 l 1
 384 768 l 1
 512 768 l 1
 512 640 l 1
 384 640 l 1
 384 512 l 1
 474.509667992 512 l 1
 640 346.509667992 l 1
 640 165.490332008 l 1
 474.509667992 0 l 1
 384 0 l 1
 384 -128 l 1
 256 -128 l 1
 256 0 l 1
 165.490332008 0 l 1
 0 165.490332008 l 1
128 549.490332008 m 1
 165.490332008 512 l 1
 256 512 l 1
 256 640 l 1
 218.509667992 640 l 1
 128 549.490332008 l 1
384 128 m 1
 421.490332008 128 l 1
 512 218.509667992 l 1
 512 293.490332008 l 1
 421.490332008 384 l 1
 384 384 l 1
 384 128 l 1
EndSplineSet
EndChar

StartChar: percent
Encoding: 5 37 5
GlifName: percent
Width: 768
VWidth: 0
Flags: HW
LayerCount: 2
Back
SplineSet
0 128 m 257
 0 256 l 257
 128 256 l 257
 128 128 l 257
 0 128 l 257
512 128 m 257
 512 256 l 257
 640 256 l 257
 640 128 l 257
 512 128 l 257
128 256 m 257
 128 384 l 257
 256 384 l 257
 256 256 l 257
 128 256 l 257
256 384 m 257
 256 512 l 257
 384 512 l 257
 384 384 l 257
 256 384 l 257
384 512 m 257
 384 640 l 257
 512 640 l 257
 512 512 l 257
 384 512 l 257
0 640 m 257
 0 768 l 257
 128 768 l 257
 128 640 l 257
 0 640 l 257
512 640 m 257
 512 768 l 257
 640 768 l 257
 640 640 l 257
 512 640 l 257
EndSplineSet
Fore
SplineSet
0 218.509667992 m 1
 549.490332008 768 l 1
 640 677.490332008 l 1
 90.5096679919 128 l 1
 0 218.509667992 l 1
0 677.490332008 m 1
 0 730.509667992 l 1
 37.4903320081 768 l 1
 90.5096679919 768 l 1
 128 730.509667992 l 1
 128 677.490332008 l 1
 90.5096679919 640 l 1
 37.4903320081 640 l 1
 0 677.490332008 l 1
512 165.490332008 m 1
 512 218.509667992 l 1
 549.490332008 256 l 1
 602.509667992 256 l 1
 640 218.509667992 l 1
 640 165.490332008 l 1
 602.509667992 128 l 1
 549.490332008 128 l 1
 512 165.490332008 l 1
EndSplineSet
EndChar

StartChar: ampersand
Encoding: 6 38 6
GlifName: ampersand
Width: 768
VWidth: 0
Flags: HW
LayerCount: 2
Back
SplineSet
128 0 m 257
 128 128 l 257
 256 128 l 257
 256 0 l 257
 128 0 l 257
256 0 m 257
 256 128 l 257
 384 128 l 257
 384 0 l 257
 256 0 l 257
512 0 m 257
 512 128 l 257
 640 128 l 257
 640 0 l 257
 512 0 l 257
0 128 m 257
 0 256 l 257
 128 256 l 257
 128 128 l 257
 0 128 l 257
384 128 m 257
 384 256 l 257
 512 256 l 257
 512 128 l 257
 384 128 l 257
0 256 m 257
 0 384 l 257
 128 384 l 257
 128 256 l 257
 0 256 l 257
256 256 m 257
 256 384 l 257
 384 384 l 257
 384 256 l 257
 256 256 l 257
512 256 m 257
 512 384 l 257
 640 384 l 257
 640 256 l 257
 512 256 l 257
128 384 m 257
 128 512 l 257
 256 512 l 257
 256 384 l 257
 128 384 l 257
0 512 m 257
 0 640 l 257
 128 640 l 257
 128 512 l 257
 0 512 l 257
0 640 m 257
 0 768 l 257
 128 768 l 257
 128 640 l 257
 0 640 l 257
384 640 m 257
 384 768 l 257
 512 768 l 257
 512 640 l 257
 384 640 l 257
128 768 m 257
 128 896 l 257
 256 896 l 257
 256 768 l 257
 128 768 l 257
256 768 m 257
 256 896 l 257
 384 896 l 257
 384 768 l 257
 256 768 l 257
EndSplineSet
Fore
SplineSet
0 165.490332008 m 1
 0 346.509667992 l 1
 101.490332008 448 l 1
 0 549.490332008 l 1
 0 730.509667992 l 1
 165.490332008 896 l 1
 346.509667992 896 l 1
 512 730.509667992 l 1
 421.490332008 640 l 1
 293.490332008 768 l 1
 218.509667992 768 l 1
 128 677.490332008 l 1
 128 602.509667992 l 1
 448 282.509667992 l 1
 549.490332008 384 l 1
 640 293.490332008 l 1
 538.509667992 192 l 1
 640 90.5096679919 l 1
 549.490332008 0 l 1
 448 101.490332008 l 1
 346.509667992 0 l 1
 165.490332008 0 l 1
 0 165.490332008 l 1
128 218.509667992 m 1
 218.509667992 128 l 1
 293.490332008 128 l 1
 357.490332008 192 l 1
 192 357.490332008 l 1
 128 293.490332008 l 1
 128 218.509667992 l 1
EndSplineSet
EndChar

StartChar: quotesingle
Encoding: 7 39 7
GlifName: quotesingle
Width: 768
VWidth: 0
Flags: HW
LayerCount: 2
Back
SplineSet
256 512 m 257
 256 640 l 257
 384 640 l 257
 384 512 l 257
 256 512 l 257
256 640 m 257
 256 768 l 257
 384 768 l 257
 384 640 l 257
 256 640 l 257
256 768 m 257
 256 896 l 257
 384 896 l 257
 384 768 l 257
 256 768 l 257
EndSplineSet
Fore
SplineSet
256 512 m 1
 256 896 l 1
 384 896 l 1
 384 512 l 1
 256 512 l 1
EndSplineSet
EndChar

StartChar: parenleft
Encoding: 8 40 8
GlifName: parenleft
Width: 768
VWidth: 0
Flags: HW
LayerCount: 2
Back
SplineSet
384 -256 m 257
 384 -128 l 257
 512 -128 l 257
 512 -256 l 257
 384 -256 l 257
256 -128 m 257
 256 0 l 257
 384 0 l 257
 384 -128 l 257
 256 -128 l 257
128 0 m 257
 128 128 l 257
 256 128 l 257
 256 0 l 257
 128 0 l 257
128 128 m 257
 128 256 l 257
 256 256 l 257
 256 128 l 257
 128 128 l 257
128 256 m 257
 128 384 l 257
 256 384 l 257
 256 256 l 257
 128 256 l 257
128 384 m 257
 128 512 l 257
 256 512 l 257
 256 384 l 257
 128 384 l 257
128 512 m 257
 128 640 l 257
 256 640 l 257
 256 512 l 257
 128 512 l 257
256 640 m 257
 256 768 l 257
 384 768 l 257
 384 640 l 257
 256 640 l 257
384 768 m 257
 384 896 l 257
 512 896 l 257
 512 768 l 257
 384 768 l 257
EndSplineSet
Fore
SplineSet
128 37.4903320081 m 1
 128 602.509667992 l 1
 421.490332008 896 l 1
 512 805.490332008 l 1
 256 549.490332008 l 1
 256 90.5096679919 l 1
 512 -165.490332008 l 1
 421.490332008 -256 l 1
 128 37.4903320081 l 1
EndSplineSet
EndChar

StartChar: parenright
Encoding: 9 41 9
GlifName: parenright
Width: 768
VWidth: 0
Flags: HW
LayerCount: 2
Back
SplineSet
128 -256 m 257
 128 -128 l 257
 256 -128 l 257
 256 -256 l 257
 128 -256 l 257
256 -128 m 257
 256 0 l 257
 384 0 l 257
 384 -128 l 257
 256 -128 l 257
384 0 m 257
 384 128 l 257
 512 128 l 257
 512 0 l 257
 384 0 l 257
384 128 m 257
 384 256 l 257
 512 256 l 257
 512 128 l 257
 384 128 l 257
384 256 m 257
 384 384 l 257
 512 384 l 257
 512 256 l 257
 384 256 l 257
384 384 m 257
 384 512 l 257
 512 512 l 257
 512 384 l 257
 384 384 l 257
384 512 m 257
 384 640 l 257
 512 640 l 257
 512 512 l 257
 384 512 l 257
256 640 m 257
 256 768 l 257
 384 768 l 257
 384 640 l 257
 256 640 l 257
128 768 m 257
 128 896 l 257
 256 896 l 257
 256 768 l 257
 128 768 l 257
EndSplineSet
Fore
SplineSet
128 -165.490332008 m 1
 384 90.5096679919 l 1
 384 549.490332008 l 1
 128 805.490332008 l 1
 218.509667992 896 l 1
 512 602.509667992 l 1
 512 37.4903320081 l 1
 218.509667992 -256 l 1
 128 -165.490332008 l 1
EndSplineSet
EndChar

StartChar: asterisk
Encoding: 10 42 10
GlifName: asterisk
Width: 768
VWidth: 0
Flags: HW
LayerCount: 2
Back
SplineSet
256 128 m 257
 256 256 l 257
 384 256 l 257
 384 128 l 257
 256 128 l 257
0 256 m 257
 0 384 l 257
 128 384 l 257
 128 256 l 257
 0 256 l 257
256 256 m 257
 256 384 l 257
 384 384 l 257
 384 256 l 257
 256 256 l 257
512 256 m 257
 512 384 l 257
 640 384 l 257
 640 256 l 257
 512 256 l 257
128 384 m 257
 128 512 l 257
 256 512 l 257
 256 384 l 257
 128 384 l 257
256 384 m 257
 256 512 l 257
 384 512 l 257
 384 384 l 257
 256 384 l 257
384 384 m 257
 384 512 l 257
 512 512 l 257
 512 384 l 257
 384 384 l 257
0 512 m 257
 0 640 l 257
 128 640 l 257
 128 512 l 257
 0 512 l 257
256 512 m 257
 256 640 l 257
 384 640 l 257
 384 512 l 257
 256 512 l 257
512 512 m 257
 512 640 l 257
 640 640 l 257
 640 512 l 257
 512 512 l 257
256 640 m 257
 256 768 l 257
 384 768 l 257
 384 640 l 257
 256 640 l 257
EndSplineSet
Fore
SplineSet
0 346.509667992 m 1
 101.490332008 448 l 1
 0 549.490332008 l 1
 90.5096679919 640 l 1
 218.509667992 512 l 1
 256 512 l 1
 256 768 l 1
 384 768 l 1
 384 512 l 1
 421.490332008 512 l 1
 549.490332008 640 l 1
 640 549.490332008 l 1
 538.509667992 448 l 1
 640 346.509667992 l 1
 549.490332008 256 l 1
 421.490332008 384 l 1
 384 384 l 1
 384 128 l 1
 256 128 l 1
 256 384 l 1
 218.509667992 384 l 1
 90.5096679919 256 l 1
 0 346.509667992 l 1
EndSplineSet
EndChar

StartChar: plus
Encoding: 11 43 11
GlifName: plus
Width: 768
VWidth: 0
Flags: HW
LayerCount: 2
Back
SplineSet
256 128 m 257
 256 256 l 257
 384 256 l 257
 384 128 l 257
 256 128 l 257
256 256 m 257
 256 384 l 257
 384 384 l 257
 384 256 l 257
 256 256 l 257
0 384 m 257
 0 512 l 257
 128 512 l 257
 128 384 l 257
 0 384 l 257
128 384 m 257
 128 512 l 257
 256 512 l 257
 256 384 l 257
 128 384 l 257
256 384 m 257
 256 512 l 257
 384 512 l 257
 384 384 l 257
 256 384 l 257
384 384 m 257
 384 512 l 257
 512 512 l 257
 512 384 l 257
 384 384 l 257
512 384 m 257
 512 512 l 257
 640 512 l 257
 640 384 l 257
 512 384 l 257
256 512 m 257
 256 640 l 257
 384 640 l 257
 384 512 l 257
 256 512 l 257
256 640 m 257
 256 768 l 257
 384 768 l 257
 384 640 l 257
 256 640 l 257
EndSplineSet
Fore
SplineSet
0 384 m 1
 0 512 l 1
 256 512 l 1
 256 768 l 1
 384 768 l 1
 384 512 l 1
 640 512 l 1
 640 384 l 1
 384 384 l 1
 384 128 l 1
 256 128 l 1
 256 384 l 1
 0 384 l 1
EndSplineSet
EndChar

StartChar: comma
Encoding: 12 44 12
GlifName: comma
Width: 768
VWidth: 0
Flags: HW
LayerCount: 2
Back
SplineSet
128 -256 m 257
 128 -128 l 257
 256 -128 l 257
 256 -256 l 257
 128 -256 l 257
256 -128 m 257
 256 0 l 257
 384 0 l 257
 384 -128 l 257
 256 -128 l 257
384 0 m 257
 384 128 l 257
 512 128 l 257
 512 0 l 257
 384 0 l 257
EndSplineSet
Fore
SplineSet
128 -165.490332008 m 1
 421.490332008 128 l 1
 512 37.4903320081 l 1
 218.509667992 -256 l 1
 128 -165.490332008 l 1
EndSplineSet
EndChar

StartChar: hyphen
Encoding: 13 45 13
GlifName: hyphen
Width: 768
VWidth: 0
Flags: HW
LayerCount: 2
Back
SplineSet
0 384 m 257
 0 512 l 257
 128 512 l 257
 128 384 l 257
 0 384 l 257
128 384 m 257
 128 512 l 257
 256 512 l 257
 256 384 l 257
 128 384 l 257
256 384 m 257
 256 512 l 257
 384 512 l 257
 384 384 l 257
 256 384 l 257
384 384 m 257
 384 512 l 257
 512 512 l 257
 512 384 l 257
 384 384 l 257
512 384 m 257
 512 512 l 257
 640 512 l 257
 640 384 l 257
 512 384 l 257
EndSplineSet
Fore
SplineSet
0 384 m 1
 0 512 l 1
 640 512 l 1
 640 384 l 1
 0 384 l 1
EndSplineSet
EndChar

StartChar: period
Encoding: 14 46 14
GlifName: period
Width: 768
VWidth: 0
Flags: HW
LayerCount: 2
Back
SplineSet
256 0 m 257
 256 128 l 257
 384 128 l 257
 384 0 l 257
 256 0 l 257
EndSplineSet
Fore
SplineSet
256 37.4903320081 m 1
 256 90.5096679919 l 1
 293.490332008 128 l 1
 346.509667992 128 l 1
 384 90.5096679919 l 1
 384 37.4903320081 l 1
 346.509667992 0 l 1
 293.490332008 0 l 1
 256 37.4903320081 l 1
EndSplineSet
EndChar

StartChar: slash
Encoding: 15 47 15
GlifName: slash
Width: 768
VWidth: 0
Flags: HW
LayerCount: 2
Back
SplineSet
0 128 m 257
 0 256 l 257
 128 256 l 257
 128 128 l 257
 0 128 l 257
128 256 m 257
 128 384 l 257
 256 384 l 257
 256 256 l 257
 128 256 l 257
256 384 m 257
 256 512 l 257
 384 512 l 257
 384 384 l 257
 256 384 l 257
384 512 m 257
 384 640 l 257
 512 640 l 257
 512 512 l 257
 384 512 l 257
512 640 m 257
 512 768 l 257
 640 768 l 257
 640 640 l 257
 512 640 l 257
EndSplineSet
Fore
SplineSet
0 218.509667992 m 1
 549.490332008 768 l 1
 640 677.490332008 l 1
 90.5096679919 128 l 1
 0 218.509667992 l 1
EndSplineSet
EndChar

StartChar: zero
Encoding: 16 48 16
GlifName: zero
Width: 768
VWidth: 0
Flags: HW
LayerCount: 2
Back
SplineSet
128 0 m 257
 128 128 l 257
 256 128 l 257
 256 0 l 257
 128 0 l 257
256 0 m 257
 256 128 l 257
 384 128 l 257
 384 0 l 257
 256 0 l 257
384 0 m 257
 384 128 l 257
 512 128 l 257
 512 0 l 257
 384 0 l 257
0 128 m 257
 0 256 l 257
 128 256 l 257
 128 128 l 257
 0 128 l 257
512 128 m 257
 512 256 l 257
 640 256 l 257
 640 128 l 257
 512 128 l 257
0 256 m 257
 0 384 l 257
 128 384 l 257
 128 256 l 257
 0 256 l 257
128 256 m 257
 128 384 l 257
 256 384 l 257
 256 256 l 257
 128 256 l 257
512 256 m 257
 512 384 l 257
 640 384 l 257
 640 256 l 257
 512 256 l 257
0 384 m 257
 0 512 l 257
 128 512 l 257
 128 384 l 257
 0 384 l 257
256 384 m 257
 256 512 l 257
 384 512 l 257
 384 384 l 257
 256 384 l 257
512 384 m 257
 512 512 l 257
 640 512 l 257
 640 384 l 257
 512 384 l 257
0 512 m 257
 0 640 l 257
 128 640 l 257
 128 512 l 257
 0 512 l 257
384 512 m 257
 384 640 l 257
 512 640 l 257
 512 512 l 257
 384 512 l 257
512 512 m 257
 512 640 l 257
 640 640 l 257
 640 512 l 257
 512 512 l 257
0 640 m 257
 0 768 l 257
 128 768 l 257
 128 640 l 257
 0 640 l 257
512 640 m 257
 512 768 l 257
 640 768 l 257
 640 640 l 257
 512 640 l 257
128 768 m 257
 128 896 l 257
 256 896 l 257
 256 768 l 257
 128 768 l 257
256 768 m 257
 256 896 l 257
 384 896 l 257
 384 768 l 257
 256 768 l 257
384 768 m 257
 384 896 l 257
 512 896 l 257
 512 768 l 257
 384 768 l 257
EndSplineSet
Fore
SplineSet
0 165.490332008 m 1
 0 730.509667992 l 1
 165.490332008 896 l 1
 474.509667992 896 l 1
 640 730.509667992 l 1
 640 165.490332008 l 1
 474.509667992 0 l 1
 165.490332008 0 l 1
 0 165.490332008 l 1
128 346.509667992 m 1
 485.490332008 704 l 1
 421.490332008 768 l 1
 218.509667992 768 l 1
 128 677.490332008 l 1
 128 346.509667992 l 1
154.509667992 192 m 1
 218.509667992 128 l 1
 421.490332008 128 l 1
 512 218.509667992 l 1
 512 549.490332008 l 1
 154.509667992 192 l 1
EndSplineSet
EndChar

StartChar: one
Encoding: 17 49 17
GlifName: one
Width: 768
VWidth: 0
Flags: HW
LayerCount: 2
Back
SplineSet
384 0 m 257
 384 128 l 257
 512 128 l 257
 512 0 l 257
 384 0 l 257
384 128 m 257
 384 256 l 257
 512 256 l 257
 512 128 l 257
 384 128 l 257
384 256 m 257
 384 384 l 257
 512 384 l 257
 512 256 l 257
 384 256 l 257
384 384 m 257
 384 512 l 257
 512 512 l 257
 512 384 l 257
 384 384 l 257
128 512 m 257
 128 640 l 257
 256 640 l 257
 256 512 l 257
 128 512 l 257
384 512 m 257
 384 640 l 257
 512 640 l 257
 512 512 l 257
 384 512 l 257
256 640 m 257
 256 768 l 257
 384 768 l 257
 384 640 l 257
 256 640 l 257
384 640 m 257
 384 768 l 257
 512 768 l 257
 512 640 l 257
 384 640 l 257
384 768 m 257
 384 896 l 257
 512 896 l 257
 512 768 l 257
 384 768 l 257
EndSplineSet
Fore
SplineSet
128 602.509667992 m 1
 421.490332008 896 l 1
 512 896 l 1
 512 0 l 1
 384 0 l 1
 384 677.490332008 l 1
 218.509667992 512 l 1
 128 602.509667992 l 1
EndSplineSet
EndChar

StartChar: two
Encoding: 18 50 18
GlifName: two
Width: 768
VWidth: 0
Flags: HW
LayerCount: 2
Back
SplineSet
0 0 m 257
 0 128 l 257
 128 128 l 257
 128 0 l 257
 0 0 l 257
128 0 m 257
 128 128 l 257
 256 128 l 257
 256 0 l 257
 128 0 l 257
256 0 m 257
 256 128 l 257
 384 128 l 257
 384 0 l 257
 256 0 l 257
384 0 m 257
 384 128 l 257
 512 128 l 257
 512 0 l 257
 384 0 l 257
512 0 m 257
 512 128 l 257
 640 128 l 257
 640 0 l 257
 512 0 l 257
128 128 m 257
 128 256 l 257
 256 256 l 257
 256 128 l 257
 128 128 l 257
256 256 m 257
 256 384 l 257
 384 384 l 257
 384 256 l 257
 256 256 l 257
384 384 m 257
 384 512 l 257
 512 512 l 257
 512 384 l 257
 384 384 l 257
512 512 m 257
 512 640 l 257
 640 640 l 257
 640 512 l 257
 512 512 l 257
0 640 m 257
 0 768 l 257
 128 768 l 257
 128 640 l 257
 0 640 l 257
512 640 m 257
 512 768 l 257
 640 768 l 257
 640 640 l 257
 512 640 l 257
128 768 m 257
 128 896 l 257
 256 896 l 257
 256 768 l 257
 128 768 l 257
256 768 m 257
 256 896 l 257
 384 896 l 257
 384 768 l 257
 256 768 l 257
384 768 m 257
 384 896 l 257
 512 896 l 257
 512 768 l 257
 384 768 l 257
EndSplineSet
Fore
SplineSet
0 0 m 1
 0 90.5096679919 l 1
 512 602.509667992 l 1
 512 677.490332008 l 1
 421.490332008 768 l 1
 218.509667992 768 l 1
 90.5096679919 640 l 1
 0 730.509667992 l 1
 165.490332008 896 l 1
 474.509667992 896 l 1
 640 730.509667992 l 1
 640 549.490332008 l 1
 218.509667992 128 l 1
 640 128 l 1
 640 0 l 1
 0 0 l 1
EndSplineSet
EndChar

StartChar: three
Encoding: 19 51 19
GlifName: three
Width: 768
VWidth: 0
Flags: HW
LayerCount: 2
Back
SplineSet
128 0 m 257
 128 128 l 257
 256 128 l 257
 256 0 l 257
 128 0 l 257
256 0 m 257
 256 128 l 257
 384 128 l 257
 384 0 l 257
 256 0 l 257
384 0 m 257
 384 128 l 257
 512 128 l 257
 512 0 l 257
 384 0 l 257
0 128 m 257
 0 256 l 257
 128 256 l 257
 128 128 l 257
 0 128 l 257
512 128 m 257
 512 256 l 257
 640 256 l 257
 640 128 l 257
 512 128 l 257
512 256 m 257
 512 384 l 257
 640 384 l 257
 640 256 l 257
 512 256 l 257
256 384 m 257
 256 512 l 257
 384 512 l 257
 384 384 l 257
 256 384 l 257
384 384 m 257
 384 512 l 257
 512 512 l 257
 512 384 l 257
 384 384 l 257
512 512 m 257
 512 640 l 257
 640 640 l 257
 640 512 l 257
 512 512 l 257
0 640 m 257
 0 768 l 257
 128 768 l 257
 128 640 l 257
 0 640 l 257
512 640 m 257
 512 768 l 257
 640 768 l 257
 640 640 l 257
 512 640 l 257
128 768 m 257
 128 896 l 257
 256 896 l 257
 256 768 l 257
 128 768 l 257
256 768 m 257
 256 896 l 257
 384 896 l 257
 384 768 l 257
 256 768 l 257
384 768 m 257
 384 896 l 257
 512 896 l 257
 512 768 l 257
 384 768 l 257
EndSplineSet
Fore
SplineSet
0 165.490332008 m 1
 90.5096679919 256 l 1
 218.509667992 128 l 1
 421.490332008 128 l 1
 512 218.509667992 l 1
 512 293.490332008 l 1
 421.490332008 384 l 1
 256 384 l 1
 256 512 l 1
 421.490332008 512 l 1
 512 602.509667992 l 1
 512 677.490332008 l 1
 421.490332008 768 l 1
 218.509667992 768 l 1
 90.5096679919 640 l 1
 0 730.509667992 l 1
 165.490332008 896 l 1
 474.509667992 896 l 1
 640 730.509667992 l 1
 640 549.490332008 l 1
 538.509667992 448 l 1
 640 346.509667992 l 1
 640 165.490332008 l 1
 474.509667992 0 l 1
 165.490332008 0 l 1
 0 165.490332008 l 1
EndSplineSet
EndChar

StartChar: four
Encoding: 20 52 20
GlifName: four
Width: 768
VWidth: 0
Flags: HW
LayerCount: 2
Back
SplineSet
384 0 m 257
 384 128 l 257
 512 128 l 257
 512 0 l 257
 384 0 l 257
384 128 m 257
 384 256 l 257
 512 256 l 257
 512 128 l 257
 384 128 l 257
384 256 m 257
 384 384 l 257
 512 384 l 257
 512 256 l 257
 384 256 l 257
0 384 m 257
 0 512 l 257
 128 512 l 257
 128 384 l 257
 0 384 l 257
128 384 m 257
 128 512 l 257
 256 512 l 257
 256 384 l 257
 128 384 l 257
256 384 m 257
 256 512 l 257
 384 512 l 257
 384 384 l 257
 256 384 l 257
384 384 m 257
 384 512 l 257
 512 512 l 257
 512 384 l 257
 384 384 l 257
512 384 m 257
 512 512 l 257
 640 512 l 257
 640 384 l 257
 512 384 l 257
128 512 m 257
 128 640 l 257
 256 640 l 257
 256 512 l 257
 128 512 l 257
384 512 m 257
 384 640 l 257
 512 640 l 257
 512 512 l 257
 384 512 l 257
256 640 m 257
 256 768 l 257
 384 768 l 257
 384 640 l 257
 256 640 l 257
384 640 m 257
 384 768 l 257
 512 768 l 257
 512 640 l 257
 384 640 l 257
384 768 m 257
 384 896 l 257
 512 896 l 257
 512 768 l 257
 384 768 l 257
EndSplineSet
Fore
SplineSet
0 384 m 1
 0 474.509667992 l 1
 421.490332008 896 l 1
 512 896 l 1
 512 512 l 1
 640 512 l 1
 640 384 l 1
 512 384 l 1
 512 0 l 1
 384 0 l 1
 384 384 l 1
 0 384 l 1
218.509667992 512 m 1
 384 512 l 1
 384 677.490332008 l 1
 218.509667992 512 l 1
EndSplineSet
EndChar

StartChar: five
Encoding: 21 53 21
GlifName: five
Width: 768
VWidth: 0
Flags: HW
LayerCount: 2
Back
SplineSet
128 0 m 257
 128 128 l 257
 256 128 l 257
 256 0 l 257
 128 0 l 257
256 0 m 257
 256 128 l 257
 384 128 l 257
 384 0 l 257
 256 0 l 257
384 0 m 257
 384 128 l 257
 512 128 l 257
 512 0 l 257
 384 0 l 257
0 128 m 257
 0 256 l 257
 128 256 l 257
 128 128 l 257
 0 128 l 257
512 128 m 257
 512 256 l 257
 640 256 l 257
 640 128 l 257
 512 128 l 257
512 256 m 257
 512 384 l 257
 640 384 l 257
 640 256 l 257
 512 256 l 257
0 384 m 257
 0 512 l 257
 128 512 l 257
 128 384 l 257
 0 384 l 257
128 384 m 257
 128 512 l 257
 256 512 l 257
 256 384 l 257
 128 384 l 257
256 384 m 257
 256 512 l 257
 384 512 l 257
 384 384 l 257
 256 384 l 257
384 384 m 257
 384 512 l 257
 512 512 l 257
 512 384 l 257
 384 384 l 257
0 512 m 257
 0 640 l 257
 128 640 l 257
 128 512 l 257
 0 512 l 257
0 640 m 257
 0 768 l 257
 128 768 l 257
 128 640 l 257
 0 640 l 257
0 768 m 257
 0 896 l 257
 128 896 l 257
 128 768 l 257
 0 768 l 257
128 768 m 257
 128 896 l 257
 256 896 l 257
 256 768 l 257
 128 768 l 257
256 768 m 257
 256 896 l 257
 384 896 l 257
 384 768 l 257
 256 768 l 257
384 768 m 257
 384 896 l 257
 512 896 l 257
 512 768 l 257
 384 768 l 257
512 768 m 257
 512 896 l 257
 640 896 l 257
 640 768 l 257
 512 768 l 257
EndSplineSet
Fore
SplineSet
0 165.490332008 m 1
 90.5096679919 256 l 1
 218.509667992 128 l 1
 421.490332008 128 l 1
 512 218.509667992 l 1
 512 293.490332008 l 1
 421.490332008 384 l 1
 0 384 l 1
 0 896 l 1
 640 896 l 1
 640 768 l 1
 128 768 l 1
 128 512 l 1
 474.509667992 512 l 1
 640 346.509667992 l 1
 640 165.490332008 l 1
 474.509667992 0 l 1
 165.490332008 0 l 1
 0 165.490332008 l 1
EndSplineSet
EndChar

StartChar: six
Encoding: 22 54 22
GlifName: six
Width: 768
VWidth: 0
Flags: HW
LayerCount: 2
Back
SplineSet
128 0 m 257
 128 128 l 257
 256 128 l 257
 256 0 l 257
 128 0 l 257
256 0 m 257
 256 128 l 257
 384 128 l 257
 384 0 l 257
 256 0 l 257
384 0 m 257
 384 128 l 257
 512 128 l 257
 512 0 l 257
 384 0 l 257
0 128 m 257
 0 256 l 257
 128 256 l 257
 128 128 l 257
 0 128 l 257
512 128 m 257
 512 256 l 257
 640 256 l 257
 640 128 l 257
 512 128 l 257
0 256 m 257
 0 384 l 257
 128 384 l 257
 128 256 l 257
 0 256 l 257
512 256 m 257
 512 384 l 257
 640 384 l 257
 640 256 l 257
 512 256 l 257
0 384 m 257
 0 512 l 257
 128 512 l 257
 128 384 l 257
 0 384 l 257
128 384 m 257
 128 512 l 257
 256 512 l 257
 256 384 l 257
 128 384 l 257
256 384 m 257
 256 512 l 257
 384 512 l 257
 384 384 l 257
 256 384 l 257
384 384 m 257
 384 512 l 257
 512 512 l 257
 512 384 l 257
 384 384 l 257
0 512 m 257
 0 640 l 257
 128 640 l 257
 128 512 l 257
 0 512 l 257
0 640 m 257
 0 768 l 257
 128 768 l 257
 128 640 l 257
 0 640 l 257
512 640 m 257
 512 768 l 257
 640 768 l 257
 640 640 l 257
 512 640 l 257
128 768 m 257
 128 896 l 257
 256 896 l 257
 256 768 l 257
 128 768 l 257
256 768 m 257
 256 896 l 257
 384 896 l 257
 384 768 l 257
 256 768 l 257
384 768 m 257
 384 896 l 257
 512 896 l 257
 512 768 l 257
 384 768 l 257
EndSplineSet
Fore
SplineSet
0 165.490332008 m 1
 0 730.509667992 l 1
 165.490332008 896 l 1
 474.509667992 896 l 1
 640 730.509667992 l 1
 549.490332008 640 l 1
 421.490332008 768 l 1
 218.509667992 768 l 1
 128 677.490332008 l 1
 128 512 l 1
 474.509667992 512 l 1
 640 346.509667992 l 1
 640 165.490332008 l 1
 474.509667992 0 l 1
 165.490332008 0 l 1
 0 165.490332008 l 1
128 218.509667992 m 1
 218.509667992 128 l 1
 421.490332008 128 l 1
 512 218.509667992 l 1
 512 293.490332008 l 1
 421.490332008 384 l 1
 128 384 l 1
 128 218.509667992 l 1
EndSplineSet
EndChar

StartChar: seven
Encoding: 23 55 23
GlifName: seven
Width: 768
VWidth: 0
Flags: HW
LayerCount: 2
Back
SplineSet
256 0 m 257
 256 128 l 257
 384 128 l 257
 384 0 l 257
 256 0 l 257
256 128 m 257
 256 256 l 257
 384 256 l 257
 384 128 l 257
 256 128 l 257
256 256 m 257
 256 384 l 257
 384 384 l 257
 384 256 l 257
 256 256 l 257
384 384 m 257
 384 512 l 257
 512 512 l 257
 512 384 l 257
 384 384 l 257
512 512 m 257
 512 640 l 257
 640 640 l 257
 640 512 l 257
 512 512 l 257
512 640 m 257
 512 768 l 257
 640 768 l 257
 640 640 l 257
 512 640 l 257
0 768 m 257
 0 896 l 257
 128 896 l 257
 128 768 l 257
 0 768 l 257
128 768 m 257
 128 896 l 257
 256 896 l 257
 256 768 l 257
 128 768 l 257
256 768 m 257
 256 896 l 257
 384 896 l 257
 384 768 l 257
 256 768 l 257
384 768 m 257
 384 896 l 257
 512 896 l 257
 512 768 l 257
 384 768 l 257
512 768 m 257
 512 896 l 257
 640 896 l 257
 640 768 l 257
 512 768 l 257
EndSplineSet
Fore
SplineSet
0 768 m 1
 0 896 l 1
 640 896 l 1
 640 549.490332008 l 1
 384 293.490332008 l 1
 384 0 l 1
 256 0 l 1
 256 346.509667992 l 1
 512 602.509667992 l 1
 512 768 l 1
 0 768 l 1
EndSplineSet
EndChar

StartChar: eight
Encoding: 24 56 24
GlifName: eight
Width: 768
VWidth: 0
Flags: HW
LayerCount: 2
Back
SplineSet
128 0 m 257
 128 128 l 257
 256 128 l 257
 256 0 l 257
 128 0 l 257
256 0 m 257
 256 128 l 257
 384 128 l 257
 384 0 l 257
 256 0 l 257
384 0 m 257
 384 128 l 257
 512 128 l 257
 512 0 l 257
 384 0 l 257
0 128 m 257
 0 256 l 257
 128 256 l 257
 128 128 l 257
 0 128 l 257
512 128 m 257
 512 256 l 257
 640 256 l 257
 640 128 l 257
 512 128 l 257
0 256 m 257
 0 384 l 257
 128 384 l 257
 128 256 l 257
 0 256 l 257
512 256 m 257
 512 384 l 257
 640 384 l 257
 640 256 l 257
 512 256 l 257
128 384 m 257
 128 512 l 257
 256 512 l 257
 256 384 l 257
 128 384 l 257
256 384 m 257
 256 512 l 257
 384 512 l 257
 384 384 l 257
 256 384 l 257
384 384 m 257
 384 512 l 257
 512 512 l 257
 512 384 l 257
 384 384 l 257
0 512 m 257
 0 640 l 257
 128 640 l 257
 128 512 l 257
 0 512 l 257
512 512 m 257
 512 640 l 257
 640 640 l 257
 640 512 l 257
 512 512 l 257
0 640 m 257
 0 768 l 257
 128 768 l 257
 128 640 l 257
 0 640 l 257
512 640 m 257
 512 768 l 257
 640 768 l 257
 640 640 l 257
 512 640 l 257
128 768 m 257
 128 896 l 257
 256 896 l 257
 256 768 l 257
 128 768 l 257
256 768 m 257
 256 896 l 257
 384 896 l 257
 384 768 l 257
 256 768 l 257
384 768 m 257
 384 896 l 257
 512 896 l 257
 512 768 l 257
 384 768 l 257
EndSplineSet
Fore
SplineSet
0 165.490332008 m 1
 0 346.509667992 l 1
 101.490332008 448 l 1
 0 549.490332008 l 1
 0 730.509667992 l 1
 165.490332008 896 l 1
 474.509667992 896 l 1
 640 730.509667992 l 1
 640 549.490332008 l 1
 538.509667992 448 l 1
 640 346.509667992 l 1
 640 165.490332008 l 1
 474.509667992 0 l 1
 165.490332008 0 l 1
 0 165.490332008 l 1
128 218.509667992 m 1
 218.509667992 128 l 1
 421.490332008 128 l 1
 512 218.509667992 l 1
 512 293.490332008 l 1
 421.490332008 384 l 1
 218.509667992 384 l 1
 128 293.490332008 l 1
 128 218.509667992 l 1
128 602.509667992 m 1
 218.509667992 512 l 1
 421.490332008 512 l 1
 512 602.509667992 l 1
 512 677.490332008 l 1
 421.490332008 768 l 1
 218.509667992 768 l 1
 128 677.490332008 l 1
 128 602.509667992 l 1
EndSplineSet
EndChar

StartChar: nine
Encoding: 25 57 25
GlifName: nine
Width: 768
VWidth: 0
Flags: HW
LayerCount: 2
Back
SplineSet
128 0 m 257
 128 128 l 257
 256 128 l 257
 256 0 l 257
 128 0 l 257
256 0 m 257
 256 128 l 257
 384 128 l 257
 384 0 l 257
 256 0 l 257
384 0 m 257
 384 128 l 257
 512 128 l 257
 512 0 l 257
 384 0 l 257
0 128 m 257
 0 256 l 257
 128 256 l 257
 128 128 l 257
 0 128 l 257
512 128 m 257
 512 256 l 257
 640 256 l 257
 640 128 l 257
 512 128 l 257
512 256 m 257
 512 384 l 257
 640 384 l 257
 640 256 l 257
 512 256 l 257
128 384 m 257
 128 512 l 257
 256 512 l 257
 256 384 l 257
 128 384 l 257
256 384 m 257
 256 512 l 257
 384 512 l 257
 384 384 l 257
 256 384 l 257
384 384 m 257
 384 512 l 257
 512 512 l 257
 512 384 l 257
 384 384 l 257
512 384 m 257
 512 512 l 257
 640 512 l 257
 640 384 l 257
 512 384 l 257
0 512 m 257
 0 640 l 257
 128 640 l 257
 128 512 l 257
 0 512 l 257
512 512 m 257
 512 640 l 257
 640 640 l 257
 640 512 l 257
 512 512 l 257
0 640 m 257
 0 768 l 257
 128 768 l 257
 128 640 l 257
 0 640 l 257
512 640 m 257
 512 768 l 257
 640 768 l 257
 640 640 l 257
 512 640 l 257
128 768 m 257
 128 896 l 257
 256 896 l 257
 256 768 l 257
 128 768 l 257
256 768 m 257
 256 896 l 257
 384 896 l 257
 384 768 l 257
 256 768 l 257
384 768 m 257
 384 896 l 257
 512 896 l 257
 512 768 l 257
 384 768 l 257
EndSplineSet
Fore
SplineSet
0 165.490332008 m 1
 90.5096679919 256 l 1
 218.509667992 128 l 1
 421.490332008 128 l 1
 512 218.509667992 l 1
 512 384 l 1
 165.490332008 384 l 1
 0 549.490332008 l 1
 0 730.509667992 l 1
 165.490332008 896 l 1
 474.509667992 896 l 1
 640 730.509667992 l 1
 640 165.490332008 l 1
 474.509667992 0 l 1
 165.490332008 0 l 1
 0 165.490332008 l 1
128 602.509667992 m 1
 218.509667992 512 l 1
 512 512 l 1
 512 677.490332008 l 1
 421.490332008 768 l 1
 218.509667992 768 l 1
 128 677.490332008 l 1
 128 602.509667992 l 1
EndSplineSet
EndChar

StartChar: colon
Encoding: 26 58 26
GlifName: colon
Width: 768
VWidth: 0
Flags: HW
LayerCount: 2
Back
SplineSet
256 0 m 257
 256 128 l 257
 384 128 l 257
 384 0 l 257
 256 0 l 257
256 640 m 257
 256 768 l 257
 384 768 l 257
 384 640 l 257
 256 640 l 257
EndSplineSet
Fore
SplineSet
256 37.4903320081 m 1
 256 90.5096679919 l 1
 293.490332008 128 l 1
 346.509667992 128 l 1
 384 90.5096679919 l 1
 384 37.4903320081 l 1
 346.509667992 0 l 1
 293.490332008 0 l 1
 256 37.4903320081 l 1
256 677.490332008 m 1
 256 730.509667992 l 1
 293.490332008 768 l 1
 346.509667992 768 l 1
 384 730.509667992 l 1
 384 677.490332008 l 1
 346.509667992 640 l 1
 293.490332008 640 l 1
 256 677.490332008 l 1
EndSplineSet
EndChar

StartChar: semicolon
Encoding: 27 59 27
GlifName: semicolon
Width: 768
VWidth: 0
Flags: HW
LayerCount: 2
Back
SplineSet
0 -256 m 257
 0 -128 l 257
 128 -128 l 257
 128 -256 l 257
 0 -256 l 257
128 -128 m 257
 128 0 l 257
 256 0 l 257
 256 -128 l 257
 128 -128 l 257
256 0 m 257
 256 128 l 257
 384 128 l 257
 384 0 l 257
 256 0 l 257
256 640 m 257
 256 768 l 257
 384 768 l 257
 384 640 l 257
 256 640 l 257
EndSplineSet
Fore
SplineSet
0 -165.490332008 m 1
 293.490332008 128 l 1
 384 37.4903320081 l 1
 90.5096679919 -256 l 1
 0 -165.490332008 l 1
256 677.490332008 m 1
 256 730.509667992 l 1
 293.490332008 768 l 1
 346.509667992 768 l 1
 384 730.509667992 l 1
 384 677.490332008 l 1
 346.509667992 640 l 1
 293.490332008 640 l 1
 256 677.490332008 l 1
EndSplineSet
EndChar

StartChar: less
Encoding: 28 60 28
GlifName: less
Width: 768
VWidth: 0
Flags: HW
LayerCount: 2
Back
SplineSet
384 128 m 257
 384 256 l 257
 512 256 l 257
 512 128 l 257
 384 128 l 257
256 256 m 257
 256 384 l 257
 384 384 l 257
 384 256 l 257
 256 256 l 257
128 384 m 257
 128 512 l 257
 256 512 l 257
 256 384 l 257
 128 384 l 257
256 512 m 257
 256 640 l 257
 384 640 l 257
 384 512 l 257
 256 512 l 257
384 640 m 257
 384 768 l 257
 512 768 l 257
 512 640 l 257
 384 640 l 257
EndSplineSet
Fore
SplineSet
101.490332008 448 m 1
 421.490332008 768 l 1
 512 677.490332008 l 1
 282.509667992 448 l 1
 512 218.509667992 l 1
 421.490332008 128 l 1
 101.490332008 448 l 1
EndSplineSet
EndChar

StartChar: equal
Encoding: 29 61 29
GlifName: equal
Width: 768
VWidth: 0
Flags: HW
LayerCount: 2
Back
SplineSet
0 256 m 257
 0 384 l 257
 128 384 l 257
 128 256 l 257
 0 256 l 257
128 256 m 257
 128 384 l 257
 256 384 l 257
 256 256 l 257
 128 256 l 257
256 256 m 257
 256 384 l 257
 384 384 l 257
 384 256 l 257
 256 256 l 257
384 256 m 257
 384 384 l 257
 512 384 l 257
 512 256 l 257
 384 256 l 257
512 256 m 257
 512 384 l 257
 640 384 l 257
 640 256 l 257
 512 256 l 257
0 512 m 257
 0 640 l 257
 128 640 l 257
 128 512 l 257
 0 512 l 257
128 512 m 257
 128 640 l 257
 256 640 l 257
 256 512 l 257
 128 512 l 257
256 512 m 257
 256 640 l 257
 384 640 l 257
 384 512 l 257
 256 512 l 257
384 512 m 257
 384 640 l 257
 512 640 l 257
 512 512 l 257
 384 512 l 257
512 512 m 257
 512 640 l 257
 640 640 l 257
 640 512 l 257
 512 512 l 257
EndSplineSet
Fore
SplineSet
0 256 m 1
 0 384 l 1
 640 384 l 1
 640 256 l 1
 0 256 l 1
0 512 m 1
 0 640 l 1
 640 640 l 1
 640 512 l 1
 0 512 l 1
EndSplineSet
EndChar

StartChar: greater
Encoding: 30 62 30
GlifName: greater
Width: 768
VWidth: 0
Flags: HW
LayerCount: 2
Back
SplineSet
128 128 m 257
 128 256 l 257
 256 256 l 257
 256 128 l 257
 128 128 l 257
256 256 m 257
 256 384 l 257
 384 384 l 257
 384 256 l 257
 256 256 l 257
384 384 m 257
 384 512 l 257
 512 512 l 257
 512 384 l 257
 384 384 l 257
256 512 m 257
 256 640 l 257
 384 640 l 257
 384 512 l 257
 256 512 l 257
128 640 m 257
 128 768 l 257
 256 768 l 257
 256 640 l 257
 128 640 l 257
EndSplineSet
Fore
SplineSet
128 218.509667992 m 1
 357.490332008 448 l 1
 128 677.490332008 l 1
 218.509667992 768 l 1
 538.509667992 448 l 1
 218.509667992 128 l 1
 128 218.509667992 l 1
EndSplineSet
EndChar

StartChar: question
Encoding: 31 63 31
GlifName: question
Width: 768
VWidth: 0
Flags: HW
LayerCount: 2
Back
SplineSet
256 0 m 257
 256 128 l 257
 384 128 l 257
 384 0 l 257
 256 0 l 257
256 256 m 257
 256 384 l 257
 384 384 l 257
 384 256 l 257
 256 256 l 257
384 384 m 257
 384 512 l 257
 512 512 l 257
 512 384 l 257
 384 384 l 257
512 512 m 257
 512 640 l 257
 640 640 l 257
 640 512 l 257
 512 512 l 257
0 640 m 257
 0 768 l 257
 128 768 l 257
 128 640 l 257
 0 640 l 257
512 640 m 257
 512 768 l 257
 640 768 l 257
 640 640 l 257
 512 640 l 257
128 768 m 257
 128 896 l 257
 256 896 l 257
 256 768 l 257
 128 768 l 257
256 768 m 257
 256 896 l 257
 384 896 l 257
 384 768 l 257
 256 768 l 257
384 768 m 257
 384 896 l 257
 512 896 l 257
 512 768 l 257
 384 768 l 257
EndSplineSet
Fore
SplineSet
0 730.509667992 m 1
 165.490332008 896 l 1
 474.509667992 896 l 1
 640 730.509667992 l 1
 640 549.490332008 l 1
 384 293.490332008 l 1
 384 256 l 1
 256 256 l 1
 256 346.509667992 l 1
 512 602.509667992 l 1
 512 677.490332008 l 1
 421.490332008 768 l 1
 218.509667992 768 l 1
 90.5096679919 640 l 1
 0 730.509667992 l 1
256 37.4903320081 m 1
 256 90.5096679919 l 1
 293.490332008 128 l 1
 346.509667992 128 l 1
 384 90.5096679919 l 1
 384 37.4903320081 l 1
 346.509667992 0 l 1
 293.490332008 0 l 1
 256 37.4903320081 l 1
EndSplineSet
EndChar

StartChar: at
Encoding: 32 64 32
GlifName: at
Width: 768
VWidth: 0
Flags: HW
LayerCount: 2
Back
SplineSet
128 0 m 257
 128 128 l 257
 256 128 l 257
 256 0 l 257
 128 0 l 257
256 0 m 257
 256 128 l 257
 384 128 l 257
 384 0 l 257
 256 0 l 257
384 0 m 257
 384 128 l 257
 512 128 l 257
 512 0 l 257
 384 0 l 257
512 0 m 257
 512 128 l 257
 640 128 l 257
 640 0 l 257
 512 0 l 257
0 128 m 257
 0 256 l 257
 128 256 l 257
 128 128 l 257
 0 128 l 257
0 256 m 257
 0 384 l 257
 128 384 l 257
 128 256 l 257
 0 256 l 257
256 256 m 257
 256 384 l 257
 384 384 l 257
 384 256 l 257
 256 256 l 257
384 256 m 257
 384 384 l 257
 512 384 l 257
 512 256 l 257
 384 256 l 257
512 256 m 257
 512 384 l 257
 640 384 l 257
 640 256 l 257
 512 256 l 257
0 384 m 257
 0 512 l 257
 128 512 l 257
 128 384 l 257
 0 384 l 257
256 384 m 257
 256 512 l 257
 384 512 l 257
 384 384 l 257
 256 384 l 257
512 384 m 257
 512 512 l 257
 640 512 l 257
 640 384 l 257
 512 384 l 257
0 512 m 257
 0 640 l 257
 128 640 l 257
 128 512 l 257
 0 512 l 257
256 512 m 257
 256 640 l 257
 384 640 l 257
 384 512 l 257
 256 512 l 257
384 512 m 257
 384 640 l 257
 512 640 l 257
 512 512 l 257
 384 512 l 257
512 512 m 257
 512 640 l 257
 640 640 l 257
 640 512 l 257
 512 512 l 257
0 640 m 257
 0 768 l 257
 128 768 l 257
 128 640 l 257
 0 640 l 257
512 640 m 257
 512 768 l 257
 640 768 l 257
 640 640 l 257
 512 640 l 257
128 768 m 257
 128 896 l 257
 256 896 l 257
 256 768 l 257
 128 768 l 257
256 768 m 257
 256 896 l 257
 384 896 l 257
 384 768 l 257
 256 768 l 257
384 768 m 257
 384 896 l 257
 512 896 l 257
 512 768 l 257
 384 768 l 257
EndSplineSet
Fore
SplineSet
0 165.490332008 m 1
 0 730.509667992 l 1
 165.490332008 896 l 1
 474.509667992 896 l 1
 640 730.509667992 l 1
 640 346.509667992 l 1
 549.490332008 256 l 1
 346.509667992 256 l 1
 256 346.509667992 l 1
 256 549.490332008 l 1
 346.509667992 640 l 1
 512 640 l 1
 512 677.490332008 l 1
 421.490332008 768 l 1
 218.509667992 768 l 1
 128 677.490332008 l 1
 128 218.509667992 l 1
 218.509667992 128 l 1
 640 128 l 1
 640 0 l 1
 165.490332008 0 l 1
 0 165.490332008 l 1
384 384 m 1
 512 384 l 1
 512 512 l 1
 384 512 l 1
 384 384 l 1
EndSplineSet
EndChar

StartChar: A
Encoding: 33 65 33
GlifName: A_
Width: 768
VWidth: 0
Flags: HW
LayerCount: 2
Back
SplineSet
0 0 m 257
 0 128 l 257
 128 128 l 257
 128 0 l 257
 0 0 l 257
512 0 m 257
 512 128 l 257
 640 128 l 257
 640 0 l 257
 512 0 l 257
0 128 m 257
 0 256 l 257
 128 256 l 257
 128 128 l 257
 0 128 l 257
512 128 m 257
 512 256 l 257
 640 256 l 257
 640 128 l 257
 512 128 l 257
0 256 m 257
 0 384 l 257
 128 384 l 257
 128 256 l 257
 0 256 l 257
512 256 m 257
 512 384 l 257
 640 384 l 257
 640 256 l 257
 512 256 l 257
0 384 m 257
 0 512 l 257
 128 512 l 257
 128 384 l 257
 0 384 l 257
128 384 m 257
 128 512 l 257
 256 512 l 257
 256 384 l 257
 128 384 l 257
256 384 m 257
 256 512 l 257
 384 512 l 257
 384 384 l 257
 256 384 l 257
384 384 m 257
 384 512 l 257
 512 512 l 257
 512 384 l 257
 384 384 l 257
512 384 m 257
 512 512 l 257
 640 512 l 257
 640 384 l 257
 512 384 l 257
0 512 m 257
 0 640 l 257
 128 640 l 257
 128 512 l 257
 0 512 l 257
512 512 m 257
 512 640 l 257
 640 640 l 257
 640 512 l 257
 512 512 l 257
0 640 m 257
 0 768 l 257
 128 768 l 257
 128 640 l 257
 0 640 l 257
512 640 m 257
 512 768 l 257
 640 768 l 257
 640 640 l 257
 512 640 l 257
128 768 m 257
 128 896 l 257
 256 896 l 257
 256 768 l 257
 128 768 l 257
256 768 m 257
 256 896 l 257
 384 896 l 257
 384 768 l 257
 256 768 l 257
384 768 m 257
 384 896 l 257
 512 896 l 257
 512 768 l 257
 384 768 l 257
EndSplineSet
Fore
SplineSet
0 0 m 1
 0 730.509667992 l 1
 165.490332008 896 l 1
 474.509667992 896 l 1
 640 730.509667992 l 1
 640 0 l 1
 512 0 l 1
 512 384 l 1
 128 384 l 1
 128 0 l 1
 0 0 l 1
128 512 m 1
 512 512 l 1
 512 677.490332008 l 1
 421.490332008 768 l 1
 218.509667992 768 l 1
 128 677.490332008 l 1
 128 512 l 1
EndSplineSet
EndChar

StartChar: B
Encoding: 34 66 34
GlifName: B_
Width: 768
VWidth: 0
Flags: HW
LayerCount: 2
Back
SplineSet
0 0 m 257
 0 128 l 257
 128 128 l 257
 128 0 l 257
 0 0 l 257
128 0 m 257
 128 128 l 257
 256 128 l 257
 256 0 l 257
 128 0 l 257
256 0 m 257
 256 128 l 257
 384 128 l 257
 384 0 l 257
 256 0 l 257
384 0 m 257
 384 128 l 257
 512 128 l 257
 512 0 l 257
 384 0 l 257
0 128 m 257
 0 256 l 257
 128 256 l 257
 128 128 l 257
 0 128 l 257
512 128 m 257
 512 256 l 257
 640 256 l 257
 640 128 l 257
 512 128 l 257
0 256 m 257
 0 384 l 257
 128 384 l 257
 128 256 l 257
 0 256 l 257
512 256 m 257
 512 384 l 257
 640 384 l 257
 640 256 l 257
 512 256 l 257
0 384 m 257
 0 512 l 257
 128 512 l 257
 128 384 l 257
 0 384 l 257
128 384 m 257
 128 512 l 257
 256 512 l 257
 256 384 l 257
 128 384 l 257
256 384 m 257
 256 512 l 257
 384 512 l 257
 384 384 l 257
 256 384 l 257
384 384 m 257
 384 512 l 257
 512 512 l 257
 512 384 l 257
 384 384 l 257
0 512 m 257
 0 640 l 257
 128 640 l 257
 128 512 l 257
 0 512 l 257
512 512 m 257
 512 640 l 257
 640 640 l 257
 640 512 l 257
 512 512 l 257
0 640 m 257
 0 768 l 257
 128 768 l 257
 128 640 l 257
 0 640 l 257
512 640 m 257
 512 768 l 257
 640 768 l 257
 640 640 l 257
 512 640 l 257
0 768 m 257
 0 896 l 257
 128 896 l 257
 128 768 l 257
 0 768 l 257
128 768 m 257
 128 896 l 257
 256 896 l 257
 256 768 l 257
 128 768 l 257
256 768 m 257
 256 896 l 257
 384 896 l 257
 384 768 l 257
 256 768 l 257
384 768 m 257
 384 896 l 257
 512 896 l 257
 512 768 l 257
 384 768 l 257
EndSplineSet
Fore
SplineSet
0 0 m 1
 0 896 l 1
 474.509667992 896 l 1
 640 730.509667992 l 1
 640 549.490332008 l 1
 538.509667992 448 l 1
 640 346.509667992 l 1
 640 165.490332008 l 1
 474.509667992 0 l 1
 0 0 l 1
128 128 m 1
 421.490332008 128 l 1
 512 218.509667992 l 1
 512 293.490332008 l 1
 421.490332008 384 l 1
 128 384 l 1
 128 128 l 1
128 512 m 1
 421.490332008 512 l 1
 512 602.509667992 l 1
 512 677.490332008 l 1
 421.490332008 768 l 1
 128 768 l 1
 128 512 l 1
EndSplineSet
EndChar

StartChar: C
Encoding: 35 67 35
GlifName: C_
Width: 768
VWidth: 0
Flags: HW
LayerCount: 2
Back
SplineSet
128 0 m 257
 128 128 l 257
 256 128 l 257
 256 0 l 257
 128 0 l 257
256 0 m 257
 256 128 l 257
 384 128 l 257
 384 0 l 257
 256 0 l 257
384 0 m 257
 384 128 l 257
 512 128 l 257
 512 0 l 257
 384 0 l 257
0 128 m 257
 0 256 l 257
 128 256 l 257
 128 128 l 257
 0 128 l 257
512 128 m 257
 512 256 l 257
 640 256 l 257
 640 128 l 257
 512 128 l 257
0 256 m 257
 0 384 l 257
 128 384 l 257
 128 256 l 257
 0 256 l 257
0 384 m 257
 0 512 l 257
 128 512 l 257
 128 384 l 257
 0 384 l 257
0 512 m 257
 0 640 l 257
 128 640 l 257
 128 512 l 257
 0 512 l 257
0 640 m 257
 0 768 l 257
 128 768 l 257
 128 640 l 257
 0 640 l 257
512 640 m 257
 512 768 l 257
 640 768 l 257
 640 640 l 257
 512 640 l 257
128 768 m 257
 128 896 l 257
 256 896 l 257
 256 768 l 257
 128 768 l 257
256 768 m 257
 256 896 l 257
 384 896 l 257
 384 768 l 257
 256 768 l 257
384 768 m 257
 384 896 l 257
 512 896 l 257
 512 768 l 257
 384 768 l 257
EndSplineSet
Fore
SplineSet
0 165.490332008 m 1
 0 730.509667992 l 1
 165.490332008 896 l 1
 474.509667992 896 l 1
 640 730.509667992 l 1
 549.490332008 640 l 1
 421.490332008 768 l 1
 218.509667992 768 l 1
 128 677.490332008 l 1
 128 218.509667992 l 1
 218.509667992 128 l 1
 421.490332008 128 l 1
 549.490332008 256 l 1
 640 165.490332008 l 1
 474.509667992 0 l 1
 165.490332008 0 l 1
 0 165.490332008 l 1
EndSplineSet
EndChar

StartChar: D
Encoding: 36 68 36
GlifName: D_
Width: 768
VWidth: 0
Flags: HW
LayerCount: 2
Back
SplineSet
0 0 m 257
 0 128 l 257
 128 128 l 257
 128 0 l 257
 0 0 l 257
128 0 m 257
 128 128 l 257
 256 128 l 257
 256 0 l 257
 128 0 l 257
256 0 m 257
 256 128 l 257
 384 128 l 257
 384 0 l 257
 256 0 l 257
384 0 m 257
 384 128 l 257
 512 128 l 257
 512 0 l 257
 384 0 l 257
0 128 m 257
 0 256 l 257
 128 256 l 257
 128 128 l 257
 0 128 l 257
512 128 m 257
 512 256 l 257
 640 256 l 257
 640 128 l 257
 512 128 l 257
0 256 m 257
 0 384 l 257
 128 384 l 257
 128 256 l 257
 0 256 l 257
512 256 m 257
 512 384 l 257
 640 384 l 257
 640 256 l 257
 512 256 l 257
0 384 m 257
 0 512 l 257
 128 512 l 257
 128 384 l 257
 0 384 l 257
512 384 m 257
 512 512 l 257
 640 512 l 257
 640 384 l 257
 512 384 l 257
0 512 m 257
 0 640 l 257
 128 640 l 257
 128 512 l 257
 0 512 l 257
512 512 m 257
 512 640 l 257
 640 640 l 257
 640 512 l 257
 512 512 l 257
0 640 m 257
 0 768 l 257
 128 768 l 257
 128 640 l 257
 0 640 l 257
512 640 m 257
 512 768 l 257
 640 768 l 257
 640 640 l 257
 512 640 l 257
0 768 m 257
 0 896 l 257
 128 896 l 257
 128 768 l 257
 0 768 l 257
128 768 m 257
 128 896 l 257
 256 896 l 257
 256 768 l 257
 128 768 l 257
256 768 m 257
 256 896 l 257
 384 896 l 257
 384 768 l 257
 256 768 l 257
384 768 m 257
 384 896 l 257
 512 896 l 257
 512 768 l 257
 384 768 l 257
EndSplineSet
Fore
SplineSet
0 0 m 1
 0 896 l 1
 474.509667992 896 l 1
 640 730.509667992 l 1
 640 165.490332008 l 1
 474.509667992 0 l 1
 0 0 l 1
128 128 m 1
 421.490332008 128 l 1
 512 218.509667992 l 1
 512 677.490332008 l 1
 421.490332008 768 l 1
 128 768 l 1
 128 128 l 1
EndSplineSet
EndChar

StartChar: E
Encoding: 37 69 37
GlifName: E_
Width: 768
VWidth: 0
Flags: HW
LayerCount: 2
Back
SplineSet
0 0 m 257
 0 128 l 257
 128 128 l 257
 128 0 l 257
 0 0 l 257
128 0 m 257
 128 128 l 257
 256 128 l 257
 256 0 l 257
 128 0 l 257
256 0 m 257
 256 128 l 257
 384 128 l 257
 384 0 l 257
 256 0 l 257
384 0 m 257
 384 128 l 257
 512 128 l 257
 512 0 l 257
 384 0 l 257
512 0 m 257
 512 128 l 257
 640 128 l 257
 640 0 l 257
 512 0 l 257
0 128 m 257
 0 256 l 257
 128 256 l 257
 128 128 l 257
 0 128 l 257
0 256 m 257
 0 384 l 257
 128 384 l 257
 128 256 l 257
 0 256 l 257
0 384 m 257
 0 512 l 257
 128 512 l 257
 128 384 l 257
 0 384 l 257
128 384 m 257
 128 512 l 257
 256 512 l 257
 256 384 l 257
 128 384 l 257
256 384 m 257
 256 512 l 257
 384 512 l 257
 384 384 l 257
 256 384 l 257
384 384 m 257
 384 512 l 257
 512 512 l 257
 512 384 l 257
 384 384 l 257
0 512 m 257
 0 640 l 257
 128 640 l 257
 128 512 l 257
 0 512 l 257
0 640 m 257
 0 768 l 257
 128 768 l 257
 128 640 l 257
 0 640 l 257
0 768 m 257
 0 896 l 257
 128 896 l 257
 128 768 l 257
 0 768 l 257
128 768 m 257
 128 896 l 257
 256 896 l 257
 256 768 l 257
 128 768 l 257
256 768 m 257
 256 896 l 257
 384 896 l 257
 384 768 l 257
 256 768 l 257
384 768 m 257
 384 896 l 257
 512 896 l 257
 512 768 l 257
 384 768 l 257
512 768 m 257
 512 896 l 257
 640 896 l 257
 640 768 l 257
 512 768 l 257
EndSplineSet
Fore
SplineSet
0 0 m 1
 0 896 l 1
 640 896 l 1
 640 768 l 1
 128 768 l 1
 128 512 l 1
 512 512 l 1
 512 384 l 1
 128 384 l 1
 128 128 l 1
 640 128 l 1
 640 0 l 1
 0 0 l 1
EndSplineSet
EndChar

StartChar: F
Encoding: 38 70 38
GlifName: F_
Width: 768
VWidth: 0
Flags: HW
LayerCount: 2
Back
SplineSet
0 0 m 257
 0 128 l 257
 128 128 l 257
 128 0 l 257
 0 0 l 257
0 128 m 257
 0 256 l 257
 128 256 l 257
 128 128 l 257
 0 128 l 257
0 256 m 257
 0 384 l 257
 128 384 l 257
 128 256 l 257
 0 256 l 257
0 384 m 257
 0 512 l 257
 128 512 l 257
 128 384 l 257
 0 384 l 257
128 384 m 257
 128 512 l 257
 256 512 l 257
 256 384 l 257
 128 384 l 257
256 384 m 257
 256 512 l 257
 384 512 l 257
 384 384 l 257
 256 384 l 257
384 384 m 257
 384 512 l 257
 512 512 l 257
 512 384 l 257
 384 384 l 257
0 512 m 257
 0 640 l 257
 128 640 l 257
 128 512 l 257
 0 512 l 257
0 640 m 257
 0 768 l 257
 128 768 l 257
 128 640 l 257
 0 640 l 257
0 768 m 257
 0 896 l 257
 128 896 l 257
 128 768 l 257
 0 768 l 257
128 768 m 257
 128 896 l 257
 256 896 l 257
 256 768 l 257
 128 768 l 257
256 768 m 257
 256 896 l 257
 384 896 l 257
 384 768 l 257
 256 768 l 257
384 768 m 257
 384 896 l 257
 512 896 l 257
 512 768 l 257
 384 768 l 257
512 768 m 257
 512 896 l 257
 640 896 l 257
 640 768 l 257
 512 768 l 257
EndSplineSet
Fore
SplineSet
0 0 m 1
 0 896 l 1
 640 896 l 1
 640 768 l 1
 128 768 l 1
 128 512 l 1
 512 512 l 1
 512 384 l 1
 128 384 l 1
 128 0 l 1
 0 0 l 1
EndSplineSet
EndChar

StartChar: G
Encoding: 39 71 39
GlifName: G_
Width: 768
VWidth: 0
Flags: HW
LayerCount: 2
Back
SplineSet
128 0 m 257
 128 128 l 257
 256 128 l 257
 256 0 l 257
 128 0 l 257
256 0 m 257
 256 128 l 257
 384 128 l 257
 384 0 l 257
 256 0 l 257
384 0 m 257
 384 128 l 257
 512 128 l 257
 512 0 l 257
 384 0 l 257
0 128 m 257
 0 256 l 257
 128 256 l 257
 128 128 l 257
 0 128 l 257
512 128 m 257
 512 256 l 257
 640 256 l 257
 640 128 l 257
 512 128 l 257
0 256 m 257
 0 384 l 257
 128 384 l 257
 128 256 l 257
 0 256 l 257
512 256 m 257
 512 384 l 257
 640 384 l 257
 640 256 l 257
 512 256 l 257
0 384 m 257
 0 512 l 257
 128 512 l 257
 128 384 l 257
 0 384 l 257
384 384 m 257
 384 512 l 257
 512 512 l 257
 512 384 l 257
 384 384 l 257
512 384 m 257
 512 512 l 257
 640 512 l 257
 640 384 l 257
 512 384 l 257
0 512 m 257
 0 640 l 257
 128 640 l 257
 128 512 l 257
 0 512 l 257
0 640 m 257
 0 768 l 257
 128 768 l 257
 128 640 l 257
 0 640 l 257
512 640 m 257
 512 768 l 257
 640 768 l 257
 640 640 l 257
 512 640 l 257
128 768 m 257
 128 896 l 257
 256 896 l 257
 256 768 l 257
 128 768 l 257
256 768 m 257
 256 896 l 257
 384 896 l 257
 384 768 l 257
 256 768 l 257
384 768 m 257
 384 896 l 257
 512 896 l 257
 512 768 l 257
 384 768 l 257
EndSplineSet
Fore
SplineSet
0 165.490332008 m 1
 0 730.509667992 l 1
 165.490332008 896 l 1
 474.509667992 896 l 1
 640 730.509667992 l 1
 549.490332008 640 l 1
 421.490332008 768 l 1
 218.509667992 768 l 1
 128 677.490332008 l 1
 128 218.509667992 l 1
 218.509667992 128 l 1
 421.490332008 128 l 1
 512 218.509667992 l 1
 512 384 l 1
 384 384 l 1
 384 512 l 1
 640 512 l 1
 640 165.490332008 l 1
 474.509667992 0 l 1
 165.490332008 0 l 1
 0 165.490332008 l 1
EndSplineSet
EndChar

StartChar: H
Encoding: 40 72 40
GlifName: H_
Width: 768
VWidth: 0
Flags: HW
LayerCount: 2
Back
SplineSet
0 0 m 257
 0 128 l 257
 128 128 l 257
 128 0 l 257
 0 0 l 257
512 0 m 257
 512 128 l 257
 640 128 l 257
 640 0 l 257
 512 0 l 257
0 128 m 257
 0 256 l 257
 128 256 l 257
 128 128 l 257
 0 128 l 257
512 128 m 257
 512 256 l 257
 640 256 l 257
 640 128 l 257
 512 128 l 257
0 256 m 257
 0 384 l 257
 128 384 l 257
 128 256 l 257
 0 256 l 257
512 256 m 257
 512 384 l 257
 640 384 l 257
 640 256 l 257
 512 256 l 257
0 384 m 257
 0 512 l 257
 128 512 l 257
 128 384 l 257
 0 384 l 257
128 384 m 257
 128 512 l 257
 256 512 l 257
 256 384 l 257
 128 384 l 257
256 384 m 257
 256 512 l 257
 384 512 l 257
 384 384 l 257
 256 384 l 257
384 384 m 257
 384 512 l 257
 512 512 l 257
 512 384 l 257
 384 384 l 257
512 384 m 257
 512 512 l 257
 640 512 l 257
 640 384 l 257
 512 384 l 257
0 512 m 257
 0 640 l 257
 128 640 l 257
 128 512 l 257
 0 512 l 257
512 512 m 257
 512 640 l 257
 640 640 l 257
 640 512 l 257
 512 512 l 257
0 640 m 257
 0 768 l 257
 128 768 l 257
 128 640 l 257
 0 640 l 257
512 640 m 257
 512 768 l 257
 640 768 l 257
 640 640 l 257
 512 640 l 257
0 768 m 257
 0 896 l 257
 128 896 l 257
 128 768 l 257
 0 768 l 257
512 768 m 257
 512 896 l 257
 640 896 l 257
 640 768 l 257
 512 768 l 257
EndSplineSet
Fore
SplineSet
0 0 m 1
 0 896 l 1
 128 896 l 1
 128 512 l 1
 512 512 l 1
 512 896 l 1
 640 896 l 1
 640 0 l 1
 512 0 l 1
 512 384 l 1
 128 384 l 1
 128 0 l 1
 0 0 l 1
EndSplineSet
EndChar

StartChar: I
Encoding: 41 73 41
GlifName: I_
Width: 768
VWidth: 0
Flags: HW
LayerCount: 2
Back
SplineSet
0 0 m 257
 0 128 l 257
 128 128 l 257
 128 0 l 257
 0 0 l 257
128 0 m 257
 128 128 l 257
 256 128 l 257
 256 0 l 257
 128 0 l 257
256 0 m 257
 256 128 l 257
 384 128 l 257
 384 0 l 257
 256 0 l 257
384 0 m 257
 384 128 l 257
 512 128 l 257
 512 0 l 257
 384 0 l 257
512 0 m 257
 512 128 l 257
 640 128 l 257
 640 0 l 257
 512 0 l 257
256 128 m 257
 256 256 l 257
 384 256 l 257
 384 128 l 257
 256 128 l 257
256 256 m 257
 256 384 l 257
 384 384 l 257
 384 256 l 257
 256 256 l 257
256 384 m 257
 256 512 l 257
 384 512 l 257
 384 384 l 257
 256 384 l 257
256 512 m 257
 256 640 l 257
 384 640 l 257
 384 512 l 257
 256 512 l 257
256 640 m 257
 256 768 l 257
 384 768 l 257
 384 640 l 257
 256 640 l 257
0 768 m 257
 0 896 l 257
 128 896 l 257
 128 768 l 257
 0 768 l 257
128 768 m 257
 128 896 l 257
 256 896 l 257
 256 768 l 257
 128 768 l 257
256 768 m 257
 256 896 l 257
 384 896 l 257
 384 768 l 257
 256 768 l 257
384 768 m 257
 384 896 l 257
 512 896 l 257
 512 768 l 257
 384 768 l 257
512 768 m 257
 512 896 l 257
 640 896 l 257
 640 768 l 257
 512 768 l 257
EndSplineSet
Fore
SplineSet
0 0 m 1
 0 128 l 1
 256 128 l 1
 256 768 l 1
 0 768 l 1
 0 896 l 1
 640 896 l 1
 640 768 l 1
 384 768 l 1
 384 128 l 1
 640 128 l 1
 640 0 l 1
 0 0 l 1
EndSplineSet
EndChar

StartChar: J
Encoding: 42 74 42
GlifName: J_
Width: 768
VWidth: 0
Flags: HW
LayerCount: 2
Back
SplineSet
128 0 m 257
 128 128 l 257
 256 128 l 257
 256 0 l 257
 128 0 l 257
256 0 m 257
 256 128 l 257
 384 128 l 257
 384 0 l 257
 256 0 l 257
384 0 m 257
 384 128 l 257
 512 128 l 257
 512 0 l 257
 384 0 l 257
0 128 m 257
 0 256 l 257
 128 256 l 257
 128 128 l 257
 0 128 l 257
512 128 m 257
 512 256 l 257
 640 256 l 257
 640 128 l 257
 512 128 l 257
0 256 m 257
 0 384 l 257
 128 384 l 257
 128 256 l 257
 0 256 l 257
512 256 m 257
 512 384 l 257
 640 384 l 257
 640 256 l 257
 512 256 l 257
512 384 m 257
 512 512 l 257
 640 512 l 257
 640 384 l 257
 512 384 l 257
512 512 m 257
 512 640 l 257
 640 640 l 257
 640 512 l 257
 512 512 l 257
512 640 m 257
 512 768 l 257
 640 768 l 257
 640 640 l 257
 512 640 l 257
512 768 m 257
 512 896 l 257
 640 896 l 257
 640 768 l 257
 512 768 l 257
EndSplineSet
Fore
SplineSet
0 165.490332008 m 1
 0 384 l 1
 128 384 l 1
 128 218.509667992 l 1
 218.509667992 128 l 1
 421.490332008 128 l 1
 512 218.509667992 l 1
 512 896 l 1
 640 896 l 1
 640 165.490332008 l 1
 474.509667992 0 l 1
 165.490332008 0 l 1
 0 165.490332008 l 1
EndSplineSet
EndChar

StartChar: K
Encoding: 43 75 43
GlifName: K_
Width: 768
VWidth: 0
Flags: HW
LayerCount: 2
Back
SplineSet
0 0 m 257
 0 128 l 257
 128 128 l 257
 128 0 l 257
 0 0 l 257
512 0 m 257
 512 128 l 257
 640 128 l 257
 640 0 l 257
 512 0 l 257
0 128 m 257
 0 256 l 257
 128 256 l 257
 128 128 l 257
 0 128 l 257
384 128 m 257
 384 256 l 257
 512 256 l 257
 512 128 l 257
 384 128 l 257
0 256 m 257
 0 384 l 257
 128 384 l 257
 128 256 l 257
 0 256 l 257
256 256 m 257
 256 384 l 257
 384 384 l 257
 384 256 l 257
 256 256 l 257
0 384 m 257
 0 512 l 257
 128 512 l 257
 128 384 l 257
 0 384 l 257
128 384 m 257
 128 512 l 257
 256 512 l 257
 256 384 l 257
 128 384 l 257
0 512 m 257
 0 640 l 257
 128 640 l 257
 128 512 l 257
 0 512 l 257
256 512 m 257
 256 640 l 257
 384 640 l 257
 384 512 l 257
 256 512 l 257
0 640 m 257
 0 768 l 257
 128 768 l 257
 128 640 l 257
 0 640 l 257
384 640 m 257
 384 768 l 257
 512 768 l 257
 512 640 l 257
 384 640 l 257
0 768 m 257
 0 896 l 257
 128 896 l 257
 128 768 l 257
 0 768 l 257
512 768 m 257
 512 896 l 257
 640 896 l 257
 640 768 l 257
 512 768 l 257
EndSplineSet
Fore
SplineSet
0 0 m 1
 0 896 l 1
 128 896 l 1
 128 474.509667992 l 1
 549.490332008 896 l 1
 640 805.490332008 l 1
 282.509667992 448 l 1
 640 90.5096679919 l 1
 549.490332008 0 l 1
 128 421.490332008 l 1
 128 0 l 1
 0 0 l 1
EndSplineSet
EndChar

StartChar: L
Encoding: 44 76 44
GlifName: L_
Width: 768
VWidth: 0
Flags: HW
LayerCount: 2
Back
SplineSet
0 0 m 257
 0 128 l 257
 128 128 l 257
 128 0 l 257
 0 0 l 257
128 0 m 257
 128 128 l 257
 256 128 l 257
 256 0 l 257
 128 0 l 257
256 0 m 257
 256 128 l 257
 384 128 l 257
 384 0 l 257
 256 0 l 257
384 0 m 257
 384 128 l 257
 512 128 l 257
 512 0 l 257
 384 0 l 257
512 0 m 257
 512 128 l 257
 640 128 l 257
 640 0 l 257
 512 0 l 257
0 128 m 257
 0 256 l 257
 128 256 l 257
 128 128 l 257
 0 128 l 257
0 256 m 257
 0 384 l 257
 128 384 l 257
 128 256 l 257
 0 256 l 257
0 384 m 257
 0 512 l 257
 128 512 l 257
 128 384 l 257
 0 384 l 257
0 512 m 257
 0 640 l 257
 128 640 l 257
 128 512 l 257
 0 512 l 257
0 640 m 257
 0 768 l 257
 128 768 l 257
 128 640 l 257
 0 640 l 257
0 768 m 257
 0 896 l 257
 128 896 l 257
 128 768 l 257
 0 768 l 257
EndSplineSet
Fore
SplineSet
0 0 m 1
 0 896 l 1
 128 896 l 1
 128 128 l 1
 640 128 l 1
 640 0 l 1
 0 0 l 1
EndSplineSet
EndChar

StartChar: M
Encoding: 45 77 45
GlifName: M_
Width: 768
VWidth: 0
Flags: HW
LayerCount: 2
Back
SplineSet
0 0 m 257
 0 128 l 257
 128 128 l 257
 128 0 l 257
 0 0 l 257
512 0 m 257
 512 128 l 257
 640 128 l 257
 640 0 l 257
 512 0 l 257
0 128 m 257
 0 256 l 257
 128 256 l 257
 128 128 l 257
 0 128 l 257
512 128 m 257
 512 256 l 257
 640 256 l 257
 640 128 l 257
 512 128 l 257
0 256 m 257
 0 384 l 257
 128 384 l 257
 128 256 l 257
 0 256 l 257
512 256 m 257
 512 384 l 257
 640 384 l 257
 640 256 l 257
 512 256 l 257
0 384 m 257
 0 512 l 257
 128 512 l 257
 128 384 l 257
 0 384 l 257
512 384 m 257
 512 512 l 257
 640 512 l 257
 640 384 l 257
 512 384 l 257
0 512 m 257
 0 640 l 257
 128 640 l 257
 128 512 l 257
 0 512 l 257
256 512 m 257
 256 640 l 257
 384 640 l 257
 384 512 l 257
 256 512 l 257
512 512 m 257
 512 640 l 257
 640 640 l 257
 640 512 l 257
 512 512 l 257
0 640 m 257
 0 768 l 257
 128 768 l 257
 128 640 l 257
 0 640 l 257
128 640 m 257
 128 768 l 257
 256 768 l 257
 256 640 l 257
 128 640 l 257
384 640 m 257
 384 768 l 257
 512 768 l 257
 512 640 l 257
 384 640 l 257
512 640 m 257
 512 768 l 257
 640 768 l 257
 640 640 l 257
 512 640 l 257
0 768 m 257
 0 896 l 257
 128 896 l 257
 128 768 l 257
 0 768 l 257
512 768 m 257
 512 896 l 257
 640 896 l 257
 640 768 l 257
 512 768 l 257
EndSplineSet
Fore
SplineSet
0 0 m 1
 0 896 l 1
 90.5096679919 896 l 1
 320 666.509667992 l 1
 549.490332008 896 l 1
 640 896 l 1
 640 0 l 1
 512 0 l 1
 512 677.490332008 l 1
 320 485.490332008 l 1
 128 677.490332008 l 1
 128 0 l 1
 0 0 l 1
EndSplineSet
EndChar

StartChar: N
Encoding: 46 78 46
GlifName: N_
Width: 768
VWidth: 0
Flags: HW
LayerCount: 2
Back
SplineSet
0 0 m 257
 0 128 l 257
 128 128 l 257
 128 0 l 257
 0 0 l 257
512 0 m 257
 512 128 l 257
 640 128 l 257
 640 0 l 257
 512 0 l 257
0 128 m 257
 0 256 l 257
 128 256 l 257
 128 128 l 257
 0 128 l 257
512 128 m 257
 512 256 l 257
 640 256 l 257
 640 128 l 257
 512 128 l 257
0 256 m 257
 0 384 l 257
 128 384 l 257
 128 256 l 257
 0 256 l 257
512 256 m 257
 512 384 l 257
 640 384 l 257
 640 256 l 257
 512 256 l 257
0 384 m 257
 0 512 l 257
 128 512 l 257
 128 384 l 257
 0 384 l 257
384 384 m 257
 384 512 l 257
 512 512 l 257
 512 384 l 257
 384 384 l 257
512 384 m 257
 512 512 l 257
 640 512 l 257
 640 384 l 257
 512 384 l 257
0 512 m 257
 0 640 l 257
 128 640 l 257
 128 512 l 257
 0 512 l 257
256 512 m 257
 256 640 l 257
 384 640 l 257
 384 512 l 257
 256 512 l 257
512 512 m 257
 512 640 l 257
 640 640 l 257
 640 512 l 257
 512 512 l 257
0 640 m 257
 0 768 l 257
 128 768 l 257
 128 640 l 257
 0 640 l 257
128 640 m 257
 128 768 l 257
 256 768 l 257
 256 640 l 257
 128 640 l 257
512 640 m 257
 512 768 l 257
 640 768 l 257
 640 640 l 257
 512 640 l 257
0 768 m 257
 0 896 l 257
 128 896 l 257
 128 768 l 257
 0 768 l 257
512 768 m 257
 512 896 l 257
 640 896 l 257
 640 768 l 257
 512 768 l 257
EndSplineSet
Fore
SplineSet
0 0 m 1
 0 896 l 1
 90.5096679919 896 l 1
 512 474.509667992 l 1
 512 896 l 1
 640 896 l 1
 640 0 l 1
 512 0 l 1
 512 293.490332008 l 1
 128 677.490332008 l 1
 128 0 l 1
 0 0 l 1
EndSplineSet
EndChar

StartChar: O
Encoding: 47 79 47
GlifName: O_
Width: 768
VWidth: 0
Flags: HW
LayerCount: 2
Back
SplineSet
128 0 m 257
 128 128 l 257
 256 128 l 257
 256 0 l 257
 128 0 l 257
256 0 m 257
 256 128 l 257
 384 128 l 257
 384 0 l 257
 256 0 l 257
384 0 m 257
 384 128 l 257
 512 128 l 257
 512 0 l 257
 384 0 l 257
0 128 m 257
 0 256 l 257
 128 256 l 257
 128 128 l 257
 0 128 l 257
512 128 m 257
 512 256 l 257
 640 256 l 257
 640 128 l 257
 512 128 l 257
0 256 m 257
 0 384 l 257
 128 384 l 257
 128 256 l 257
 0 256 l 257
512 256 m 257
 512 384 l 257
 640 384 l 257
 640 256 l 257
 512 256 l 257
0 384 m 257
 0 512 l 257
 128 512 l 257
 128 384 l 257
 0 384 l 257
512 384 m 257
 512 512 l 257
 640 512 l 257
 640 384 l 257
 512 384 l 257
0 512 m 257
 0 640 l 257
 128 640 l 257
 128 512 l 257
 0 512 l 257
512 512 m 257
 512 640 l 257
 640 640 l 257
 640 512 l 257
 512 512 l 257
0 640 m 257
 0 768 l 257
 128 768 l 257
 128 640 l 257
 0 640 l 257
512 640 m 257
 512 768 l 257
 640 768 l 257
 640 640 l 257
 512 640 l 257
128 768 m 257
 128 896 l 257
 256 896 l 257
 256 768 l 257
 128 768 l 257
256 768 m 257
 256 896 l 257
 384 896 l 257
 384 768 l 257
 256 768 l 257
384 768 m 257
 384 896 l 257
 512 896 l 257
 512 768 l 257
 384 768 l 257
EndSplineSet
Fore
SplineSet
0 165.490332008 m 1
 0 730.509667992 l 1
 165.490332008 896 l 1
 474.509667992 896 l 1
 640 730.509667992 l 1
 640 165.490332008 l 1
 474.509667992 0 l 1
 165.490332008 0 l 1
 0 165.490332008 l 1
128 218.509667992 m 1
 218.509667992 128 l 1
 421.490332008 128 l 1
 512 218.509667992 l 1
 512 677.490332008 l 1
 421.490332008 768 l 1
 218.509667992 768 l 1
 128 677.490332008 l 1
 128 218.509667992 l 1
EndSplineSet
EndChar

StartChar: P
Encoding: 48 80 48
GlifName: P_
Width: 768
VWidth: 0
Flags: HW
LayerCount: 2
Back
SplineSet
0 0 m 257
 0 128 l 257
 128 128 l 257
 128 0 l 257
 0 0 l 257
0 128 m 257
 0 256 l 257
 128 256 l 257
 128 128 l 257
 0 128 l 257
0 256 m 257
 0 384 l 257
 128 384 l 257
 128 256 l 257
 0 256 l 257
0 384 m 257
 0 512 l 257
 128 512 l 257
 128 384 l 257
 0 384 l 257
128 384 m 257
 128 512 l 257
 256 512 l 257
 256 384 l 257
 128 384 l 257
256 384 m 257
 256 512 l 257
 384 512 l 257
 384 384 l 257
 256 384 l 257
384 384 m 257
 384 512 l 257
 512 512 l 257
 512 384 l 257
 384 384 l 257
0 512 m 257
 0 640 l 257
 128 640 l 257
 128 512 l 257
 0 512 l 257
512 512 m 257
 512 640 l 257
 640 640 l 257
 640 512 l 257
 512 512 l 257
0 640 m 257
 0 768 l 257
 128 768 l 257
 128 640 l 257
 0 640 l 257
512 640 m 257
 512 768 l 257
 640 768 l 257
 640 640 l 257
 512 640 l 257
0 768 m 257
 0 896 l 257
 128 896 l 257
 128 768 l 257
 0 768 l 257
128 768 m 257
 128 896 l 257
 256 896 l 257
 256 768 l 257
 128 768 l 257
256 768 m 257
 256 896 l 257
 384 896 l 257
 384 768 l 257
 256 768 l 257
384 768 m 257
 384 896 l 257
 512 896 l 257
 512 768 l 257
 384 768 l 257
EndSplineSet
Fore
SplineSet
0 0 m 1
 0 896 l 1
 474.509667992 896 l 1
 640 730.509667992 l 1
 640 549.490332008 l 1
 474.509667992 384 l 1
 128 384 l 1
 128 0 l 1
 0 0 l 1
128 512 m 1
 421.490332008 512 l 1
 512 602.509667992 l 1
 512 677.490332008 l 1
 421.490332008 768 l 1
 128 768 l 1
 128 512 l 1
EndSplineSet
EndChar

StartChar: Q
Encoding: 49 81 49
GlifName: Q_
Width: 768
VWidth: 0
Flags: HW
LayerCount: 2
Back
SplineSet
512 -256 m 257
 512 -128 l 257
 640 -128 l 257
 640 -256 l 257
 512 -256 l 257
512 -128 m 257
 512 0 l 257
 640 0 l 257
 640 -128 l 257
 512 -128 l 257
128 0 m 257
 128 128 l 257
 256 128 l 257
 256 0 l 257
 128 0 l 257
256 0 m 257
 256 128 l 257
 384 128 l 257
 384 0 l 257
 256 0 l 257
384 0 m 257
 384 128 l 257
 512 128 l 257
 512 0 l 257
 384 0 l 257
0 128 m 257
 0 256 l 257
 128 256 l 257
 128 128 l 257
 0 128 l 257
512 128 m 257
 512 256 l 257
 640 256 l 257
 640 128 l 257
 512 128 l 257
0 256 m 257
 0 384 l 257
 128 384 l 257
 128 256 l 257
 0 256 l 257
512 256 m 257
 512 384 l 257
 640 384 l 257
 640 256 l 257
 512 256 l 257
0 384 m 257
 0 512 l 257
 128 512 l 257
 128 384 l 257
 0 384 l 257
512 384 m 257
 512 512 l 257
 640 512 l 257
 640 384 l 257
 512 384 l 257
0 512 m 257
 0 640 l 257
 128 640 l 257
 128 512 l 257
 0 512 l 257
512 512 m 257
 512 640 l 257
 640 640 l 257
 640 512 l 257
 512 512 l 257
0 640 m 257
 0 768 l 257
 128 768 l 257
 128 640 l 257
 0 640 l 257
512 640 m 257
 512 768 l 257
 640 768 l 257
 640 640 l 257
 512 640 l 257
128 768 m 257
 128 896 l 257
 256 896 l 257
 256 768 l 257
 128 768 l 257
256 768 m 257
 256 896 l 257
 384 896 l 257
 384 768 l 257
 256 768 l 257
384 768 m 257
 384 896 l 257
 512 896 l 257
 512 768 l 257
 384 768 l 257
EndSplineSet
Fore
SplineSet
0 165.490332008 m 1
 0 730.509667992 l 1
 165.490332008 896 l 1
 474.509667992 896 l 1
 640 730.509667992 l 1
 640 165.490332008 l 1
 538.509667992 64 l 1
 640 -37.4903320081 l 1
 640 -256 l 1
 512 -256 l 1
 512 -90.5096679919 l 1
 421.490332008 0 l 1
 165.490332008 0 l 1
 0 165.490332008 l 1
128 218.509667992 m 1
 218.509667992 128 l 1
 421.490332008 128 l 1
 512 218.509667992 l 1
 512 677.490332008 l 1
 421.490332008 768 l 1
 218.509667992 768 l 1
 128 677.490332008 l 1
 128 218.509667992 l 1
EndSplineSet
EndChar

StartChar: R
Encoding: 50 82 50
GlifName: R_
Width: 768
VWidth: 0
Flags: HW
LayerCount: 2
Back
SplineSet
0 0 m 257
 0 128 l 257
 128 128 l 257
 128 0 l 257
 0 0 l 257
512 0 m 257
 512 128 l 257
 640 128 l 257
 640 0 l 257
 512 0 l 257
0 128 m 257
 0 256 l 257
 128 256 l 257
 128 128 l 257
 0 128 l 257
512 128 m 257
 512 256 l 257
 640 256 l 257
 640 128 l 257
 512 128 l 257
0 256 m 257
 0 384 l 257
 128 384 l 257
 128 256 l 257
 0 256 l 257
512 256 m 257
 512 384 l 257
 640 384 l 257
 640 256 l 257
 512 256 l 257
0 384 m 257
 0 512 l 257
 128 512 l 257
 128 384 l 257
 0 384 l 257
128 384 m 257
 128 512 l 257
 256 512 l 257
 256 384 l 257
 128 384 l 257
256 384 m 257
 256 512 l 257
 384 512 l 257
 384 384 l 257
 256 384 l 257
384 384 m 257
 384 512 l 257
 512 512 l 257
 512 384 l 257
 384 384 l 257
0 512 m 257
 0 640 l 257
 128 640 l 257
 128 512 l 257
 0 512 l 257
512 512 m 257
 512 640 l 257
 640 640 l 257
 640 512 l 257
 512 512 l 257
0 640 m 257
 0 768 l 257
 128 768 l 257
 128 640 l 257
 0 640 l 257
512 640 m 257
 512 768 l 257
 640 768 l 257
 640 640 l 257
 512 640 l 257
0 768 m 257
 0 896 l 257
 128 896 l 257
 128 768 l 257
 0 768 l 257
128 768 m 257
 128 896 l 257
 256 896 l 257
 256 768 l 257
 128 768 l 257
256 768 m 257
 256 896 l 257
 384 896 l 257
 384 768 l 257
 256 768 l 257
384 768 m 257
 384 896 l 257
 512 896 l 257
 512 768 l 257
 384 768 l 257
EndSplineSet
Fore
SplineSet
0 0 m 1
 0 896 l 1
 474.509667992 896 l 1
 640 730.509667992 l 1
 640 549.490332008 l 1
 538.509667992 448 l 1
 640 346.509667992 l 1
 640 0 l 1
 512 0 l 1
 512 293.490332008 l 1
 421.490332008 384 l 1
 128 384 l 1
 128 0 l 1
 0 0 l 1
128 512 m 1
 421.490332008 512 l 1
 512 602.509667992 l 1
 512 677.490332008 l 1
 421.490332008 768 l 1
 128 768 l 1
 128 512 l 1
EndSplineSet
EndChar

StartChar: S
Encoding: 51 83 51
GlifName: S_
Width: 768
VWidth: 0
Flags: HW
LayerCount: 2
Back
SplineSet
128 0 m 257
 128 128 l 257
 256 128 l 257
 256 0 l 257
 128 0 l 257
256 0 m 257
 256 128 l 257
 384 128 l 257
 384 0 l 257
 256 0 l 257
384 0 m 257
 384 128 l 257
 512 128 l 257
 512 0 l 257
 384 0 l 257
0 128 m 257
 0 256 l 257
 128 256 l 257
 128 128 l 257
 0 128 l 257
512 128 m 257
 512 256 l 257
 640 256 l 257
 640 128 l 257
 512 128 l 257
512 256 m 257
 512 384 l 257
 640 384 l 257
 640 256 l 257
 512 256 l 257
128 384 m 257
 128 512 l 257
 256 512 l 257
 256 384 l 257
 128 384 l 257
256 384 m 257
 256 512 l 257
 384 512 l 257
 384 384 l 257
 256 384 l 257
384 384 m 257
 384 512 l 257
 512 512 l 257
 512 384 l 257
 384 384 l 257
0 512 m 257
 0 640 l 257
 128 640 l 257
 128 512 l 257
 0 512 l 257
0 640 m 257
 0 768 l 257
 128 768 l 257
 128 640 l 257
 0 640 l 257
512 640 m 257
 512 768 l 257
 640 768 l 257
 640 640 l 257
 512 640 l 257
128 768 m 257
 128 896 l 257
 256 896 l 257
 256 768 l 257
 128 768 l 257
256 768 m 257
 256 896 l 257
 384 896 l 257
 384 768 l 257
 256 768 l 257
384 768 m 257
 384 896 l 257
 512 896 l 257
 512 768 l 257
 384 768 l 257
EndSplineSet
Fore
SplineSet
0 165.490332008 m 1
 90.5096679919 256 l 1
 218.509667992 128 l 1
 421.490332008 128 l 1
 512 218.509667992 l 1
 512 293.490332008 l 1
 421.490332008 384 l 1
 165.490332008 384 l 1
 0 549.490332008 l 1
 0 730.509667992 l 1
 165.490332008 896 l 1
 474.509667992 896 l 1
 640 730.509667992 l 1
 549.490332008 640 l 1
 421.490332008 768 l 1
 218.509667992 768 l 1
 128 677.490332008 l 1
 128 602.509667992 l 1
 218.509667992 512 l 1
 474.509667992 512 l 1
 640 346.509667992 l 1
 640 165.490332008 l 1
 474.509667992 0 l 1
 165.490332008 0 l 1
 0 165.490332008 l 1
EndSplineSet
EndChar

StartChar: T
Encoding: 52 84 52
GlifName: T_
Width: 768
VWidth: 0
Flags: HW
LayerCount: 2
Back
SplineSet
256 0 m 257
 256 128 l 257
 384 128 l 257
 384 0 l 257
 256 0 l 257
256 128 m 257
 256 256 l 257
 384 256 l 257
 384 128 l 257
 256 128 l 257
256 256 m 257
 256 384 l 257
 384 384 l 257
 384 256 l 257
 256 256 l 257
256 384 m 257
 256 512 l 257
 384 512 l 257
 384 384 l 257
 256 384 l 257
256 512 m 257
 256 640 l 257
 384 640 l 257
 384 512 l 257
 256 512 l 257
256 640 m 257
 256 768 l 257
 384 768 l 257
 384 640 l 257
 256 640 l 257
0 768 m 257
 0 896 l 257
 128 896 l 257
 128 768 l 257
 0 768 l 257
128 768 m 257
 128 896 l 257
 256 896 l 257
 256 768 l 257
 128 768 l 257
256 768 m 257
 256 896 l 257
 384 896 l 257
 384 768 l 257
 256 768 l 257
384 768 m 257
 384 896 l 257
 512 896 l 257
 512 768 l 257
 384 768 l 257
512 768 m 257
 512 896 l 257
 640 896 l 257
 640 768 l 257
 512 768 l 257
EndSplineSet
Fore
SplineSet
0 768 m 1
 0 896 l 1
 640 896 l 1
 640 768 l 1
 384 768 l 1
 384 0 l 1
 256 0 l 1
 256 768 l 1
 0 768 l 1
EndSplineSet
EndChar

StartChar: U
Encoding: 53 85 53
GlifName: U_
Width: 768
VWidth: 0
Flags: HW
LayerCount: 2
Back
SplineSet
128 0 m 257
 128 128 l 257
 256 128 l 257
 256 0 l 257
 128 0 l 257
256 0 m 257
 256 128 l 257
 384 128 l 257
 384 0 l 257
 256 0 l 257
384 0 m 257
 384 128 l 257
 512 128 l 257
 512 0 l 257
 384 0 l 257
0 128 m 257
 0 256 l 257
 128 256 l 257
 128 128 l 257
 0 128 l 257
512 128 m 257
 512 256 l 257
 640 256 l 257
 640 128 l 257
 512 128 l 257
0 256 m 257
 0 384 l 257
 128 384 l 257
 128 256 l 257
 0 256 l 257
512 256 m 257
 512 384 l 257
 640 384 l 257
 640 256 l 257
 512 256 l 257
0 384 m 257
 0 512 l 257
 128 512 l 257
 128 384 l 257
 0 384 l 257
512 384 m 257
 512 512 l 257
 640 512 l 257
 640 384 l 257
 512 384 l 257
0 512 m 257
 0 640 l 257
 128 640 l 257
 128 512 l 257
 0 512 l 257
512 512 m 257
 512 640 l 257
 640 640 l 257
 640 512 l 257
 512 512 l 257
0 640 m 257
 0 768 l 257
 128 768 l 257
 128 640 l 257
 0 640 l 257
512 640 m 257
 512 768 l 257
 640 768 l 257
 640 640 l 257
 512 640 l 257
0 768 m 257
 0 896 l 257
 128 896 l 257
 128 768 l 257
 0 768 l 257
512 768 m 257
 512 896 l 257
 640 896 l 257
 640 768 l 257
 512 768 l 257
EndSplineSet
Fore
SplineSet
0 165.490332008 m 1
 0 896 l 1
 128 896 l 1
 128 218.509667992 l 1
 218.509667992 128 l 1
 421.490332008 128 l 1
 512 218.509667992 l 1
 512 896 l 1
 640 896 l 1
 640 165.490332008 l 1
 474.509667992 0 l 1
 165.490332008 0 l 1
 0 165.490332008 l 1
EndSplineSet
EndChar

StartChar: V
Encoding: 54 86 54
GlifName: V_
Width: 768
VWidth: 0
Flags: HW
LayerCount: 2
Back
SplineSet
256 0 m 257
 256 128 l 257
 384 128 l 257
 384 0 l 257
 256 0 l 257
128 128 m 257
 128 256 l 257
 256 256 l 257
 256 128 l 257
 128 128 l 257
384 128 m 257
 384 256 l 257
 512 256 l 257
 512 128 l 257
 384 128 l 257
0 256 m 257
 0 384 l 257
 128 384 l 257
 128 256 l 257
 0 256 l 257
512 256 m 257
 512 384 l 257
 640 384 l 257
 640 256 l 257
 512 256 l 257
0 384 m 257
 0 512 l 257
 128 512 l 257
 128 384 l 257
 0 384 l 257
512 384 m 257
 512 512 l 257
 640 512 l 257
 640 384 l 257
 512 384 l 257
0 512 m 257
 0 640 l 257
 128 640 l 257
 128 512 l 257
 0 512 l 257
512 512 m 257
 512 640 l 257
 640 640 l 257
 640 512 l 257
 512 512 l 257
0 640 m 257
 0 768 l 257
 128 768 l 257
 128 640 l 257
 0 640 l 257
512 640 m 257
 512 768 l 257
 640 768 l 257
 640 640 l 257
 512 640 l 257
0 768 m 257
 0 896 l 257
 128 896 l 257
 128 768 l 257
 0 768 l 257
512 768 m 257
 512 896 l 257
 640 896 l 257
 640 768 l 257
 512 768 l 257
EndSplineSet
Fore
SplineSet
0 293.490332008 m 1
 0 896 l 1
 128 896 l 1
 128 346.509667992 l 1
 320 154.509667992 l 1
 512 346.509667992 l 1
 512 896 l 1
 640 896 l 1
 640 293.490332008 l 1
 320 -26.5096679919 l 1
 0 293.490332008 l 1
EndSplineSet
EndChar

StartChar: W
Encoding: 55 87 55
GlifName: W_
Width: 768
VWidth: 0
Flags: HW
LayerCount: 2
Back
SplineSet
0 0 m 257
 0 128 l 257
 128 128 l 257
 128 0 l 257
 0 0 l 257
512 0 m 257
 512 128 l 257
 640 128 l 257
 640 0 l 257
 512 0 l 257
0 128 m 257
 0 256 l 257
 128 256 l 257
 128 128 l 257
 0 128 l 257
128 128 m 257
 128 256 l 257
 256 256 l 257
 256 128 l 257
 128 128 l 257
384 128 m 257
 384 256 l 257
 512 256 l 257
 512 128 l 257
 384 128 l 257
512 128 m 257
 512 256 l 257
 640 256 l 257
 640 128 l 257
 512 128 l 257
0 256 m 257
 0 384 l 257
 128 384 l 257
 128 256 l 257
 0 256 l 257
256 256 m 257
 256 384 l 257
 384 384 l 257
 384 256 l 257
 256 256 l 257
512 256 m 257
 512 384 l 257
 640 384 l 257
 640 256 l 257
 512 256 l 257
0 384 m 257
 0 512 l 257
 128 512 l 257
 128 384 l 257
 0 384 l 257
512 384 m 257
 512 512 l 257
 640 512 l 257
 640 384 l 257
 512 384 l 257
0 512 m 257
 0 640 l 257
 128 640 l 257
 128 512 l 257
 0 512 l 257
512 512 m 257
 512 640 l 257
 640 640 l 257
 640 512 l 257
 512 512 l 257
0 640 m 257
 0 768 l 257
 128 768 l 257
 128 640 l 257
 0 640 l 257
512 640 m 257
 512 768 l 257
 640 768 l 257
 640 640 l 257
 512 640 l 257
0 768 m 257
 0 896 l 257
 128 896 l 257
 128 768 l 257
 0 768 l 257
512 768 m 257
 512 896 l 257
 640 896 l 257
 640 768 l 257
 512 768 l 257
EndSplineSet
Fore
SplineSet
0 0 m 1
 0 896 l 1
 128 896 l 1
 128 218.509667992 l 1
 320 410.509667992 l 1
 512 218.509667992 l 1
 512 896 l 1
 640 896 l 1
 640 0 l 1
 549.490332008 0 l 1
 320 229.490332008 l 1
 90.5096679919 0 l 1
 0 0 l 1
EndSplineSet
EndChar

StartChar: X
Encoding: 56 88 56
GlifName: X_
Width: 768
VWidth: 0
Flags: HW
LayerCount: 2
Back
SplineSet
0 0 m 257
 0 128 l 257
 128 128 l 257
 128 0 l 257
 0 0 l 257
512 0 m 257
 512 128 l 257
 640 128 l 257
 640 0 l 257
 512 0 l 257
0 128 m 257
 0 256 l 257
 128 256 l 257
 128 128 l 257
 0 128 l 257
512 128 m 257
 512 256 l 257
 640 256 l 257
 640 128 l 257
 512 128 l 257
128 256 m 257
 128 384 l 257
 256 384 l 257
 256 256 l 257
 128 256 l 257
384 256 m 257
 384 384 l 257
 512 384 l 257
 512 256 l 257
 384 256 l 257
256 384 m 257
 256 512 l 257
 384 512 l 257
 384 384 l 257
 256 384 l 257
128 512 m 257
 128 640 l 257
 256 640 l 257
 256 512 l 257
 128 512 l 257
384 512 m 257
 384 640 l 257
 512 640 l 257
 512 512 l 257
 384 512 l 257
0 640 m 257
 0 768 l 257
 128 768 l 257
 128 640 l 257
 0 640 l 257
512 640 m 257
 512 768 l 257
 640 768 l 257
 640 640 l 257
 512 640 l 257
0 768 m 257
 0 896 l 257
 128 896 l 257
 128 768 l 257
 0 768 l 257
512 768 m 257
 512 896 l 257
 640 896 l 257
 640 768 l 257
 512 768 l 257
EndSplineSet
Fore
SplineSet
0 0 m 1
 0 218.509667992 l 1
 229.490332008 448 l 1
 0 677.490332008 l 1
 0 896 l 1
 128 896 l 1
 128 730.509667992 l 1
 320 538.509667992 l 1
 512 730.509667992 l 1
 512 896 l 1
 640 896 l 1
 640 677.490332008 l 1
 410.509667992 448 l 1
 640 218.509667992 l 1
 640 0 l 1
 512 0 l 1
 512 165.490332008 l 1
 320 357.490332008 l 1
 128 165.490332008 l 1
 128 0 l 1
 0 0 l 1
EndSplineSet
EndChar

StartChar: Y
Encoding: 57 89 57
GlifName: Y_
Width: 768
VWidth: 0
Flags: HW
LayerCount: 2
Back
SplineSet
256 0 m 257
 256 128 l 257
 384 128 l 257
 384 0 l 257
 256 0 l 257
256 128 m 257
 256 256 l 257
 384 256 l 257
 384 128 l 257
 256 128 l 257
256 256 m 257
 256 384 l 257
 384 384 l 257
 384 256 l 257
 256 256 l 257
256 384 m 257
 256 512 l 257
 384 512 l 257
 384 384 l 257
 256 384 l 257
128 512 m 257
 128 640 l 257
 256 640 l 257
 256 512 l 257
 128 512 l 257
384 512 m 257
 384 640 l 257
 512 640 l 257
 512 512 l 257
 384 512 l 257
0 640 m 257
 0 768 l 257
 128 768 l 257
 128 640 l 257
 0 640 l 257
512 640 m 257
 512 768 l 257
 640 768 l 257
 640 640 l 257
 512 640 l 257
0 768 m 257
 0 896 l 257
 128 896 l 257
 128 768 l 257
 0 768 l 257
512 768 m 257
 512 896 l 257
 640 896 l 257
 640 768 l 257
 512 768 l 257
EndSplineSet
Fore
SplineSet
0 677.490332008 m 1
 0 896 l 1
 128 896 l 1
 128 730.509667992 l 1
 320 538.509667992 l 1
 512 730.509667992 l 1
 512 896 l 1
 640 896 l 1
 640 677.490332008 l 1
 384 421.490332008 l 1
 384 0 l 1
 256 0 l 1
 256 421.490332008 l 1
 0 677.490332008 l 1
EndSplineSet
EndChar

StartChar: Z
Encoding: 58 90 58
GlifName: Z_
Width: 768
VWidth: 0
Flags: HW
LayerCount: 2
Back
SplineSet
0 0 m 257
 0 128 l 257
 128 128 l 257
 128 0 l 257
 0 0 l 257
128 0 m 257
 128 128 l 257
 256 128 l 257
 256 0 l 257
 128 0 l 257
256 0 m 257
 256 128 l 257
 384 128 l 257
 384 0 l 257
 256 0 l 257
384 0 m 257
 384 128 l 257
 512 128 l 257
 512 0 l 257
 384 0 l 257
512 0 m 257
 512 128 l 257
 640 128 l 257
 640 0 l 257
 512 0 l 257
0 128 m 257
 0 256 l 257
 128 256 l 257
 128 128 l 257
 0 128 l 257
128 256 m 257
 128 384 l 257
 256 384 l 257
 256 256 l 257
 128 256 l 257
256 384 m 257
 256 512 l 257
 384 512 l 257
 384 384 l 257
 256 384 l 257
384 512 m 257
 384 640 l 257
 512 640 l 257
 512 512 l 257
 384 512 l 257
512 640 m 257
 512 768 l 257
 640 768 l 257
 640 640 l 257
 512 640 l 257
0 768 m 257
 0 896 l 257
 128 896 l 257
 128 768 l 257
 0 768 l 257
128 768 m 257
 128 896 l 257
 256 896 l 257
 256 768 l 257
 128 768 l 257
256 768 m 257
 256 896 l 257
 384 896 l 257
 384 768 l 257
 256 768 l 257
384 768 m 257
 384 896 l 257
 512 896 l 257
 512 768 l 257
 384 768 l 257
512 768 m 257
 512 896 l 257
 640 896 l 257
 640 768 l 257
 512 768 l 257
EndSplineSet
Fore
SplineSet
0 0 m 1
 0 218.509667992 l 1
 512 730.509667992 l 1
 512 768 l 1
 0 768 l 1
 0 896 l 1
 640 896 l 1
 640 677.490332008 l 1
 128 165.490332008 l 1
 128 128 l 1
 640 128 l 1
 640 0 l 1
 0 0 l 1
EndSplineSet
EndChar

StartChar: bracketleft
Encoding: 59 91 59
GlifName: bracketleft
Width: 768
VWidth: 0
Flags: HW
LayerCount: 2
Back
SplineSet
128 -256 m 257
 128 -128 l 257
 256 -128 l 257
 256 -256 l 257
 128 -256 l 257
256 -256 m 257
 256 -128 l 257
 384 -128 l 257
 384 -256 l 257
 256 -256 l 257
384 -256 m 257
 384 -128 l 257
 512 -128 l 257
 512 -256 l 257
 384 -256 l 257
128 -128 m 257
 128 0 l 257
 256 0 l 257
 256 -128 l 257
 128 -128 l 257
128 0 m 257
 128 128 l 257
 256 128 l 257
 256 0 l 257
 128 0 l 257
128 128 m 257
 128 256 l 257
 256 256 l 257
 256 128 l 257
 128 128 l 257
128 256 m 257
 128 384 l 257
 256 384 l 257
 256 256 l 257
 128 256 l 257
128 384 m 257
 128 512 l 257
 256 512 l 257
 256 384 l 257
 128 384 l 257
128 512 m 257
 128 640 l 257
 256 640 l 257
 256 512 l 257
 128 512 l 257
128 640 m 257
 128 768 l 257
 256 768 l 257
 256 640 l 257
 128 640 l 257
128 768 m 257
 128 896 l 257
 256 896 l 257
 256 768 l 257
 128 768 l 257
256 768 m 257
 256 896 l 257
 384 896 l 257
 384 768 l 257
 256 768 l 257
384 768 m 257
 384 896 l 257
 512 896 l 257
 512 768 l 257
 384 768 l 257
EndSplineSet
Fore
SplineSet
128 -256 m 1
 128 896 l 1
 512 896 l 1
 512 768 l 1
 256 768 l 1
 256 -128 l 1
 512 -128 l 1
 512 -256 l 1
 128 -256 l 1
EndSplineSet
EndChar

StartChar: backslash
Encoding: 60 92 60
GlifName: backslash
Width: 768
VWidth: 0
Flags: HW
LayerCount: 2
Back
SplineSet
512 128 m 257
 512 256 l 257
 640 256 l 257
 640 128 l 257
 512 128 l 257
384 256 m 257
 384 384 l 257
 512 384 l 257
 512 256 l 257
 384 256 l 257
256 384 m 257
 256 512 l 257
 384 512 l 257
 384 384 l 257
 256 384 l 257
128 512 m 257
 128 640 l 257
 256 640 l 257
 256 512 l 257
 128 512 l 257
0 640 m 257
 0 768 l 257
 128 768 l 257
 128 640 l 257
 0 640 l 257
EndSplineSet
Fore
SplineSet
0 677.490332008 m 1
 90.5096679919 768 l 1
 640 218.509667992 l 1
 549.490332008 128 l 1
 0 677.490332008 l 1
EndSplineSet
EndChar

StartChar: bracketright
Encoding: 61 93 61
GlifName: bracketright
Width: 768
VWidth: 0
Flags: HW
LayerCount: 2
Back
SplineSet
128 -256 m 257
 128 -128 l 257
 256 -128 l 257
 256 -256 l 257
 128 -256 l 257
256 -256 m 257
 256 -128 l 257
 384 -128 l 257
 384 -256 l 257
 256 -256 l 257
384 -256 m 257
 384 -128 l 257
 512 -128 l 257
 512 -256 l 257
 384 -256 l 257
384 -128 m 257
 384 0 l 257
 512 0 l 257
 512 -128 l 257
 384 -128 l 257
384 0 m 257
 384 128 l 257
 512 128 l 257
 512 0 l 257
 384 0 l 257
384 128 m 257
 384 256 l 257
 512 256 l 257
 512 128 l 257
 384 128 l 257
384 256 m 257
 384 384 l 257
 512 384 l 257
 512 256 l 257
 384 256 l 257
384 384 m 257
 384 512 l 257
 512 512 l 257
 512 384 l 257
 384 384 l 257
384 512 m 257
 384 640 l 257
 512 640 l 257
 512 512 l 257
 384 512 l 257
384 640 m 257
 384 768 l 257
 512 768 l 257
 512 640 l 257
 384 640 l 257
128 768 m 257
 128 896 l 257
 256 896 l 257
 256 768 l 257
 128 768 l 257
256 768 m 257
 256 896 l 257
 384 896 l 257
 384 768 l 257
 256 768 l 257
384 768 m 257
 384 896 l 257
 512 896 l 257
 512 768 l 257
 384 768 l 257
EndSplineSet
Fore
SplineSet
128 -128 m 1
 384 -128 l 1
 384 768 l 1
 128 768 l 1
 128 896 l 1
 512 896 l 1
 512 -256 l 1
 128 -256 l 1
 128 -128 l 1
EndSplineSet
EndChar

StartChar: asciicircum
Encoding: 62 94 62
GlifName: asciicircum
Width: 768
VWidth: 0
Flags: HW
LayerCount: 2
Back
SplineSet
128 640 m 257
 128 768 l 257
 256 768 l 257
 256 640 l 257
 128 640 l 257
384 640 m 257
 384 768 l 257
 512 768 l 257
 512 640 l 257
 384 640 l 257
256 768 m 257
 256 896 l 257
 384 896 l 257
 384 768 l 257
 256 768 l 257
EndSplineSet
Fore
SplineSet
128 730.509667992 m 1
 320 922.509667992 l 1
 512 730.509667992 l 1
 421.490332008 640 l 1
 320 741.490332008 l 1
 218.509667992 640 l 1
 128 730.509667992 l 1
EndSplineSet
EndChar

StartChar: underscore
Encoding: 63 95 63
GlifName: underscore
Width: 768
VWidth: 0
Flags: HW
LayerCount: 2
Back
SplineSet
0 0 m 257
 0 128 l 257
 128 128 l 257
 128 0 l 257
 0 0 l 257
128 0 m 257
 128 128 l 257
 256 128 l 257
 256 0 l 257
 128 0 l 257
256 0 m 257
 256 128 l 257
 384 128 l 257
 384 0 l 257
 256 0 l 257
384 0 m 257
 384 128 l 257
 512 128 l 257
 512 0 l 257
 384 0 l 257
512 0 m 257
 512 128 l 257
 640 128 l 257
 640 0 l 257
 512 0 l 257
EndSplineSet
Fore
SplineSet
0 0 m 1
 0 128 l 1
 640 128 l 1
 640 0 l 1
 0 0 l 1
EndSplineSet
EndChar

StartChar: grave
Encoding: 64 96 64
GlifName: grave
Width: 768
VWidth: 0
Flags: HW
LayerCount: 2
Back
SplineSet
384 512 m 257
 384 640 l 257
 512 640 l 257
 512 512 l 257
 384 512 l 257
256 640 m 257
 256 768 l 257
 384 768 l 257
 384 640 l 257
 256 640 l 257
128 768 m 257
 128 896 l 257
 256 896 l 257
 256 768 l 257
 128 768 l 257
EndSplineSet
Fore
SplineSet
128 805.490332008 m 1
 218.509667992 896 l 1
 512 602.509667992 l 1
 421.490332008 512 l 1
 128 805.490332008 l 1
EndSplineSet
EndChar

StartChar: a
Encoding: 65 97 65
GlifName: a
Width: 768
VWidth: 0
Flags: HW
LayerCount: 2
Back
SplineSet
128 0 m 257
 128 128 l 257
 256 128 l 257
 256 0 l 257
 128 0 l 257
256 0 m 257
 256 128 l 257
 384 128 l 257
 384 0 l 257
 256 0 l 257
384 0 m 257
 384 128 l 257
 512 128 l 257
 512 0 l 257
 384 0 l 257
512 0 m 257
 512 128 l 257
 640 128 l 257
 640 0 l 257
 512 0 l 257
0 128 m 257
 0 256 l 257
 128 256 l 257
 128 128 l 257
 0 128 l 257
512 128 m 257
 512 256 l 257
 640 256 l 257
 640 128 l 257
 512 128 l 257
128 256 m 257
 128 384 l 257
 256 384 l 257
 256 256 l 257
 128 256 l 257
256 256 m 257
 256 384 l 257
 384 384 l 257
 384 256 l 257
 256 256 l 257
384 256 m 257
 384 384 l 257
 512 384 l 257
 512 256 l 257
 384 256 l 257
512 256 m 257
 512 384 l 257
 640 384 l 257
 640 256 l 257
 512 256 l 257
512 384 m 257
 512 512 l 257
 640 512 l 257
 640 384 l 257
 512 384 l 257
128 512 m 257
 128 640 l 257
 256 640 l 257
 256 512 l 257
 128 512 l 257
256 512 m 257
 256 640 l 257
 384 640 l 257
 384 512 l 257
 256 512 l 257
384 512 m 257
 384 640 l 257
 512 640 l 257
 512 512 l 257
 384 512 l 257
EndSplineSet
Fore
SplineSet
0 165.490332008 m 1
 0 218.509667992 l 1
 165.490332008 384 l 1
 512 384 l 1
 512 421.490332008 l 1
 421.490332008 512 l 1
 128 512 l 1
 128 640 l 1
 474.509667992 640 l 1
 640 474.509667992 l 1
 640 0 l 1
 165.490332008 0 l 1
 0 165.490332008 l 1
154.509667992 192 m 1
 218.509667992 128 l 1
 512 128 l 1
 512 256 l 1
 218.509667992 256 l 1
 154.509667992 192 l 1
EndSplineSet
EndChar

StartChar: b
Encoding: 66 98 66
GlifName: b
Width: 768
VWidth: 0
Flags: HW
LayerCount: 2
Back
SplineSet
0 0 m 257
 0 128 l 257
 128 128 l 257
 128 0 l 257
 0 0 l 257
128 0 m 257
 128 128 l 257
 256 128 l 257
 256 0 l 257
 128 0 l 257
256 0 m 257
 256 128 l 257
 384 128 l 257
 384 0 l 257
 256 0 l 257
384 0 m 257
 384 128 l 257
 512 128 l 257
 512 0 l 257
 384 0 l 257
0 128 m 257
 0 256 l 257
 128 256 l 257
 128 128 l 257
 0 128 l 257
512 128 m 257
 512 256 l 257
 640 256 l 257
 640 128 l 257
 512 128 l 257
0 256 m 257
 0 384 l 257
 128 384 l 257
 128 256 l 257
 0 256 l 257
512 256 m 257
 512 384 l 257
 640 384 l 257
 640 256 l 257
 512 256 l 257
0 384 m 257
 0 512 l 257
 128 512 l 257
 128 384 l 257
 0 384 l 257
512 384 m 257
 512 512 l 257
 640 512 l 257
 640 384 l 257
 512 384 l 257
0 512 m 257
 0 640 l 257
 128 640 l 257
 128 512 l 257
 0 512 l 257
128 512 m 257
 128 640 l 257
 256 640 l 257
 256 512 l 257
 128 512 l 257
256 512 m 257
 256 640 l 257
 384 640 l 257
 384 512 l 257
 256 512 l 257
384 512 m 257
 384 640 l 257
 512 640 l 257
 512 512 l 257
 384 512 l 257
0 640 m 257
 0 768 l 257
 128 768 l 257
 128 640 l 257
 0 640 l 257
0 768 m 257
 0 896 l 257
 128 896 l 257
 128 768 l 257
 0 768 l 257
EndSplineSet
Fore
SplineSet
0 0 m 1
 0 896 l 1
 128 896 l 1
 128 640 l 1
 474.509667992 640 l 1
 640 474.509667992 l 1
 640 165.490332008 l 1
 474.509667992 0 l 1
 0 0 l 1
128 128 m 1
 421.490332008 128 l 1
 512 218.509667992 l 1
 512 421.490332008 l 1
 421.490332008 512 l 1
 128 512 l 1
 128 128 l 1
EndSplineSet
EndChar

StartChar: c
Encoding: 67 99 67
GlifName: c
Width: 768
VWidth: 0
Flags: HW
LayerCount: 2
Back
SplineSet
128 0 m 257
 128 128 l 257
 256 128 l 257
 256 0 l 257
 128 0 l 257
256 0 m 257
 256 128 l 257
 384 128 l 257
 384 0 l 257
 256 0 l 257
384 0 m 257
 384 128 l 257
 512 128 l 257
 512 0 l 257
 384 0 l 257
0 128 m 257
 0 256 l 257
 128 256 l 257
 128 128 l 257
 0 128 l 257
512 128 m 257
 512 256 l 257
 640 256 l 257
 640 128 l 257
 512 128 l 257
0 256 m 257
 0 384 l 257
 128 384 l 257
 128 256 l 257
 0 256 l 257
0 384 m 257
 0 512 l 257
 128 512 l 257
 128 384 l 257
 0 384 l 257
512 384 m 257
 512 512 l 257
 640 512 l 257
 640 384 l 257
 512 384 l 257
128 512 m 257
 128 640 l 257
 256 640 l 257
 256 512 l 257
 128 512 l 257
256 512 m 257
 256 640 l 257
 384 640 l 257
 384 512 l 257
 256 512 l 257
384 512 m 257
 384 640 l 257
 512 640 l 257
 512 512 l 257
 384 512 l 257
EndSplineSet
Fore
SplineSet
0 165.490332008 m 1
 0 474.509667992 l 1
 165.490332008 640 l 1
 474.509667992 640 l 1
 640 474.509667992 l 1
 549.490332008 384 l 1
 421.490332008 512 l 1
 218.509667992 512 l 1
 128 421.490332008 l 1
 128 218.509667992 l 1
 218.509667992 128 l 1
 421.490332008 128 l 1
 549.490332008 256 l 1
 640 165.490332008 l 1
 474.509667992 0 l 1
 165.490332008 0 l 1
 0 165.490332008 l 1
EndSplineSet
EndChar

StartChar: d
Encoding: 68 100 68
GlifName: d
Width: 768
VWidth: 0
Flags: HW
LayerCount: 2
Back
SplineSet
128 0 m 257
 128 128 l 257
 256 128 l 257
 256 0 l 257
 128 0 l 257
256 0 m 257
 256 128 l 257
 384 128 l 257
 384 0 l 257
 256 0 l 257
384 0 m 257
 384 128 l 257
 512 128 l 257
 512 0 l 257
 384 0 l 257
512 0 m 257
 512 128 l 257
 640 128 l 257
 640 0 l 257
 512 0 l 257
0 128 m 257
 0 256 l 257
 128 256 l 257
 128 128 l 257
 0 128 l 257
512 128 m 257
 512 256 l 257
 640 256 l 257
 640 128 l 257
 512 128 l 257
0 256 m 257
 0 384 l 257
 128 384 l 257
 128 256 l 257
 0 256 l 257
512 256 m 257
 512 384 l 257
 640 384 l 257
 640 256 l 257
 512 256 l 257
0 384 m 257
 0 512 l 257
 128 512 l 257
 128 384 l 257
 0 384 l 257
512 384 m 257
 512 512 l 257
 640 512 l 257
 640 384 l 257
 512 384 l 257
128 512 m 257
 128 640 l 257
 256 640 l 257
 256 512 l 257
 128 512 l 257
256 512 m 257
 256 640 l 257
 384 640 l 257
 384 512 l 257
 256 512 l 257
384 512 m 257
 384 640 l 257
 512 640 l 257
 512 512 l 257
 384 512 l 257
512 512 m 257
 512 640 l 257
 640 640 l 257
 640 512 l 257
 512 512 l 257
512 640 m 257
 512 768 l 257
 640 768 l 257
 640 640 l 257
 512 640 l 257
512 768 m 257
 512 896 l 257
 640 896 l 257
 640 768 l 257
 512 768 l 257
EndSplineSet
Fore
SplineSet
0 165.490332008 m 1
 0 474.509667992 l 1
 165.490332008 640 l 1
 512 640 l 1
 512 896 l 1
 640 896 l 1
 640 0 l 1
 165.490332008 0 l 1
 0 165.490332008 l 1
128 218.509667992 m 1
 218.509667992 128 l 1
 512 128 l 1
 512 512 l 1
 218.509667992 512 l 1
 128 421.490332008 l 1
 128 218.509667992 l 1
EndSplineSet
EndChar

StartChar: e
Encoding: 69 101 69
GlifName: e
Width: 768
VWidth: 0
Flags: HW
LayerCount: 2
Back
SplineSet
128 0 m 257
 128 128 l 257
 256 128 l 257
 256 0 l 257
 128 0 l 257
256 0 m 257
 256 128 l 257
 384 128 l 257
 384 0 l 257
 256 0 l 257
384 0 m 257
 384 128 l 257
 512 128 l 257
 512 0 l 257
 384 0 l 257
512 0 m 257
 512 128 l 257
 640 128 l 257
 640 0 l 257
 512 0 l 257
0 128 m 257
 0 256 l 257
 128 256 l 257
 128 128 l 257
 0 128 l 257
0 256 m 257
 0 384 l 257
 128 384 l 257
 128 256 l 257
 0 256 l 257
128 256 m 257
 128 384 l 257
 256 384 l 257
 256 256 l 257
 128 256 l 257
256 256 m 257
 256 384 l 257
 384 384 l 257
 384 256 l 257
 256 256 l 257
384 256 m 257
 384 384 l 257
 512 384 l 257
 512 256 l 257
 384 256 l 257
512 256 m 257
 512 384 l 257
 640 384 l 257
 640 256 l 257
 512 256 l 257
0 384 m 257
 0 512 l 257
 128 512 l 257
 128 384 l 257
 0 384 l 257
512 384 m 257
 512 512 l 257
 640 512 l 257
 640 384 l 257
 512 384 l 257
128 512 m 257
 128 640 l 257
 256 640 l 257
 256 512 l 257
 128 512 l 257
256 512 m 257
 256 640 l 257
 384 640 l 257
 384 512 l 257
 256 512 l 257
384 512 m 257
 384 640 l 257
 512 640 l 257
 512 512 l 257
 384 512 l 257
EndSplineSet
Fore
SplineSet
0 165.490332008 m 1
 0 474.509667992 l 1
 165.490332008 640 l 1
 474.509667992 640 l 1
 640 474.509667992 l 1
 640 256 l 1
 128 256 l 1
 128 218.509667992 l 1
 218.509667992 128 l 1
 640 128 l 1
 640 0 l 1
 165.490332008 0 l 1
 0 165.490332008 l 1
128 384 m 1
 512 384 l 1
 512 421.490332008 l 1
 421.490332008 512 l 1
 218.509667992 512 l 1
 128 421.490332008 l 1
 128 384 l 1
EndSplineSet
EndChar

StartChar: f
Encoding: 70 102 70
GlifName: f
Width: 768
VWidth: 0
Flags: HW
LayerCount: 2
Back
SplineSet
128 0 m 257
 128 128 l 257
 256 128 l 257
 256 0 l 257
 128 0 l 257
128 128 m 257
 128 256 l 257
 256 256 l 257
 256 128 l 257
 128 128 l 257
128 256 m 257
 128 384 l 257
 256 384 l 257
 256 256 l 257
 128 256 l 257
128 384 m 257
 128 512 l 257
 256 512 l 257
 256 384 l 257
 128 384 l 257
0 512 m 257
 0 640 l 257
 128 640 l 257
 128 512 l 257
 0 512 l 257
128 512 m 257
 128 640 l 257
 256 640 l 257
 256 512 l 257
 128 512 l 257
256 512 m 257
 256 640 l 257
 384 640 l 257
 384 512 l 257
 256 512 l 257
128 640 m 257
 128 768 l 257
 256 768 l 257
 256 640 l 257
 128 640 l 257
512 640 m 257
 512 768 l 257
 640 768 l 257
 640 640 l 257
 512 640 l 257
256 768 m 257
 256 896 l 257
 384 896 l 257
 384 768 l 257
 256 768 l 257
384 768 m 257
 384 896 l 257
 512 896 l 257
 512 768 l 257
 384 768 l 257
EndSplineSet
Fore
SplineSet
0 512 m 1
 0 640 l 1
 128 640 l 1
 128 730.509667992 l 1
 293.490332008 896 l 1
 474.509667992 896 l 1
 640 730.509667992 l 1
 549.490332008 640 l 1
 421.490332008 768 l 1
 346.509667992 768 l 1
 256 677.490332008 l 1
 256 640 l 1
 384 640 l 1
 384 512 l 1
 256 512 l 1
 256 0 l 1
 128 0 l 1
 128 512 l 1
 0 512 l 1
EndSplineSet
EndChar

StartChar: g
Encoding: 71 103 71
GlifName: g
Width: 768
VWidth: 0
Flags: HW
LayerCount: 2
Back
SplineSet
128 -256 m 257
 128 -128 l 257
 256 -128 l 257
 256 -256 l 257
 128 -256 l 257
256 -256 m 257
 256 -128 l 257
 384 -128 l 257
 384 -256 l 257
 256 -256 l 257
384 -256 m 257
 384 -128 l 257
 512 -128 l 257
 512 -256 l 257
 384 -256 l 257
512 -128 m 257
 512 0 l 257
 640 0 l 257
 640 -128 l 257
 512 -128 l 257
128 0 m 257
 128 128 l 257
 256 128 l 257
 256 0 l 257
 128 0 l 257
256 0 m 257
 256 128 l 257
 384 128 l 257
 384 0 l 257
 256 0 l 257
384 0 m 257
 384 128 l 257
 512 128 l 257
 512 0 l 257
 384 0 l 257
512 0 m 257
 512 128 l 257
 640 128 l 257
 640 0 l 257
 512 0 l 257
0 128 m 257
 0 256 l 257
 128 256 l 257
 128 128 l 257
 0 128 l 257
512 128 m 257
 512 256 l 257
 640 256 l 257
 640 128 l 257
 512 128 l 257
0 256 m 257
 0 384 l 257
 128 384 l 257
 128 256 l 257
 0 256 l 257
512 256 m 257
 512 384 l 257
 640 384 l 257
 640 256 l 257
 512 256 l 257
0 384 m 257
 0 512 l 257
 128 512 l 257
 128 384 l 257
 0 384 l 257
512 384 m 257
 512 512 l 257
 640 512 l 257
 640 384 l 257
 512 384 l 257
128 512 m 257
 128 640 l 257
 256 640 l 257
 256 512 l 257
 128 512 l 257
256 512 m 257
 256 640 l 257
 384 640 l 257
 384 512 l 257
 256 512 l 257
384 512 m 257
 384 640 l 257
 512 640 l 257
 512 512 l 257
 384 512 l 257
EndSplineSet
Fore
SplineSet
0 165.490332008 m 1
 0 474.509667992 l 1
 165.490332008 640 l 1
 474.509667992 640 l 1
 640 474.509667992 l 1
 640 -90.5096679919 l 1
 474.509667992 -256 l 1
 128 -256 l 1
 128 -128 l 1
 421.490332008 -128 l 1
 512 -37.4903320081 l 1
 512 0 l 1
 165.490332008 0 l 1
 0 165.490332008 l 1
128 218.509667992 m 1
 218.509667992 128 l 1
 512 128 l 1
 512 421.490332008 l 1
 421.490332008 512 l 1
 218.509667992 512 l 1
 128 421.490332008 l 1
 128 218.509667992 l 1
EndSplineSet
EndChar

StartChar: h
Encoding: 72 104 72
GlifName: h
Width: 768
VWidth: 0
Flags: HW
LayerCount: 2
Back
SplineSet
0 0 m 257
 0 128 l 257
 128 128 l 257
 128 0 l 257
 0 0 l 257
512 0 m 257
 512 128 l 257
 640 128 l 257
 640 0 l 257
 512 0 l 257
0 128 m 257
 0 256 l 257
 128 256 l 257
 128 128 l 257
 0 128 l 257
512 128 m 257
 512 256 l 257
 640 256 l 257
 640 128 l 257
 512 128 l 257
0 256 m 257
 0 384 l 257
 128 384 l 257
 128 256 l 257
 0 256 l 257
512 256 m 257
 512 384 l 257
 640 384 l 257
 640 256 l 257
 512 256 l 257
0 384 m 257
 0 512 l 257
 128 512 l 257
 128 384 l 257
 0 384 l 257
512 384 m 257
 512 512 l 257
 640 512 l 257
 640 384 l 257
 512 384 l 257
0 512 m 257
 0 640 l 257
 128 640 l 257
 128 512 l 257
 0 512 l 257
128 512 m 257
 128 640 l 257
 256 640 l 257
 256 512 l 257
 128 512 l 257
256 512 m 257
 256 640 l 257
 384 640 l 257
 384 512 l 257
 256 512 l 257
384 512 m 257
 384 640 l 257
 512 640 l 257
 512 512 l 257
 384 512 l 257
0 640 m 257
 0 768 l 257
 128 768 l 257
 128 640 l 257
 0 640 l 257
0 768 m 257
 0 896 l 257
 128 896 l 257
 128 768 l 257
 0 768 l 257
EndSplineSet
Fore
SplineSet
0 0 m 1
 0 896 l 1
 128 896 l 1
 128 640 l 1
 474.509667992 640 l 1
 640 474.509667992 l 1
 640 0 l 1
 512 0 l 1
 512 421.490332008 l 1
 421.490332008 512 l 1
 128 512 l 1
 128 0 l 1
 0 0 l 1
EndSplineSet
EndChar

StartChar: i
Encoding: 73 105 73
GlifName: i
Width: 768
VWidth: 0
Flags: HW
LayerCount: 2
Back
SplineSet
0 0 m 257
 0 128 l 257
 128 128 l 257
 128 0 l 257
 0 0 l 257
128 0 m 257
 128 128 l 257
 256 128 l 257
 256 0 l 257
 128 0 l 257
256 0 m 257
 256 128 l 257
 384 128 l 257
 384 0 l 257
 256 0 l 257
384 0 m 257
 384 128 l 257
 512 128 l 257
 512 0 l 257
 384 0 l 257
512 0 m 257
 512 128 l 257
 640 128 l 257
 640 0 l 257
 512 0 l 257
256 128 m 257
 256 256 l 257
 384 256 l 257
 384 128 l 257
 256 128 l 257
256 256 m 257
 256 384 l 257
 384 384 l 257
 384 256 l 257
 256 256 l 257
256 384 m 257
 256 512 l 257
 384 512 l 257
 384 384 l 257
 256 384 l 257
128 512 m 257
 128 640 l 257
 256 640 l 257
 256 512 l 257
 128 512 l 257
256 512 m 257
 256 640 l 257
 384 640 l 257
 384 512 l 257
 256 512 l 257
256 768 m 257
 256 896 l 257
 384 896 l 257
 384 768 l 257
 256 768 l 257
EndSplineSet
Fore
SplineSet
0 0 m 1
 0 128 l 1
 256 128 l 1
 256 512 l 1
 128 512 l 1
 128 640 l 1
 384 640 l 1
 384 128 l 1
 640 128 l 1
 640 0 l 1
 0 0 l 1
256 805.490332008 m 1
 256 858.509667992 l 1
 293.490332008 896 l 1
 346.509667992 896 l 1
 384 858.509667992 l 1
 384 805.490332008 l 1
 346.509667992 768 l 1
 293.490332008 768 l 1
 256 805.490332008 l 1
EndSplineSet
EndChar

StartChar: j
Encoding: 74 106 74
GlifName: j
Width: 768
VWidth: 0
Flags: HW
LayerCount: 2
Back
SplineSet
128 -256 m 257
 128 -128 l 257
 256 -128 l 257
 256 -256 l 257
 128 -256 l 257
256 -256 m 257
 256 -128 l 257
 384 -128 l 257
 384 -256 l 257
 256 -256 l 257
384 -128 m 257
 384 0 l 257
 512 0 l 257
 512 -128 l 257
 384 -128 l 257
384 0 m 257
 384 128 l 257
 512 128 l 257
 512 0 l 257
 384 0 l 257
384 128 m 257
 384 256 l 257
 512 256 l 257
 512 128 l 257
 384 128 l 257
384 256 m 257
 384 384 l 257
 512 384 l 257
 512 256 l 257
 384 256 l 257
384 384 m 257
 384 512 l 257
 512 512 l 257
 512 384 l 257
 384 384 l 257
256 512 m 257
 256 640 l 257
 384 640 l 257
 384 512 l 257
 256 512 l 257
384 512 m 257
 384 640 l 257
 512 640 l 257
 512 512 l 257
 384 512 l 257
384 768 m 257
 384 896 l 257
 512 896 l 257
 512 768 l 257
 384 768 l 257
EndSplineSet
Fore
SplineSet
128 -128 m 1
 293.490332008 -128 l 1
 384 -37.4903320081 l 1
 384 512 l 1
 256 512 l 1
 256 640 l 1
 512 640 l 1
 512 -90.5096679919 l 1
 346.509667992 -256 l 1
 128 -256 l 1
 128 -128 l 1
384 805.490332008 m 1
 384 858.509667992 l 1
 421.490332008 896 l 1
 474.509667992 896 l 1
 512 858.509667992 l 1
 512 805.490332008 l 1
 474.509667992 768 l 1
 421.490332008 768 l 1
 384 805.490332008 l 1
EndSplineSet
EndChar

StartChar: k
Encoding: 75 107 75
GlifName: k
Width: 768
VWidth: 0
Flags: HW
LayerCount: 2
Back
SplineSet
0 0 m 257
 0 128 l 257
 128 128 l 257
 128 0 l 257
 0 0 l 257
384 0 m 257
 384 128 l 257
 512 128 l 257
 512 0 l 257
 384 0 l 257
0 128 m 257
 0 256 l 257
 128 256 l 257
 128 128 l 257
 0 128 l 257
256 128 m 257
 256 256 l 257
 384 256 l 257
 384 128 l 257
 256 128 l 257
0 256 m 257
 0 384 l 257
 128 384 l 257
 128 256 l 257
 0 256 l 257
128 256 m 257
 128 384 l 257
 256 384 l 257
 256 256 l 257
 128 256 l 257
0 384 m 257
 0 512 l 257
 128 512 l 257
 128 384 l 257
 0 384 l 257
256 384 m 257
 256 512 l 257
 384 512 l 257
 384 384 l 257
 256 384 l 257
0 512 m 257
 0 640 l 257
 128 640 l 257
 128 512 l 257
 0 512 l 257
384 512 m 257
 384 640 l 257
 512 640 l 257
 512 512 l 257
 384 512 l 257
0 640 m 257
 0 768 l 257
 128 768 l 257
 128 640 l 257
 0 640 l 257
0 768 m 257
 0 896 l 257
 128 896 l 257
 128 768 l 257
 0 768 l 257
EndSplineSet
Fore
SplineSet
0 0 m 1
 0 896 l 1
 128 896 l 1
 128 346.509667992 l 1
 421.490332008 640 l 1
 512 549.490332008 l 1
 282.509667992 320 l 1
 512 90.5096679919 l 1
 421.490332008 0 l 1
 128 293.490332008 l 1
 128 0 l 1
 0 0 l 1
EndSplineSet
EndChar

StartChar: l
Encoding: 76 108 76
GlifName: l
Width: 768
VWidth: 0
Flags: HW
LayerCount: 2
Back
SplineSet
0 0 m 257
 0 128 l 257
 128 128 l 257
 128 0 l 257
 0 0 l 257
128 0 m 257
 128 128 l 257
 256 128 l 257
 256 0 l 257
 128 0 l 257
256 0 m 257
 256 128 l 257
 384 128 l 257
 384 0 l 257
 256 0 l 257
384 0 m 257
 384 128 l 257
 512 128 l 257
 512 0 l 257
 384 0 l 257
512 0 m 257
 512 128 l 257
 640 128 l 257
 640 0 l 257
 512 0 l 257
256 128 m 257
 256 256 l 257
 384 256 l 257
 384 128 l 257
 256 128 l 257
256 256 m 257
 256 384 l 257
 384 384 l 257
 384 256 l 257
 256 256 l 257
256 384 m 257
 256 512 l 257
 384 512 l 257
 384 384 l 257
 256 384 l 257
256 512 m 257
 256 640 l 257
 384 640 l 257
 384 512 l 257
 256 512 l 257
256 640 m 257
 256 768 l 257
 384 768 l 257
 384 640 l 257
 256 640 l 257
128 768 m 257
 128 896 l 257
 256 896 l 257
 256 768 l 257
 128 768 l 257
256 768 m 257
 256 896 l 257
 384 896 l 257
 384 768 l 257
 256 768 l 257
EndSplineSet
Fore
SplineSet
0 0 m 1
 0 128 l 1
 256 128 l 1
 256 768 l 1
 128 768 l 1
 128 896 l 1
 384 896 l 1
 384 128 l 1
 640 128 l 1
 640 0 l 1
 0 0 l 1
EndSplineSet
EndChar

StartChar: m
Encoding: 77 109 77
GlifName: m
Width: 768
VWidth: 0
Flags: HW
LayerCount: 2
Back
SplineSet
0 0 m 257
 0 128 l 257
 128 128 l 257
 128 0 l 257
 0 0 l 257
256 0 m 257
 256 128 l 257
 384 128 l 257
 384 0 l 257
 256 0 l 257
512 0 m 257
 512 128 l 257
 640 128 l 257
 640 0 l 257
 512 0 l 257
0 128 m 257
 0 256 l 257
 128 256 l 257
 128 128 l 257
 0 128 l 257
256 128 m 257
 256 256 l 257
 384 256 l 257
 384 128 l 257
 256 128 l 257
512 128 m 257
 512 256 l 257
 640 256 l 257
 640 128 l 257
 512 128 l 257
0 256 m 257
 0 384 l 257
 128 384 l 257
 128 256 l 257
 0 256 l 257
256 256 m 257
 256 384 l 257
 384 384 l 257
 384 256 l 257
 256 256 l 257
512 256 m 257
 512 384 l 257
 640 384 l 257
 640 256 l 257
 512 256 l 257
0 384 m 257
 0 512 l 257
 128 512 l 257
 128 384 l 257
 0 384 l 257
256 384 m 257
 256 512 l 257
 384 512 l 257
 384 384 l 257
 256 384 l 257
512 384 m 257
 512 512 l 257
 640 512 l 257
 640 384 l 257
 512 384 l 257
128 512 m 257
 128 640 l 257
 256 640 l 257
 256 512 l 257
 128 512 l 257
384 512 m 257
 384 640 l 257
 512 640 l 257
 512 512 l 257
 384 512 l 257
EndSplineSet
Fore
SplineSet
0 0 m 1
 0 474.509667992 l 1
 165.490332008 640 l 1
 218.509667992 640 l 1
 320 538.509667992 l 1
 421.490332008 640 l 1
 474.509667992 640 l 1
 640 474.509667992 l 1
 640 0 l 1
 512 0 l 1
 512 421.490332008 l 1
 448 485.490332008 l 1
 384 421.490332008 l 1
 384 0 l 1
 256 0 l 1
 256 421.490332008 l 1
 192 485.490332008 l 1
 128 421.490332008 l 1
 128 0 l 1
 0 0 l 1
EndSplineSet
EndChar

StartChar: n
Encoding: 78 110 78
GlifName: n
Width: 768
VWidth: 0
Flags: HW
LayerCount: 2
Back
SplineSet
0 0 m 257
 0 128 l 257
 128 128 l 257
 128 0 l 257
 0 0 l 257
512 0 m 257
 512 128 l 257
 640 128 l 257
 640 0 l 257
 512 0 l 257
0 128 m 257
 0 256 l 257
 128 256 l 257
 128 128 l 257
 0 128 l 257
512 128 m 257
 512 256 l 257
 640 256 l 257
 640 128 l 257
 512 128 l 257
0 256 m 257
 0 384 l 257
 128 384 l 257
 128 256 l 257
 0 256 l 257
512 256 m 257
 512 384 l 257
 640 384 l 257
 640 256 l 257
 512 256 l 257
0 384 m 257
 0 512 l 257
 128 512 l 257
 128 384 l 257
 0 384 l 257
512 384 m 257
 512 512 l 257
 640 512 l 257
 640 384 l 257
 512 384 l 257
0 512 m 257
 0 640 l 257
 128 640 l 257
 128 512 l 257
 0 512 l 257
128 512 m 257
 128 640 l 257
 256 640 l 257
 256 512 l 257
 128 512 l 257
256 512 m 257
 256 640 l 257
 384 640 l 257
 384 512 l 257
 256 512 l 257
384 512 m 257
 384 640 l 257
 512 640 l 257
 512 512 l 257
 384 512 l 257
EndSplineSet
Fore
SplineSet
0 0 m 1
 0 640 l 1
 474.509667992 640 l 1
 640 474.509667992 l 1
 640 0 l 1
 512 0 l 1
 512 421.490332008 l 1
 421.490332008 512 l 1
 128 512 l 1
 128 0 l 1
 0 0 l 1
EndSplineSet
EndChar

StartChar: o
Encoding: 79 111 79
GlifName: o
Width: 768
VWidth: 0
Flags: HW
LayerCount: 2
Back
SplineSet
128 0 m 257
 128 128 l 257
 256 128 l 257
 256 0 l 257
 128 0 l 257
256 0 m 257
 256 128 l 257
 384 128 l 257
 384 0 l 257
 256 0 l 257
384 0 m 257
 384 128 l 257
 512 128 l 257
 512 0 l 257
 384 0 l 257
0 128 m 257
 0 256 l 257
 128 256 l 257
 128 128 l 257
 0 128 l 257
512 128 m 257
 512 256 l 257
 640 256 l 257
 640 128 l 257
 512 128 l 257
0 256 m 257
 0 384 l 257
 128 384 l 257
 128 256 l 257
 0 256 l 257
512 256 m 257
 512 384 l 257
 640 384 l 257
 640 256 l 257
 512 256 l 257
0 384 m 257
 0 512 l 257
 128 512 l 257
 128 384 l 257
 0 384 l 257
512 384 m 257
 512 512 l 257
 640 512 l 257
 640 384 l 257
 512 384 l 257
128 512 m 257
 128 640 l 257
 256 640 l 257
 256 512 l 257
 128 512 l 257
256 512 m 257
 256 640 l 257
 384 640 l 257
 384 512 l 257
 256 512 l 257
384 512 m 257
 384 640 l 257
 512 640 l 257
 512 512 l 257
 384 512 l 257
EndSplineSet
Fore
SplineSet
0 165.490332008 m 1
 0 474.509667992 l 1
 165.490332008 640 l 1
 474.509667992 640 l 1
 640 474.509667992 l 1
 640 165.490332008 l 1
 474.509667992 0 l 1
 165.490332008 0 l 1
 0 165.490332008 l 1
128 218.509667992 m 1
 218.509667992 128 l 1
 421.490332008 128 l 1
 512 218.509667992 l 1
 512 421.490332008 l 1
 421.490332008 512 l 1
 218.509667992 512 l 1
 128 421.490332008 l 1
 128 218.509667992 l 1
EndSplineSet
EndChar

StartChar: p
Encoding: 80 112 80
GlifName: p
Width: 768
VWidth: 0
Flags: HW
LayerCount: 2
Back
SplineSet
0 -256 m 257
 0 -128 l 257
 128 -128 l 257
 128 -256 l 257
 0 -256 l 257
0 -128 m 257
 0 0 l 257
 128 0 l 257
 128 -128 l 257
 0 -128 l 257
0 0 m 257
 0 128 l 257
 128 128 l 257
 128 0 l 257
 0 0 l 257
128 0 m 257
 128 128 l 257
 256 128 l 257
 256 0 l 257
 128 0 l 257
256 0 m 257
 256 128 l 257
 384 128 l 257
 384 0 l 257
 256 0 l 257
384 0 m 257
 384 128 l 257
 512 128 l 257
 512 0 l 257
 384 0 l 257
0 128 m 257
 0 256 l 257
 128 256 l 257
 128 128 l 257
 0 128 l 257
512 128 m 257
 512 256 l 257
 640 256 l 257
 640 128 l 257
 512 128 l 257
0 256 m 257
 0 384 l 257
 128 384 l 257
 128 256 l 257
 0 256 l 257
512 256 m 257
 512 384 l 257
 640 384 l 257
 640 256 l 257
 512 256 l 257
0 384 m 257
 0 512 l 257
 128 512 l 257
 128 384 l 257
 0 384 l 257
512 384 m 257
 512 512 l 257
 640 512 l 257
 640 384 l 257
 512 384 l 257
0 512 m 257
 0 640 l 257
 128 640 l 257
 128 512 l 257
 0 512 l 257
128 512 m 257
 128 640 l 257
 256 640 l 257
 256 512 l 257
 128 512 l 257
256 512 m 257
 256 640 l 257
 384 640 l 257
 384 512 l 257
 256 512 l 257
384 512 m 257
 384 640 l 257
 512 640 l 257
 512 512 l 257
 384 512 l 257
EndSplineSet
Fore
SplineSet
0 -256 m 1
 0 640 l 1
 474.509667992 640 l 1
 640 474.509667992 l 1
 640 165.490332008 l 1
 474.509667992 0 l 1
 128 0 l 1
 128 -256 l 1
 0 -256 l 1
128 128 m 1
 421.490332008 128 l 1
 512 218.509667992 l 1
 512 421.490332008 l 1
 421.490332008 512 l 1
 128 512 l 1
 128 128 l 1
EndSplineSet
EndChar

StartChar: q
Encoding: 81 113 81
GlifName: q
Width: 768
VWidth: 0
Flags: HW
LayerCount: 2
Back
SplineSet
512 -256 m 257
 512 -128 l 257
 640 -128 l 257
 640 -256 l 257
 512 -256 l 257
512 -128 m 257
 512 0 l 257
 640 0 l 257
 640 -128 l 257
 512 -128 l 257
128 0 m 257
 128 128 l 257
 256 128 l 257
 256 0 l 257
 128 0 l 257
256 0 m 257
 256 128 l 257
 384 128 l 257
 384 0 l 257
 256 0 l 257
384 0 m 257
 384 128 l 257
 512 128 l 257
 512 0 l 257
 384 0 l 257
512 0 m 257
 512 128 l 257
 640 128 l 257
 640 0 l 257
 512 0 l 257
0 128 m 257
 0 256 l 257
 128 256 l 257
 128 128 l 257
 0 128 l 257
512 128 m 257
 512 256 l 257
 640 256 l 257
 640 128 l 257
 512 128 l 257
0 256 m 257
 0 384 l 257
 128 384 l 257
 128 256 l 257
 0 256 l 257
512 256 m 257
 512 384 l 257
 640 384 l 257
 640 256 l 257
 512 256 l 257
0 384 m 257
 0 512 l 257
 128 512 l 257
 128 384 l 257
 0 384 l 257
512 384 m 257
 512 512 l 257
 640 512 l 257
 640 384 l 257
 512 384 l 257
128 512 m 257
 128 640 l 257
 256 640 l 257
 256 512 l 257
 128 512 l 257
256 512 m 257
 256 640 l 257
 384 640 l 257
 384 512 l 257
 256 512 l 257
384 512 m 257
 384 640 l 257
 512 640 l 257
 512 512 l 257
 384 512 l 257
512 512 m 257
 512 640 l 257
 640 640 l 257
 640 512 l 257
 512 512 l 257
EndSplineSet
Fore
SplineSet
0 165.490332008 m 1
 0 474.509667992 l 1
 165.490332008 640 l 1
 640 640 l 1
 640 -256 l 1
 512 -256 l 1
 512 0 l 1
 165.490332008 0 l 1
 0 165.490332008 l 1
128 218.509667992 m 1
 218.509667992 128 l 1
 512 128 l 1
 512 512 l 1
 218.509667992 512 l 1
 128 421.490332008 l 1
 128 218.509667992 l 1
EndSplineSet
EndChar

StartChar: r
Encoding: 82 114 82
GlifName: r
Width: 768
VWidth: 0
Flags: HW
LayerCount: 2
Back
SplineSet
0 0 m 257
 0 128 l 257
 128 128 l 257
 128 0 l 257
 0 0 l 257
0 128 m 257
 0 256 l 257
 128 256 l 257
 128 128 l 257
 0 128 l 257
0 256 m 257
 0 384 l 257
 128 384 l 257
 128 256 l 257
 0 256 l 257
0 384 m 257
 0 512 l 257
 128 512 l 257
 128 384 l 257
 0 384 l 257
512 384 m 257
 512 512 l 257
 640 512 l 257
 640 384 l 257
 512 384 l 257
0 512 m 257
 0 640 l 257
 128 640 l 257
 128 512 l 257
 0 512 l 257
128 512 m 257
 128 640 l 257
 256 640 l 257
 256 512 l 257
 128 512 l 257
256 512 m 257
 256 640 l 257
 384 640 l 257
 384 512 l 257
 256 512 l 257
384 512 m 257
 384 640 l 257
 512 640 l 257
 512 512 l 257
 384 512 l 257
EndSplineSet
Fore
SplineSet
0 0 m 1
 0 640 l 1
 474.509667992 640 l 1
 640 474.509667992 l 1
 549.490332008 384 l 1
 421.490332008 512 l 1
 128 512 l 1
 128 0 l 1
 0 0 l 1
EndSplineSet
EndChar

StartChar: s
Encoding: 83 115 83
GlifName: s
Width: 768
VWidth: 0
Flags: HW
LayerCount: 2
Back
SplineSet
0 0 m 257
 0 128 l 257
 128 128 l 257
 128 0 l 257
 0 0 l 257
128 0 m 257
 128 128 l 257
 256 128 l 257
 256 0 l 257
 128 0 l 257
256 0 m 257
 256 128 l 257
 384 128 l 257
 384 0 l 257
 256 0 l 257
384 0 m 257
 384 128 l 257
 512 128 l 257
 512 0 l 257
 384 0 l 257
512 128 m 257
 512 256 l 257
 640 256 l 257
 640 128 l 257
 512 128 l 257
128 256 m 257
 128 384 l 257
 256 384 l 257
 256 256 l 257
 128 256 l 257
256 256 m 257
 256 384 l 257
 384 384 l 257
 384 256 l 257
 256 256 l 257
384 256 m 257
 384 384 l 257
 512 384 l 257
 512 256 l 257
 384 256 l 257
0 384 m 257
 0 512 l 257
 128 512 l 257
 128 384 l 257
 0 384 l 257
128 512 m 257
 128 640 l 257
 256 640 l 257
 256 512 l 257
 128 512 l 257
256 512 m 257
 256 640 l 257
 384 640 l 257
 384 512 l 257
 256 512 l 257
384 512 m 257
 384 640 l 257
 512 640 l 257
 512 512 l 257
 384 512 l 257
EndSplineSet
Fore
SplineSet
0 0 m 1
 0 128 l 1
 421.490332008 128 l 1
 512 218.509667992 l 1
 512 256 l 1
 0 256 l 1
 0 474.509667992 l 1
 165.490332008 640 l 1
 512 640 l 1
 512 512 l 1
 218.509667992 512 l 1
 128 421.490332008 l 1
 128 384 l 1
 640 384 l 1
 640 165.490332008 l 1
 474.509667992 0 l 1
 0 0 l 1
EndSplineSet
EndChar

StartChar: t
Encoding: 84 116 84
GlifName: t
Width: 768
VWidth: 0
Flags: HW
LayerCount: 2
Back
SplineSet
256 0 m 257
 256 128 l 257
 384 128 l 257
 384 0 l 257
 256 0 l 257
256 128 m 257
 256 256 l 257
 384 256 l 257
 384 128 l 257
 256 128 l 257
256 256 m 257
 256 384 l 257
 384 384 l 257
 384 256 l 257
 256 256 l 257
256 384 m 257
 256 512 l 257
 384 512 l 257
 384 384 l 257
 256 384 l 257
0 512 m 257
 0 640 l 257
 128 640 l 257
 128 512 l 257
 0 512 l 257
128 512 m 257
 128 640 l 257
 256 640 l 257
 256 512 l 257
 128 512 l 257
256 512 m 257
 256 640 l 257
 384 640 l 257
 384 512 l 257
 256 512 l 257
384 512 m 257
 384 640 l 257
 512 640 l 257
 512 512 l 257
 384 512 l 257
512 512 m 257
 512 640 l 257
 640 640 l 257
 640 512 l 257
 512 512 l 257
256 640 m 257
 256 768 l 257
 384 768 l 257
 384 640 l 257
 256 640 l 257
256 768 m 257
 256 896 l 257
 384 896 l 257
 384 768 l 257
 256 768 l 257
EndSplineSet
Fore
SplineSet
0 512 m 1
 0 640 l 1
 256 640 l 1
 256 896 l 1
 384 896 l 1
 384 640 l 1
 640 640 l 1
 640 512 l 1
 384 512 l 1
 384 0 l 1
 256 0 l 1
 256 512 l 1
 0 512 l 1
EndSplineSet
EndChar

StartChar: u
Encoding: 85 117 85
GlifName: u
Width: 768
VWidth: 0
Flags: HW
LayerCount: 2
Back
SplineSet
128 0 m 257
 128 128 l 257
 256 128 l 257
 256 0 l 257
 128 0 l 257
256 0 m 257
 256 128 l 257
 384 128 l 257
 384 0 l 257
 256 0 l 257
384 0 m 257
 384 128 l 257
 512 128 l 257
 512 0 l 257
 384 0 l 257
0 128 m 257
 0 256 l 257
 128 256 l 257
 128 128 l 257
 0 128 l 257
512 128 m 257
 512 256 l 257
 640 256 l 257
 640 128 l 257
 512 128 l 257
0 256 m 257
 0 384 l 257
 128 384 l 257
 128 256 l 257
 0 256 l 257
512 256 m 257
 512 384 l 257
 640 384 l 257
 640 256 l 257
 512 256 l 257
0 384 m 257
 0 512 l 257
 128 512 l 257
 128 384 l 257
 0 384 l 257
512 384 m 257
 512 512 l 257
 640 512 l 257
 640 384 l 257
 512 384 l 257
0 512 m 257
 0 640 l 257
 128 640 l 257
 128 512 l 257
 0 512 l 257
512 512 m 257
 512 640 l 257
 640 640 l 257
 640 512 l 257
 512 512 l 257
EndSplineSet
Fore
SplineSet
0 165.490332008 m 1
 0 640 l 1
 128 640 l 1
 128 218.509667992 l 1
 218.509667992 128 l 1
 421.490332008 128 l 1
 512 218.509667992 l 1
 512 640 l 1
 640 640 l 1
 640 165.490332008 l 1
 474.509667992 0 l 1
 165.490332008 0 l 1
 0 165.490332008 l 1
EndSplineSet
EndChar

StartChar: v
Encoding: 86 118 86
GlifName: v
Width: 768
VWidth: 0
Flags: HW
LayerCount: 2
Back
SplineSet
256 0 m 257
 256 128 l 257
 384 128 l 257
 384 0 l 257
 256 0 l 257
128 128 m 257
 128 256 l 257
 256 256 l 257
 256 128 l 257
 128 128 l 257
384 128 m 257
 384 256 l 257
 512 256 l 257
 512 128 l 257
 384 128 l 257
0 256 m 257
 0 384 l 257
 128 384 l 257
 128 256 l 257
 0 256 l 257
512 256 m 257
 512 384 l 257
 640 384 l 257
 640 256 l 257
 512 256 l 257
0 384 m 257
 0 512 l 257
 128 512 l 257
 128 384 l 257
 0 384 l 257
512 384 m 257
 512 512 l 257
 640 512 l 257
 640 384 l 257
 512 384 l 257
0 512 m 257
 0 640 l 257
 128 640 l 257
 128 512 l 257
 0 512 l 257
512 512 m 257
 512 640 l 257
 640 640 l 257
 640 512 l 257
 512 512 l 257
EndSplineSet
Fore
SplineSet
0 293.490332008 m 1
 0 640 l 1
 128 640 l 1
 128 346.509667992 l 1
 320 154.509667992 l 1
 512 346.509667992 l 1
 512 640 l 1
 640 640 l 1
 640 293.490332008 l 1
 320 -26.5096679919 l 1
 0 293.490332008 l 1
EndSplineSet
EndChar

StartChar: w
Encoding: 87 119 87
GlifName: w
Width: 768
VWidth: 0
Flags: HW
LayerCount: 2
Back
SplineSet
128 0 m 257
 128 128 l 257
 256 128 l 257
 256 0 l 257
 128 0 l 257
384 0 m 257
 384 128 l 257
 512 128 l 257
 512 0 l 257
 384 0 l 257
0 128 m 257
 0 256 l 257
 128 256 l 257
 128 128 l 257
 0 128 l 257
256 128 m 257
 256 256 l 257
 384 256 l 257
 384 128 l 257
 256 128 l 257
512 128 m 257
 512 256 l 257
 640 256 l 257
 640 128 l 257
 512 128 l 257
0 256 m 257
 0 384 l 257
 128 384 l 257
 128 256 l 257
 0 256 l 257
256 256 m 257
 256 384 l 257
 384 384 l 257
 384 256 l 257
 256 256 l 257
512 256 m 257
 512 384 l 257
 640 384 l 257
 640 256 l 257
 512 256 l 257
0 384 m 257
 0 512 l 257
 128 512 l 257
 128 384 l 257
 0 384 l 257
256 384 m 257
 256 512 l 257
 384 512 l 257
 384 384 l 257
 256 384 l 257
512 384 m 257
 512 512 l 257
 640 512 l 257
 640 384 l 257
 512 384 l 257
0 512 m 257
 0 640 l 257
 128 640 l 257
 128 512 l 257
 0 512 l 257
256 512 m 257
 256 640 l 257
 384 640 l 257
 384 512 l 257
 256 512 l 257
512 512 m 257
 512 640 l 257
 640 640 l 257
 640 512 l 257
 512 512 l 257
EndSplineSet
Fore
SplineSet
0 165.490332008 m 1
 0 640 l 1
 128 640 l 1
 128 218.509667992 l 1
 192 154.509667992 l 1
 256 218.509667992 l 1
 256 640 l 1
 384 640 l 1
 384 218.509667992 l 1
 448 154.509667992 l 1
 512 218.509667992 l 1
 512 640 l 1
 640 640 l 1
 640 165.490332008 l 1
 474.509667992 0 l 1
 421.490332008 0 l 1
 320 101.490332008 l 1
 218.509667992 0 l 1
 165.490332008 0 l 1
 0 165.490332008 l 1
EndSplineSet
EndChar

StartChar: x
Encoding: 88 120 88
GlifName: x
Width: 768
VWidth: 0
Flags: HW
LayerCount: 2
Back
SplineSet
0 0 m 257
 0 128 l 257
 128 128 l 257
 128 0 l 257
 0 0 l 257
512 0 m 257
 512 128 l 257
 640 128 l 257
 640 0 l 257
 512 0 l 257
128 128 m 257
 128 256 l 257
 256 256 l 257
 256 128 l 257
 128 128 l 257
384 128 m 257
 384 256 l 257
 512 256 l 257
 512 128 l 257
 384 128 l 257
256 256 m 257
 256 384 l 257
 384 384 l 257
 384 256 l 257
 256 256 l 257
128 384 m 257
 128 512 l 257
 256 512 l 257
 256 384 l 257
 128 384 l 257
384 384 m 257
 384 512 l 257
 512 512 l 257
 512 384 l 257
 384 384 l 257
0 512 m 257
 0 640 l 257
 128 640 l 257
 128 512 l 257
 0 512 l 257
512 512 m 257
 512 640 l 257
 640 640 l 257
 640 512 l 257
 512 512 l 257
EndSplineSet
Fore
SplineSet
0 90.5096679919 m 1
 229.490332008 320 l 1
 0 549.490332008 l 1
 90.5096679919 640 l 1
 320 410.509667992 l 1
 549.490332008 640 l 1
 640 549.490332008 l 1
 410.509667992 320 l 1
 640 90.5096679919 l 1
 549.490332008 0 l 1
 320 229.490332008 l 1
 90.5096679919 0 l 1
 0 90.5096679919 l 1
EndSplineSet
EndChar

StartChar: y
Encoding: 89 121 89
GlifName: y
Width: 768
VWidth: 0
Flags: HW
LayerCount: 2
Back
SplineSet
128 -256 m 257
 128 -128 l 257
 256 -128 l 257
 256 -256 l 257
 128 -256 l 257
256 -256 m 257
 256 -128 l 257
 384 -128 l 257
 384 -256 l 257
 256 -256 l 257
384 -256 m 257
 384 -128 l 257
 512 -128 l 257
 512 -256 l 257
 384 -256 l 257
512 -128 m 257
 512 0 l 257
 640 0 l 257
 640 -128 l 257
 512 -128 l 257
128 0 m 257
 128 128 l 257
 256 128 l 257
 256 0 l 257
 128 0 l 257
256 0 m 257
 256 128 l 257
 384 128 l 257
 384 0 l 257
 256 0 l 257
384 0 m 257
 384 128 l 257
 512 128 l 257
 512 0 l 257
 384 0 l 257
512 0 m 257
 512 128 l 257
 640 128 l 257
 640 0 l 257
 512 0 l 257
0 128 m 257
 0 256 l 257
 128 256 l 257
 128 128 l 257
 0 128 l 257
512 128 m 257
 512 256 l 257
 640 256 l 257
 640 128 l 257
 512 128 l 257
0 256 m 257
 0 384 l 257
 128 384 l 257
 128 256 l 257
 0 256 l 257
512 256 m 257
 512 384 l 257
 640 384 l 257
 640 256 l 257
 512 256 l 257
0 384 m 257
 0 512 l 257
 128 512 l 257
 128 384 l 257
 0 384 l 257
512 384 m 257
 512 512 l 257
 640 512 l 257
 640 384 l 257
 512 384 l 257
0 512 m 257
 0 640 l 257
 128 640 l 257
 128 512 l 257
 0 512 l 257
512 512 m 257
 512 640 l 257
 640 640 l 257
 640 512 l 257
 512 512 l 257
EndSplineSet
Fore
SplineSet
0 165.490332008 m 1
 0 640 l 1
 128 640 l 1
 128 218.509667992 l 1
 218.509667992 128 l 1
 512 128 l 1
 512 640 l 1
 640 640 l 1
 640 -90.5096679919 l 1
 474.509667992 -256 l 1
 128 -256 l 1
 128 -128 l 1
 421.490332008 -128 l 1
 512 -37.4903320081 l 1
 512 0 l 1
 165.490332008 0 l 1
 0 165.490332008 l 1
EndSplineSet
EndChar

StartChar: z
Encoding: 90 122 90
GlifName: z
Width: 768
VWidth: 0
Flags: HW
LayerCount: 2
Back
SplineSet
0 0 m 257
 0 128 l 257
 128 128 l 257
 128 0 l 257
 0 0 l 257
128 0 m 257
 128 128 l 257
 256 128 l 257
 256 0 l 257
 128 0 l 257
256 0 m 257
 256 128 l 257
 384 128 l 257
 384 0 l 257
 256 0 l 257
384 0 m 257
 384 128 l 257
 512 128 l 257
 512 0 l 257
 384 0 l 257
512 0 m 257
 512 128 l 257
 640 128 l 257
 640 0 l 257
 512 0 l 257
128 128 m 257
 128 256 l 257
 256 256 l 257
 256 128 l 257
 128 128 l 257
256 256 m 257
 256 384 l 257
 384 384 l 257
 384 256 l 257
 256 256 l 257
384 384 m 257
 384 512 l 257
 512 512 l 257
 512 384 l 257
 384 384 l 257
0 512 m 257
 0 640 l 257
 128 640 l 257
 128 512 l 257
 0 512 l 257
128 512 m 257
 128 640 l 257
 256 640 l 257
 256 512 l 257
 128 512 l 257
256 512 m 257
 256 640 l 257
 384 640 l 257
 384 512 l 257
 256 512 l 257
384 512 m 257
 384 640 l 257
 512 640 l 257
 512 512 l 257
 384 512 l 257
512 512 m 257
 512 640 l 257
 640 640 l 257
 640 512 l 257
 512 512 l 257
EndSplineSet
Fore
SplineSet
0 0 m 1
 0 90.5096679919 l 1
 421.490332008 512 l 1
 0 512 l 1
 0 640 l 1
 640 640 l 1
 640 549.490332008 l 1
 218.509667992 128 l 1
 640 128 l 1
 640 0 l 1
 0 0 l 1
EndSplineSet
EndChar

StartChar: braceleft
Encoding: 91 123 91
GlifName: braceleft
Width: 768
VWidth: 0
Flags: HW
LayerCount: 2
Back
SplineSet
384 -256 m 257
 384 -128 l 257
 512 -128 l 257
 512 -256 l 257
 384 -256 l 257
256 -128 m 257
 256 0 l 257
 384 0 l 257
 384 -128 l 257
 256 -128 l 257
256 0 m 257
 256 128 l 257
 384 128 l 257
 384 0 l 257
 256 0 l 257
256 128 m 257
 256 256 l 257
 384 256 l 257
 384 128 l 257
 256 128 l 257
128 256 m 257
 128 384 l 257
 256 384 l 257
 256 256 l 257
 128 256 l 257
256 384 m 257
 256 512 l 257
 384 512 l 257
 384 384 l 257
 256 384 l 257
256 512 m 257
 256 640 l 257
 384 640 l 257
 384 512 l 257
 256 512 l 257
256 640 m 257
 256 768 l 257
 384 768 l 257
 384 640 l 257
 256 640 l 257
384 768 m 257
 384 896 l 257
 512 896 l 257
 512 768 l 257
 384 768 l 257
EndSplineSet
Fore
SplineSet
101.490332008 320 m 1
 256 474.509667992 l 1
 256 730.509667992 l 1
 421.490332008 896 l 1
 512 805.490332008 l 1
 384 677.490332008 l 1
 384 421.490332008 l 1
 282.509667992 320 l 1
 384 218.509667992 l 1
 384 -37.4903320081 l 1
 512 -165.490332008 l 1
 421.490332008 -256 l 1
 256 -90.5096679919 l 1
 256 165.490332008 l 1
 101.490332008 320 l 1
EndSplineSet
EndChar

StartChar: bar
Encoding: 92 124 92
GlifName: bar
Width: 768
VWidth: 0
Flags: HW
LayerCount: 2
Back
SplineSet
256 -256 m 257
 256 -128 l 257
 384 -128 l 257
 384 -256 l 257
 256 -256 l 257
256 -128 m 257
 256 0 l 257
 384 0 l 257
 384 -128 l 257
 256 -128 l 257
256 0 m 257
 256 128 l 257
 384 128 l 257
 384 0 l 257
 256 0 l 257
256 128 m 257
 256 256 l 257
 384 256 l 257
 384 128 l 257
 256 128 l 257
256 256 m 257
 256 384 l 257
 384 384 l 257
 384 256 l 257
 256 256 l 257
256 384 m 257
 256 512 l 257
 384 512 l 257
 384 384 l 257
 256 384 l 257
256 512 m 257
 256 640 l 257
 384 640 l 257
 384 512 l 257
 256 512 l 257
256 640 m 257
 256 768 l 257
 384 768 l 257
 384 640 l 257
 256 640 l 257
256 768 m 257
 256 896 l 257
 384 896 l 257
 384 768 l 257
 256 768 l 257
EndSplineSet
Fore
SplineSet
256 -256 m 1
 256 896 l 1
 384 896 l 1
 384 -256 l 1
 256 -256 l 1
EndSplineSet
EndChar

StartChar: braceright
Encoding: 93 125 93
GlifName: braceright
Width: 768
VWidth: 0
Flags: HW
LayerCount: 2
Back
SplineSet
128 -256 m 257
 128 -128 l 257
 256 -128 l 257
 256 -256 l 257
 128 -256 l 257
256 -128 m 257
 256 0 l 257
 384 0 l 257
 384 -128 l 257
 256 -128 l 257
256 0 m 257
 256 128 l 257
 384 128 l 257
 384 0 l 257
 256 0 l 257
256 128 m 257
 256 256 l 257
 384 256 l 257
 384 128 l 257
 256 128 l 257
384 256 m 257
 384 384 l 257
 512 384 l 257
 512 256 l 257
 384 256 l 257
256 384 m 257
 256 512 l 257
 384 512 l 257
 384 384 l 257
 256 384 l 257
256 512 m 257
 256 640 l 257
 384 640 l 257
 384 512 l 257
 256 512 l 257
256 640 m 257
 256 768 l 257
 384 768 l 257
 384 640 l 257
 256 640 l 257
128 768 m 257
 128 896 l 257
 256 896 l 257
 256 768 l 257
 128 768 l 257
EndSplineSet
Fore
SplineSet
128 -165.490332008 m 1
 256 -37.4903320081 l 1
 256 218.509667992 l 1
 357.490332008 320 l 1
 256 421.490332008 l 1
 256 677.490332008 l 1
 128 805.490332008 l 1
 218.509667992 896 l 1
 384 730.509667992 l 1
 384 474.509667992 l 1
 538.509667992 320 l 1
 384 165.490332008 l 1
 384 -90.5096679919 l 1
 218.509667992 -256 l 1
 128 -165.490332008 l 1
EndSplineSet
EndChar

StartChar: asciitilde
Encoding: 94 126 94
GlifName: asciitilde
Width: 768
VWidth: 0
Flags: HW
LayerCount: 2
Back
SplineSet
384 512 m 257
 384 640 l 257
 512 640 l 257
 512 512 l 257
 384 512 l 257
0 640 m 257
 0 768 l 257
 128 768 l 257
 128 640 l 257
 0 640 l 257
256 640 m 257
 256 768 l 257
 384 768 l 257
 384 640 l 257
 256 640 l 257
512 640 m 257
 512 768 l 257
 640 768 l 257
 640 640 l 257
 512 640 l 257
128 768 m 257
 128 896 l 257
 256 896 l 257
 256 768 l 257
 128 768 l 257
EndSplineSet
Fore
SplineSet
0 730.509667992 m 1
 192 922.509667992 l 1
 448 666.509667992 l 1
 549.490332008 768 l 1
 640 677.490332008 l 1
 448 485.490332008 l 1
 192 741.490332008 l 1
 90.5096679919 640 l 1
 0 730.509667992 l 1
EndSplineSet
EndChar

StartChar: logicalnot
Encoding: 95 172 95
GlifName: logicalnot
Width: 768
VWidth: 0
Flags: HW
LayerCount: 2
Back
SplineSet
512 512 m 257
 512 640 l 257
 640 640 l 257
 640 512 l 257
 512 512 l 257
512 640 m 257
 512 768 l 257
 640 768 l 257
 640 640 l 257
 512 640 l 257
0 768 m 257
 0 896 l 257
 128 896 l 257
 128 768 l 257
 0 768 l 257
128 768 m 257
 128 896 l 257
 256 896 l 257
 256 768 l 257
 128 768 l 257
256 768 m 257
 256 896 l 257
 384 896 l 257
 384 768 l 257
 256 768 l 257
384 768 m 257
 384 896 l 257
 512 896 l 257
 512 768 l 257
 384 768 l 257
512 768 m 257
 512 896 l 257
 640 896 l 257
 640 768 l 257
 512 768 l 257
EndSplineSet
Fore
SplineSet
0 768 m 1
 0 896 l 1
 640 896 l 1
 640 512 l 1
 512 512 l 1
 512 768 l 1
 0 768 l 1
EndSplineSet
EndChar

StartChar: periodcentered
Encoding: 96 183 96
GlifName: periodcentered
Width: 768
VWidth: 0
Flags: HW
LayerCount: 2
Back
SplineSet
256 384 m 257
 256 512 l 257
 384 512 l 257
 384 384 l 257
 256 384 l 257
EndSplineSet
Fore
SplineSet
256 421.490332008 m 1
 256 474.509667992 l 1
 293.490332008 512 l 1
 346.509667992 512 l 1
 384 474.509667992 l 1
 384 421.490332008 l 1
 346.509667992 384 l 1
 293.490332008 384 l 1
 256 421.490332008 l 1
EndSplineSet
EndChar

StartChar: multiply
Encoding: 97 215 97
GlifName: multiply
Width: 768
VWidth: 0
Flags: HW
LayerCount: 2
Back
SplineSet
128 256 m 257
 128 384 l 257
 256 384 l 257
 256 256 l 257
 128 256 l 257
384 256 m 257
 384 384 l 257
 512 384 l 257
 512 256 l 257
 384 256 l 257
256 384 m 257
 256 512 l 257
 384 512 l 257
 384 384 l 257
 256 384 l 257
128 512 m 257
 128 640 l 257
 256 640 l 257
 256 512 l 257
 128 512 l 257
384 512 m 257
 384 640 l 257
 512 640 l 257
 512 512 l 257
 384 512 l 257
EndSplineSet
Fore
SplineSet
128 346.509667992 m 1
 229.490332008 448 l 1
 128 549.490332008 l 1
 218.509667992 640 l 1
 320 538.509667992 l 1
 421.490332008 640 l 1
 512 549.490332008 l 1
 410.509667992 448 l 1
 512 346.509667992 l 1
 421.490332008 256 l 1
 320 357.490332008 l 1
 218.509667992 256 l 1
 128 346.509667992 l 1
EndSplineSet
EndChar

StartChar: Gamma
Encoding: 98 915 98
GlifName: G_amma
Width: 768
Flags: HW
LayerCount: 2
Back
SplineSet
0 0 m 257
 0 128 l 257
 128 128 l 257
 128 0 l 257
 0 0 l 257
0 128 m 257
 0 256 l 257
 128 256 l 257
 128 128 l 257
 0 128 l 257
0 256 m 257
 0 384 l 257
 128 384 l 257
 128 256 l 257
 0 256 l 257
0 384 m 257
 0 512 l 257
 128 512 l 257
 128 384 l 257
 0 384 l 257
0 512 m 257
 0 640 l 257
 128 640 l 257
 128 512 l 257
 0 512 l 257
0 640 m 257
 0 768 l 257
 128 768 l 257
 128 640 l 257
 0 640 l 257
0 768 m 257
 0 896 l 257
 128 896 l 257
 128 768 l 257
 0 768 l 257
128 768 m 257
 128 896 l 257
 256 896 l 257
 256 768 l 257
 128 768 l 257
256 768 m 257
 256 896 l 257
 384 896 l 257
 384 768 l 257
 256 768 l 257
384 768 m 257
 384 896 l 257
 512 896 l 257
 512 768 l 257
 384 768 l 257
512 768 m 257
 512 896 l 257
 640 896 l 257
 640 768 l 257
 512 768 l 257
EndSplineSet
Fore
SplineSet
0 0 m 1
 0 896 l 1
 640 896 l 1
 640 768 l 1
 128 768 l 1
 128 0 l 1025
EndSplineSet
EndChar

StartChar: uni0394
Encoding: 99 916 99
GlifName: uni0394
Width: 2048
Flags: H
LayerCount: 2
Back
SplineSet
256 0 m 257
 256 128 l 257
 384 128 l 257
 384 0 l 257
 256 0 l 257
384 0 m 257
 384 128 l 257
 512 128 l 257
 512 0 l 257
 384 0 l 257
512 0 m 257
 512 128 l 257
 640 128 l 257
 640 0 l 257
 512 0 l 257
640 0 m 257
 640 128 l 257
 768 128 l 257
 768 0 l 257
 640 0 l 257
768 0 m 257
 768 128 l 257
 896 128 l 257
 896 0 l 257
 768 0 l 257
896 0 m 257
 896 128 l 257
 1024 128 l 257
 1024 0 l 257
 896 0 l 257
1024 0 m 257
 1024 128 l 257
 1152 128 l 257
 1152 0 l 257
 1024 0 l 257
384 128 m 257
 384 256 l 257
 512 256 l 257
 512 128 l 257
 384 128 l 257
896 128 m 257
 896 256 l 257
 1024 256 l 257
 1024 128 l 257
 896 128 l 257
384 256 m 257
 384 384 l 257
 512 384 l 257
 512 256 l 257
 384 256 l 257
896 256 m 257
 896 384 l 257
 1024 384 l 257
 1024 256 l 257
 896 256 l 257
512 384 m 257
 512 512 l 257
 640 512 l 257
 640 384 l 257
 512 384 l 257
768 384 m 257
 768 512 l 257
 896 512 l 257
 896 384 l 257
 768 384 l 257
512 512 m 257
 512 640 l 257
 640 640 l 257
 640 512 l 257
 512 512 l 257
768 512 m 257
 768 640 l 257
 896 640 l 257
 896 512 l 257
 768 512 l 257
640 640 m 257
 640 768 l 257
 768 768 l 257
 768 640 l 257
 640 640 l 257
640 768 m 257
 640 896 l 257
 768 896 l 257
 768 768 l 257
 640 768 l 257
EndSplineSet
Fore
Validated: 1
EndChar

StartChar: Lambda
Encoding: 100 923 100
GlifName: L_ambda
Width: 2048
Flags: H
LayerCount: 2
Back
SplineSet
256 0 m 257
 256 128 l 257
 384 128 l 257
 384 0 l 257
 256 0 l 257
384 0 m 257
 384 128 l 257
 512 128 l 257
 512 0 l 257
 384 0 l 257
896 0 m 257
 896 128 l 257
 1024 128 l 257
 1024 0 l 257
 896 0 l 257
1024 0 m 257
 1024 128 l 257
 1152 128 l 257
 1152 0 l 257
 1024 0 l 257
384 128 m 257
 384 256 l 257
 512 256 l 257
 512 128 l 257
 384 128 l 257
896 128 m 257
 896 256 l 257
 1024 256 l 257
 1024 128 l 257
 896 128 l 257
384 256 m 257
 384 384 l 257
 512 384 l 257
 512 256 l 257
 384 256 l 257
896 256 m 257
 896 384 l 257
 1024 384 l 257
 1024 256 l 257
 896 256 l 257
512 384 m 257
 512 512 l 257
 640 512 l 257
 640 384 l 257
 512 384 l 257
768 384 m 257
 768 512 l 257
 896 512 l 257
 896 384 l 257
 768 384 l 257
512 512 m 257
 512 640 l 257
 640 640 l 257
 640 512 l 257
 512 512 l 257
768 512 m 257
 768 640 l 257
 896 640 l 257
 896 512 l 257
 768 512 l 257
640 640 m 257
 640 768 l 257
 768 768 l 257
 768 640 l 257
 640 640 l 257
640 768 m 257
 640 896 l 257
 768 896 l 257
 768 768 l 257
 640 768 l 257
EndSplineSet
Fore
Validated: 1
EndChar

StartChar: Pi
Encoding: 101 928 101
GlifName: P_i
Width: 768
Flags: HW
LayerCount: 2
Back
SplineSet
0 0 m 257
 0 128 l 257
 128 128 l 257
 128 0 l 257
 0 0 l 257
512 0 m 257
 512 128 l 257
 640 128 l 257
 640 0 l 257
 512 0 l 257
0 128 m 257
 0 256 l 257
 128 256 l 257
 128 128 l 257
 0 128 l 257
512 128 m 257
 512 256 l 257
 640 256 l 257
 640 128 l 257
 512 128 l 257
0 256 m 257
 0 384 l 257
 128 384 l 257
 128 256 l 257
 0 256 l 257
512 256 m 257
 512 384 l 257
 640 384 l 257
 640 256 l 257
 512 256 l 257
0 384 m 257
 0 512 l 257
 128 512 l 257
 128 384 l 257
 0 384 l 257
512 384 m 257
 512 512 l 257
 640 512 l 257
 640 384 l 257
 512 384 l 257
0 512 m 257
 0 640 l 257
 128 640 l 257
 128 512 l 257
 0 512 l 257
512 512 m 257
 512 640 l 257
 640 640 l 257
 640 512 l 257
 512 512 l 257
0 640 m 257
 0 768 l 257
 128 768 l 257
 128 640 l 257
 0 640 l 257
512 640 m 257
 512 768 l 257
 640 768 l 257
 640 640 l 257
 512 640 l 257
0 768 m 257
 0 896 l 257
 128 896 l 257
 128 768 l 257
 0 768 l 257
128 768 m 257
 128 896 l 257
 256 896 l 257
 256 768 l 257
 128 768 l 257
256 768 m 257
 256 896 l 257
 384 896 l 257
 384 768 l 257
 256 768 l 257
384 768 m 257
 384 896 l 257
 512 896 l 257
 512 768 l 257
 384 768 l 257
512 768 m 257
 512 896 l 257
 640 896 l 257
 640 768 l 257
 512 768 l 257
EndSplineSet
Fore
SplineSet
0 0 m 1
 0 896 l 1
 640 896 l 1
 640 0 l 1
 512 0 l 1
 512 768 l 1
 128 768 l 1
 128 0 l 1025
EndSplineSet
EndChar

StartChar: Sigma
Encoding: 102 931 102
GlifName: S_igma
Width: 768
Flags: HW
LayerCount: 2
Back
SplineSet
0 0 m 257
 0 128 l 257
 128 128 l 257
 128 0 l 257
 0 0 l 257
128 0 m 257
 128 128 l 257
 256 128 l 257
 256 0 l 257
 128 0 l 257
256 0 m 257
 256 128 l 257
 384 128 l 257
 384 0 l 257
 256 0 l 257
384 0 m 257
 384 128 l 257
 512 128 l 257
 512 0 l 257
 384 0 l 257
512 0 m 257
 512 128 l 257
 640 128 l 257
 640 0 l 257
 512 0 l 257
0 128 m 257
 0 256 l 257
 128 256 l 257
 128 128 l 257
 0 128 l 257
128 256 m 257
 128 384 l 257
 256 384 l 257
 256 256 l 257
 128 256 l 257
256 384 m 257
 256 512 l 257
 384 512 l 257
 384 384 l 257
 256 384 l 257
128 512 m 257
 128 640 l 257
 256 640 l 257
 256 512 l 257
 128 512 l 257
0 640 m 257
 0 768 l 257
 128 768 l 257
 128 640 l 257
 0 640 l 257
0 768 m 257
 0 896 l 257
 128 896 l 257
 128 768 l 257
 0 768 l 257
128 768 m 257
 128 896 l 257
 256 896 l 257
 256 768 l 257
 128 768 l 257
256 768 m 257
 256 896 l 257
 384 896 l 257
 384 768 l 257
 256 768 l 257
384 768 m 257
 384 896 l 257
 512 896 l 257
 512 768 l 257
 384 768 l 257
512 768 m 257
 512 896 l 257
 640 896 l 257
 640 768 l 257
 512 768 l 257
EndSplineSet
Fore
SplineSet
0 0 m 1
 640 0 l 1
 640 128 l 1
 128 128 l 1
 128 165.490332008 l 1
 410.509667992 448 l 1
 128 730.509667992 l 1
 128 768 l 1
 640 768 l 1
 640 896 l 1
 0 896 l 1
 0 677.490332008 l 1
 229.490332008 448 l 1
 0 218.509667992 l 1025
EndSplineSet
EndChar

StartChar: alpha
Encoding: 103 945 103
GlifName: alpha
Width: 768
Flags: HW
LayerCount: 2
Back
SplineSet
128 0 m 257
 128 128 l 257
 256 128 l 257
 256 0 l 257
 128 0 l 257
256 0 m 257
 256 128 l 257
 384 128 l 257
 384 0 l 257
 256 0 l 257
512 0 m 257
 512 128 l 257
 640 128 l 257
 640 0 l 257
 512 0 l 257
0 128 m 257
 0 256 l 257
 128 256 l 257
 128 128 l 257
 0 128 l 257
384 128 m 257
 384 256 l 257
 512 256 l 257
 512 128 l 257
 384 128 l 257
0 256 m 257
 0 384 l 257
 128 384 l 257
 128 256 l 257
 0 256 l 257
384 256 m 257
 384 384 l 257
 512 384 l 257
 512 256 l 257
 384 256 l 257
0 384 m 257
 0 512 l 257
 128 512 l 257
 128 384 l 257
 0 384 l 257
384 384 m 257
 384 512 l 257
 512 512 l 257
 512 384 l 257
 384 384 l 257
128 512 m 257
 128 640 l 257
 256 640 l 257
 256 512 l 257
 128 512 l 257
256 512 m 257
 256 640 l 257
 384 640 l 257
 384 512 l 257
 256 512 l 257
512 512 m 257
 512 640 l 257
 640 640 l 257
 640 512 l 257
 512 512 l 257
EndSplineSet
Fore
SplineSet
128 218.509667992 m 1
 218.509667992 128 l 1
 293.490332008 128 l 1
 384 218.509667992 l 1
 384 421.490332008 l 1
 293.490332008 512 l 1
 218.509667992 512 l 1
 128 421.490332008 l 1025
165.490332008 0 m 1
 0 165.490332008 l 1
 0 474.509667992 l 1
 165.490332008 640 l 1
 346.509667992 640 l 1
 448 538.509667992 l 1
 549.490332008 640 l 1
 640 549.490332008 l 1
 512 421.490332008 l 1
 512 218.509667992 l 1
 640 90.5096679919 l 1
 549.490332008 0 l 1
 448 101.490332008 l 1
 346.509667992 0 l 1025
EndSplineSet
EndChar

StartChar: beta
Encoding: 104 946 104
GlifName: beta
Width: 768
Flags: HW
LayerCount: 2
Back
SplineSet
0 -256 m 257
 0 -128 l 257
 128 -128 l 257
 128 -256 l 257
 0 -256 l 257
0 -128 m 257
 0 0 l 257
 128 0 l 257
 128 -128 l 257
 0 -128 l 257
0 0 m 257
 0 128 l 257
 128 128 l 257
 128 0 l 257
 0 0 l 257
128 0 m 257
 128 128 l 257
 256 128 l 257
 256 0 l 257
 128 0 l 257
256 0 m 257
 256 128 l 257
 384 128 l 257
 384 0 l 257
 256 0 l 257
384 0 m 257
 384 128 l 257
 512 128 l 257
 512 0 l 257
 384 0 l 257
0 128 m 257
 0 256 l 257
 128 256 l 257
 128 128 l 257
 0 128 l 257
512 128 m 257
 512 256 l 257
 640 256 l 257
 640 128 l 257
 512 128 l 257
0 256 m 257
 0 384 l 257
 128 384 l 257
 128 256 l 257
 0 256 l 257
512 256 m 257
 512 384 l 257
 640 384 l 257
 640 256 l 257
 512 256 l 257
0 384 m 257
 0 512 l 257
 128 512 l 257
 128 384 l 257
 0 384 l 257
128 384 m 257
 128 512 l 257
 256 512 l 257
 256 384 l 257
 128 384 l 257
256 384 m 257
 256 512 l 257
 384 512 l 257
 384 384 l 257
 256 384 l 257
384 384 m 257
 384 512 l 257
 512 512 l 257
 512 384 l 257
 384 384 l 257
0 512 m 257
 0 640 l 257
 128 640 l 257
 128 512 l 257
 0 512 l 257
512 512 m 257
 512 640 l 257
 640 640 l 257
 640 512 l 257
 512 512 l 257
0 640 m 257
 0 768 l 257
 128 768 l 257
 128 640 l 257
 0 640 l 257
512 640 m 257
 512 768 l 257
 640 768 l 257
 640 640 l 257
 512 640 l 257
0 768 m 257
 0 896 l 257
 128 896 l 257
 128 768 l 257
 0 768 l 257
128 768 m 257
 128 896 l 257
 256 896 l 257
 256 768 l 257
 128 768 l 257
256 768 m 257
 256 896 l 257
 384 896 l 257
 384 768 l 257
 256 768 l 257
384 768 m 257
 384 896 l 257
 512 896 l 257
 512 768 l 257
 384 768 l 257
EndSplineSet
Fore
SplineSet
128 128 m 1
 421.490332008 128 l 1
 512 218.509667992 l 1
 512 293.490332008 l 1
 421.490332008 384 l 1
 128 384 l 1025
128 512 m 1
 421.490332008 512 l 1
 512 602.509667992 l 1
 512 677.490332008 l 1
 421.490332008 768 l 1
 128 768 l 1025
0 -256 m 1
 0 896 l 1
 474.509667992 896 l 1
 640 730.509667992 l 1
 640 549.490332008 l 1
 538.509667992 448 l 1
 640 346.509667992 l 1
 640 165.490332008 l 1
 474.509667992 0 l 1
 128 0 l 1
 128 -256 l 1025
EndSplineSet
EndChar

StartChar: gamma
Encoding: 105 947 105
GlifName: gamma
Width: 768
Flags: HW
LayerCount: 2
Back
SplineSet
0 -256 m 257
 0 -128 l 257
 128 -128 l 257
 128 -256 l 257
 0 -256 l 257
128 -128 m 257
 128 0 l 257
 256 0 l 257
 256 -128 l 257
 128 -128 l 257
256 0 m 257
 256 128 l 257
 384 128 l 257
 384 0 l 257
 256 0 l 257
128 128 m 257
 128 256 l 257
 256 256 l 257
 256 128 l 257
 128 128 l 257
384 128 m 257
 384 256 l 257
 512 256 l 257
 512 128 l 257
 384 128 l 257
0 256 m 257
 0 384 l 257
 128 384 l 257
 128 256 l 257
 0 256 l 257
512 256 m 257
 512 384 l 257
 640 384 l 257
 640 256 l 257
 512 256 l 257
0 384 m 257
 0 512 l 257
 128 512 l 257
 128 384 l 257
 0 384 l 257
512 384 m 257
 512 512 l 257
 640 512 l 257
 640 384 l 257
 512 384 l 257
0 512 m 257
 0 640 l 257
 128 640 l 257
 128 512 l 257
 0 512 l 257
512 512 m 257
 512 640 l 257
 640 640 l 257
 640 512 l 257
 512 512 l 257
EndSplineSet
Fore
SplineSet
90.5096679919 -256 m 1
 0 -165.490332008 l 1
 229.490332008 64 l 1
 0 293.490332008 l 1
 0 640 l 1
 128 640 l 1
 128 346.509667992 l 1
 320 154.509667992 l 1
 512 346.509667992 l 1
 512 640 l 1
 640 640 l 1
 640 293.490332008 l 1
 90.5096679919 -256 l 1
EndSplineSet
EndChar

StartChar: delta
Encoding: 106 948 106
GlifName: delta
Width: 768
Flags: HW
LayerCount: 2
Back
SplineSet
128 0 m 257
 128 128 l 257
 256 128 l 257
 256 0 l 257
 128 0 l 257
256 0 m 257
 256 128 l 257
 384 128 l 257
 384 0 l 257
 256 0 l 257
384 0 m 257
 384 128 l 257
 512 128 l 257
 512 0 l 257
 384 0 l 257
0 128 m 257
 0 256 l 257
 128 256 l 257
 128 128 l 257
 0 128 l 257
512 128 m 257
 512 256 l 257
 640 256 l 257
 640 128 l 257
 512 128 l 257
0 256 m 257
 0 384 l 257
 128 384 l 257
 128 256 l 257
 0 256 l 257
512 256 m 257
 512 384 l 257
 640 384 l 257
 640 256 l 257
 512 256 l 257
0 384 m 257
 0 512 l 257
 128 512 l 257
 128 384 l 257
 0 384 l 257
512 384 m 257
 512 512 l 257
 640 512 l 257
 640 384 l 257
 512 384 l 257
128 512 m 257
 128 640 l 257
 256 640 l 257
 256 512 l 257
 128 512 l 257
256 512 m 257
 256 640 l 257
 384 640 l 257
 384 512 l 257
 256 512 l 257
384 512 m 257
 384 640 l 257
 512 640 l 257
 512 512 l 257
 384 512 l 257
0 640 m 257
 0 768 l 257
 128 768 l 257
 128 640 l 257
 0 640 l 257
128 768 m 257
 128 896 l 257
 256 896 l 257
 256 768 l 257
 128 768 l 257
256 768 m 257
 256 896 l 257
 384 896 l 257
 384 768 l 257
 256 768 l 257
384 768 m 257
 384 896 l 257
 512 896 l 257
 512 768 l 257
 384 768 l 257
512 768 m 257
 512 896 l 257
 640 896 l 257
 640 768 l 257
 512 768 l 257
EndSplineSet
Fore
SplineSet
128 512 m 1
 128 218.509667992 l 1
 218.509667992 128 l 1
 421.490332008 128 l 1
 512 218.509667992 l 1
 512 421.490332008 l 1
 421.490332008 512 l 1
 128 512 l 1
165.490332008 0 m 1
 0 165.490332008 l 1
 0 730.509667992 l 1
 165.490332008 896 l 1
 640 896 l 1
 640 768 l 1
 218.509667992 768 l 1
 128 677.490332008 l 1
 128 640 l 1
 474.509667992 640 l 1
 640 474.509667992 l 1
 640 165.490332008 l 1
 474.509667992 0 l 1
 165.490332008 0 l 1
EndSplineSet
EndChar

StartChar: epsilon
Encoding: 107 949 107
GlifName: epsilon
Width: 768
VWidth: 0
Flags: HW
LayerCount: 2
Back
SplineSet
128 0 m 257
 128 128 l 257
 256 128 l 257
 256 0 l 257
 128 0 l 257
256 0 m 257
 256 128 l 257
 384 128 l 257
 384 0 l 257
 256 0 l 257
384 0 m 257
 384 128 l 257
 512 128 l 257
 512 0 l 257
 384 0 l 257
512 0 m 257
 512 128 l 257
 640 128 l 257
 640 0 l 257
 512 0 l 257
0 128 m 257
 0 256 l 257
 128 256 l 257
 128 128 l 257
 0 128 l 257
128 256 m 257
 128 384 l 257
 256 384 l 257
 256 256 l 257
 128 256 l 257
256 256 m 257
 256 384 l 257
 384 384 l 257
 384 256 l 257
 256 256 l 257
384 256 m 257
 384 384 l 257
 512 384 l 257
 512 256 l 257
 384 256 l 257
512 256 m 257
 512 384 l 257
 640 384 l 257
 640 256 l 257
 512 256 l 257
0 384 m 257
 0 512 l 257
 128 512 l 257
 128 384 l 257
 0 384 l 257
128 512 m 257
 128 640 l 257
 256 640 l 257
 256 512 l 257
 128 512 l 257
256 512 m 257
 256 640 l 257
 384 640 l 257
 384 512 l 257
 256 512 l 257
384 512 m 257
 384 640 l 257
 512 640 l 257
 512 512 l 257
 384 512 l 257
512 512 m 257
 512 640 l 257
 640 640 l 257
 640 512 l 257
 512 512 l 257
EndSplineSet
Fore
SplineSet
640 0 m 1
 165.490332008 0 l 1
 0 165.490332008 l 1
 0 218.509667992 l 1
 101.490332008 320 l 1
 0 421.490332008 l 1
 0 474.509667992 l 1
 165.490332008 640 l 1
 640 640 l 1
 640 512 l 1
 218.509667992 512 l 1
 154.509667992 448 l 1
 218.509667992 384 l 1
 640 384 l 1
 640 256 l 1
 218.509667992 256 l 1
 154.509667992 192 l 1
 218.509667992 128 l 1
 640 128 l 1
 640 0 l 1
EndSplineSet
EndChar

StartChar: theta
Encoding: 108 952 108
GlifName: theta
Width: 768
Flags: HW
LayerCount: 2
Back
SplineSet
128 0 m 257
 128 128 l 257
 256 128 l 257
 256 0 l 257
 128 0 l 257
256 0 m 257
 256 128 l 257
 384 128 l 257
 384 0 l 257
 256 0 l 257
384 0 m 257
 384 128 l 257
 512 128 l 257
 512 0 l 257
 384 0 l 257
0 128 m 257
 0 256 l 257
 128 256 l 257
 128 128 l 257
 0 128 l 257
512 128 m 257
 512 256 l 257
 640 256 l 257
 640 128 l 257
 512 128 l 257
0 256 m 257
 0 384 l 257
 128 384 l 257
 128 256 l 257
 0 256 l 257
512 256 m 257
 512 384 l 257
 640 384 l 257
 640 256 l 257
 512 256 l 257
0 384 m 257
 0 512 l 257
 128 512 l 257
 128 384 l 257
 0 384 l 257
128 384 m 257
 128 512 l 257
 256 512 l 257
 256 384 l 257
 128 384 l 257
256 384 m 257
 256 512 l 257
 384 512 l 257
 384 384 l 257
 256 384 l 257
384 384 m 257
 384 512 l 257
 512 512 l 257
 512 384 l 257
 384 384 l 257
512 384 m 257
 512 512 l 257
 640 512 l 257
 640 384 l 257
 512 384 l 257
0 512 m 257
 0 640 l 257
 128 640 l 257
 128 512 l 257
 0 512 l 257
512 512 m 257
 512 640 l 257
 640 640 l 257
 640 512 l 257
 512 512 l 257
0 640 m 257
 0 768 l 257
 128 768 l 257
 128 640 l 257
 0 640 l 257
512 640 m 257
 512 768 l 257
 640 768 l 257
 640 640 l 257
 512 640 l 257
128 768 m 257
 128 896 l 257
 256 896 l 257
 256 768 l 257
 128 768 l 257
256 768 m 257
 256 896 l 257
 384 896 l 257
 384 768 l 257
 256 768 l 257
384 768 m 257
 384 896 l 257
 512 896 l 257
 512 768 l 257
 384 768 l 257
EndSplineSet
Fore
SplineSet
128 512 m 1
 512 512 l 1
 512 677.490332008 l 1
 421.490332008 768 l 1
 218.509667992 768 l 1
 128 677.490332008 l 1
 128 512 l 1
218.509667992 128 m 1
 421.490332008 128 l 1
 512 218.509667992 l 1
 512 384 l 1
 128 384 l 1
 128 218.509667992 l 1
 218.509667992 128 l 1
165.490332008 0 m 1
 0 165.490332008 l 1
 0 730.509667992 l 1
 165.490332008 896 l 1
 474.509667992 896 l 1
 640 730.509667992 l 1
 640 165.490332008 l 1
 474.509667992 0 l 1
 165.490332008 0 l 1
EndSplineSet
EndChar

StartChar: lambda
Encoding: 109 955 109
GlifName: lambda
Width: 768
Flags: HW
LayerCount: 2
Back
SplineSet
0 0 m 257
 0 128 l 257
 128 128 l 257
 128 0 l 257
 0 0 l 257
512 0 m 257
 512 128 l 257
 640 128 l 257
 640 0 l 257
 512 0 l 257
0 128 m 257
 0 256 l 257
 128 256 l 257
 128 128 l 257
 0 128 l 257
512 128 m 257
 512 256 l 257
 640 256 l 257
 640 128 l 257
 512 128 l 257
128 256 m 257
 128 384 l 257
 256 384 l 257
 256 256 l 257
 128 256 l 257
384 256 m 257
 384 384 l 257
 512 384 l 257
 512 256 l 257
 384 256 l 257
256 384 m 257
 256 512 l 257
 384 512 l 257
 384 384 l 257
 256 384 l 257
128 512 m 257
 128 640 l 257
 256 640 l 257
 256 512 l 257
 128 512 l 257
0 640 m 257
 0 768 l 257
 128 768 l 257
 128 640 l 257
 0 640 l 257
0 768 m 257
 0 896 l 257
 128 896 l 257
 128 768 l 257
 0 768 l 257
EndSplineSet
Fore
SplineSet
0 0 m 1
 0 219 l 1
 229 448 l 1
 0 677 l 1
 0 896 l 1
 128 896 l 1
 128 731 l 1
 640 219 l 1
 640 0 l 1
 512 0 l 1
 512 165 l 1
 320 357 l 1
 128 165 l 1
 128 0 l 1
 0 0 l 1
EndSplineSet
EndChar

StartChar: uni03BC
Encoding: 110 956 110
GlifName: uni03B_C_
Width: 768
Flags: HW
LayerCount: 2
Back
SplineSet
0 -256 m 257
 0 -128 l 257
 128 -128 l 257
 128 -256 l 257
 0 -256 l 257
0 -128 m 257
 0 0 l 257
 128 0 l 257
 128 -128 l 257
 0 -128 l 257
0 0 m 257
 0 128 l 257
 128 128 l 257
 128 0 l 257
 0 0 l 257
128 0 m 257
 128 128 l 257
 256 128 l 257
 256 0 l 257
 128 0 l 257
256 0 m 257
 256 128 l 257
 384 128 l 257
 384 0 l 257
 256 0 l 257
384 0 m 257
 384 128 l 257
 512 128 l 257
 512 0 l 257
 384 0 l 257
0 128 m 257
 0 256 l 257
 128 256 l 257
 128 128 l 257
 0 128 l 257
512 128 m 257
 512 256 l 257
 640 256 l 257
 640 128 l 257
 512 128 l 257
0 256 m 257
 0 384 l 257
 128 384 l 257
 128 256 l 257
 0 256 l 257
512 256 m 257
 512 384 l 257
 640 384 l 257
 640 256 l 257
 512 256 l 257
0 384 m 257
 0 512 l 257
 128 512 l 257
 128 384 l 257
 0 384 l 257
512 384 m 257
 512 512 l 257
 640 512 l 257
 640 384 l 257
 512 384 l 257
0 512 m 257
 0 640 l 257
 128 640 l 257
 128 512 l 257
 0 512 l 257
512 512 m 257
 512 640 l 257
 640 640 l 257
 640 512 l 257
 512 512 l 257
EndSplineSet
Fore
SplineSet
0 -256 m 1
 0 640 l 1
 128 640 l 1
 128 128 l 1
 421 128 l 1
 512 219 l 1
 512 640 l 1
 640 640 l 1
 640 165 l 1
 475 0 l 1
 128 0 l 1
 128 -256 l 1
 0 -256 l 1
EndSplineSet
EndChar

StartChar: nu
Encoding: 111 957 111
GlifName: nu
Width: 768
Flags: HW
LayerCount: 2
Back
SplineSet
0 0 m 257
 0 128 l 257
 128 128 l 257
 128 0 l 257
 0 0 l 257
128 0 m 257
 128 128 l 257
 256 128 l 257
 256 0 l 257
 128 0 l 257
256 0 m 257
 256 128 l 257
 384 128 l 257
 384 0 l 257
 256 0 l 257
0 128 m 257
 0 256 l 257
 128 256 l 257
 128 128 l 257
 0 128 l 257
384 128 m 257
 384 256 l 257
 512 256 l 257
 512 128 l 257
 384 128 l 257
0 256 m 257
 0 384 l 257
 128 384 l 257
 128 256 l 257
 0 256 l 257
512 256 m 257
 512 384 l 257
 640 384 l 257
 640 256 l 257
 512 256 l 257
0 384 m 257
 0 512 l 257
 128 512 l 257
 128 384 l 257
 0 384 l 257
512 384 m 257
 512 512 l 257
 640 512 l 257
 640 384 l 257
 512 384 l 257
0 512 m 257
 0 640 l 257
 128 640 l 257
 128 512 l 257
 0 512 l 257
512 512 m 257
 512 640 l 257
 640 640 l 257
 640 512 l 257
 512 512 l 257
EndSplineSet
Fore
SplineSet
0 0 m 1
 0 640 l 1
 128 640 l 1
 128 128 l 1
 293 128 l 1
 512 347 l 1
 509 639 l 1
 640 640 l 1
 641 309 l 1
 347 0 l 1
 0 0 l 1
EndSplineSet
EndChar

StartChar: pi
Encoding: 112 960 112
GlifName: pi
Width: 768
Flags: HW
LayerCount: 2
Back
SplineSet
128 0 m 257
 128 128 l 257
 256 128 l 257
 256 0 l 257
 128 0 l 257
384 0 m 257
 384 128 l 257
 512 128 l 257
 512 0 l 257
 384 0 l 257
128 128 m 257
 128 256 l 257
 256 256 l 257
 256 128 l 257
 128 128 l 257
384 128 m 257
 384 256 l 257
 512 256 l 257
 512 128 l 257
 384 128 l 257
128 256 m 257
 128 384 l 257
 256 384 l 257
 256 256 l 257
 128 256 l 257
384 256 m 257
 384 384 l 257
 512 384 l 257
 512 256 l 257
 384 256 l 257
128 384 m 257
 128 512 l 257
 256 512 l 257
 256 384 l 257
 128 384 l 257
384 384 m 257
 384 512 l 257
 512 512 l 257
 512 384 l 257
 384 384 l 257
0 512 m 257
 0 640 l 257
 128 640 l 257
 128 512 l 257
 0 512 l 257
128 512 m 257
 128 640 l 257
 256 640 l 257
 256 512 l 257
 128 512 l 257
256 512 m 257
 256 640 l 257
 384 640 l 257
 384 512 l 257
 256 512 l 257
384 512 m 257
 384 640 l 257
 512 640 l 257
 512 512 l 257
 384 512 l 257
512 512 m 257
 512 640 l 257
 640 640 l 257
 640 512 l 257
 512 512 l 257
EndSplineSet
Fore
SplineSet
128 0 m 1
 128 512 l 1
 0 512 l 1
 0 640 l 1
 640 640 l 1
 640 512 l 1
 512 512 l 1
 512 0 l 1
 384 0 l 1
 384 512 l 1
 256 512 l 1
 256 0 l 1
 128 0 l 1
EndSplineSet
EndChar

StartChar: sigma
Encoding: 113 963 113
GlifName: sigma
Width: 768
Flags: HW
LayerCount: 2
Back
SplineSet
128 0 m 257
 128 128 l 257
 256 128 l 257
 256 0 l 257
 128 0 l 257
256 0 m 257
 256 128 l 257
 384 128 l 257
 384 0 l 257
 256 0 l 257
0 128 m 257
 0 256 l 257
 128 256 l 257
 128 128 l 257
 0 128 l 257
384 128 m 257
 384 256 l 257
 512 256 l 257
 512 128 l 257
 384 128 l 257
0 256 m 257
 0 384 l 257
 128 384 l 257
 128 256 l 257
 0 256 l 257
384 256 m 257
 384 384 l 257
 512 384 l 257
 512 256 l 257
 384 256 l 257
0 384 m 257
 0 512 l 257
 128 512 l 257
 128 384 l 257
 0 384 l 257
384 384 m 257
 384 512 l 257
 512 512 l 257
 512 384 l 257
 384 384 l 257
128 512 m 257
 128 640 l 257
 256 640 l 257
 256 512 l 257
 128 512 l 257
256 512 m 257
 256 640 l 257
 384 640 l 257
 384 512 l 257
 256 512 l 257
384 512 m 257
 384 640 l 257
 512 640 l 257
 512 512 l 257
 384 512 l 257
512 512 m 257
 512 640 l 257
 640 640 l 257
 640 512 l 257
 512 512 l 257
EndSplineSet
Fore
SplineSet
128 219 m 1
 219 128 l 1
 293 128 l 1
 384 219 l 1
 384 421 l 1
 293 512 l 1
 219 512 l 1
 128 421 l 1
 128 219 l 1
165 0 m 1
 0 165 l 1
 0 475 l 1
 165 640 l 1
 640 640 l 1
 640 512 l 1
 512 512 l 1
 512 165 l 1
 347 0 l 1
 165 0 l 1
EndSplineSet
EndChar

StartChar: tau
Encoding: 114 964 114
GlifName: tau
Width: 768
Flags: HW
LayerCount: 2
Back
SplineSet
256 0 m 257
 256 128 l 257
 384 128 l 257
 384 0 l 257
 256 0 l 257
256 128 m 257
 256 256 l 257
 384 256 l 257
 384 128 l 257
 256 128 l 257
256 256 m 257
 256 384 l 257
 384 384 l 257
 384 256 l 257
 256 256 l 257
256 384 m 257
 256 512 l 257
 384 512 l 257
 384 384 l 257
 256 384 l 257
0 512 m 257
 0 640 l 257
 128 640 l 257
 128 512 l 257
 0 512 l 257
128 512 m 257
 128 640 l 257
 256 640 l 257
 256 512 l 257
 128 512 l 257
256 512 m 257
 256 640 l 257
 384 640 l 257
 384 512 l 257
 256 512 l 257
384 512 m 257
 384 640 l 257
 512 640 l 257
 512 512 l 257
 384 512 l 257
512 512 m 257
 512 640 l 257
 640 640 l 257
 640 512 l 257
 512 512 l 257
EndSplineSet
Fore
SplineSet
256 0 m 1
 256 512 l 1
 0 512 l 1
 0 640 l 1
 640 640 l 1
 640 512 l 1
 384 512 l 1
 384 0 l 1
 256 0 l 1
EndSplineSet
EndChar

StartChar: phi
Encoding: 115 966 115
GlifName: phi
Width: 768
Flags: HW
LayerCount: 2
Back
SplineSet
256 0 m 257
 256 128 l 257
 384 128 l 257
 384 0 l 257
 256 0 l 257
256 128 m 257
 256 256 l 257
 384 256 l 257
 384 128 l 257
 256 128 l 257
256 256 m 257
 256 384 l 257
 384 384 l 257
 384 256 l 257
 256 256 l 257
128 384 m 257
 128 512 l 257
 256 512 l 257
 256 384 l 257
 128 384 l 257
256 384 m 257
 256 512 l 257
 384 512 l 257
 384 384 l 257
 256 384 l 257
384 384 m 257
 384 512 l 257
 512 512 l 257
 512 384 l 257
 384 384 l 257
0 512 m 257
 0 640 l 257
 128 640 l 257
 128 512 l 257
 0 512 l 257
256 512 m 257
 256 640 l 257
 384 640 l 257
 384 512 l 257
 256 512 l 257
512 512 m 257
 512 640 l 257
 640 640 l 257
 640 512 l 257
 512 512 l 257
0 640 m 257
 0 768 l 257
 128 768 l 257
 128 640 l 257
 0 640 l 257
256 640 m 257
 256 768 l 257
 384 768 l 257
 384 640 l 257
 256 640 l 257
512 640 m 257
 512 768 l 257
 640 768 l 257
 640 640 l 257
 512 640 l 257
384 768 m 257
 384 896 l 257
 512 896 l 257
 512 768 l 257
 384 768 l 257
EndSplineSet
Fore
SplineSet
384 512 m 1
 421 512 l 1
 512 603 l 1
 512 677 l 1
 448 741 l 1
 384 677 l 1
 384 512 l 1
256 0 m 1
 256 384 l 1
 165 384 l 1
 0 549 l 1
 0 768 l 1
 128 768 l 1
 128 603 l 1
 219 512 l 1
 256 512 l 1
 256 731 l 1
 421 896 l 1
 475 896 l 1
 640 731 l 1
 640 549 l 1
 475 384 l 1
 384 384 l 1
 384 0 l 1
 256 0 l 1
EndSplineSet
EndChar

StartChar: chi
Encoding: 116 967 116
GlifName: chi
Width: 768
Flags: HW
LayerCount: 2
Back
SplineSet
0 0 m 257
 0 128 l 257
 128 128 l 257
 128 0 l 257
 0 0 l 257
0 128 m 257
 0 256 l 257
 128 256 l 257
 128 128 l 257
 0 128 l 257
512 128 m 257
 512 256 l 257
 640 256 l 257
 640 128 l 257
 512 128 l 257
128 256 m 257
 128 384 l 257
 256 384 l 257
 256 256 l 257
 128 256 l 257
384 256 m 257
 384 384 l 257
 512 384 l 257
 512 256 l 257
 384 256 l 257
256 384 m 257
 256 512 l 257
 384 512 l 257
 384 384 l 257
 256 384 l 257
128 512 m 257
 128 640 l 257
 256 640 l 257
 256 512 l 257
 128 512 l 257
384 512 m 257
 384 640 l 257
 512 640 l 257
 512 512 l 257
 384 512 l 257
0 640 m 257
 0 768 l 257
 128 768 l 257
 128 640 l 257
 0 640 l 257
512 640 m 257
 512 768 l 257
 640 768 l 257
 640 640 l 257
 512 640 l 257
512 768 m 257
 512 896 l 257
 640 896 l 257
 640 768 l 257
 512 768 l 257
EndSplineSet
Fore
SplineSet
0 0 m 1
 0 219 l 1
 229 448 l 1
 0 677 l 1
 91 768 l 1
 320 539 l 1
 512 731 l 1
 512 896 l 1
 640 896 l 1
 640 677 l 1
 411 448 l 1
 640 219 l 1
 549 128 l 1
 320 357 l 1
 128 165 l 1
 128 0 l 1
 0 0 l 1
EndSplineSet
EndChar

StartChar: psi
Encoding: 117 968 117
GlifName: psi
Width: 768
Flags: HW
LayerCount: 2
Back
SplineSet
256 0 m 257
 256 128 l 257
 384 128 l 257
 384 0 l 257
 256 0 l 257
256 128 m 257
 256 256 l 257
 384 256 l 257
 384 128 l 257
 256 128 l 257
256 256 m 257
 256 384 l 257
 384 384 l 257
 384 256 l 257
 256 256 l 257
128 384 m 257
 128 512 l 257
 256 512 l 257
 256 384 l 257
 128 384 l 257
256 384 m 257
 256 512 l 257
 384 512 l 257
 384 384 l 257
 256 384 l 257
384 384 m 257
 384 512 l 257
 512 512 l 257
 512 384 l 257
 384 384 l 257
0 512 m 257
 0 640 l 257
 128 640 l 257
 128 512 l 257
 0 512 l 257
256 512 m 257
 256 640 l 257
 384 640 l 257
 384 512 l 257
 256 512 l 257
512 512 m 257
 512 640 l 257
 640 640 l 257
 640 512 l 257
 512 512 l 257
0 640 m 257
 0 768 l 257
 128 768 l 257
 128 640 l 257
 0 640 l 257
256 640 m 257
 256 768 l 257
 384 768 l 257
 384 640 l 257
 256 640 l 257
512 640 m 257
 512 768 l 257
 640 768 l 257
 640 640 l 257
 512 640 l 257
0 768 m 257
 0 896 l 257
 128 896 l 257
 128 768 l 257
 0 768 l 257
256 768 m 257
 256 896 l 257
 384 896 l 257
 384 768 l 257
 256 768 l 257
512 768 m 257
 512 896 l 257
 640 896 l 257
 640 768 l 257
 512 768 l 257
EndSplineSet
Fore
SplineSet
256 0 m 1
 256 384 l 1
 165 384 l 1
 0 549 l 1
 0 896 l 1
 128 896 l 1
 128 603 l 1
 219 512 l 1
 256 512 l 1
 256 896 l 1
 384 896 l 1
 384 512 l 1
 421 512 l 1
 512 603 l 1
 512 896 l 1
 640 896 l 1
 640 549 l 1
 475 384 l 1
 384 384 l 1
 384 0 l 1
 256 0 l 1
EndSplineSet
EndChar

StartChar: quotedblleft
Encoding: 118 8220 118
GlifName: quotedblleft
Width: 768
Flags: HW
LayerCount: 2
Back
SplineSet
256 512 m 257
 256 640 l 257
 384 640 l 257
 384 512 l 257
 256 512 l 257
512 512 m 257
 512 640 l 257
 640 640 l 257
 640 512 l 257
 512 512 l 257
128 640 m 257
 128 768 l 257
 256 768 l 257
 256 640 l 257
 128 640 l 257
384 640 m 257
 384 768 l 257
 512 768 l 257
 512 640 l 257
 384 640 l 257
0 768 m 257
 0 896 l 257
 128 896 l 257
 128 768 l 257
 0 768 l 257
256 768 m 257
 256 896 l 257
 384 896 l 257
 384 768 l 257
 256 768 l 257
EndSplineSet
Fore
SplineSet
256 805 m 1
 347 896 l 1
 640 603 l 1
 549 512 l 1
 256 805 l 1
293 512 m 1
 0 805 l 1
 91 896 l 1
 384 603 l 1
 293 512 l 1
EndSplineSet
EndChar

StartChar: quotedblright
Encoding: 119 8221 119
GlifName: quotedblright
Width: 768
Flags: HW
LayerCount: 2
Back
SplineSet
0 512 m 257
 0 640 l 257
 128 640 l 257
 128 512 l 257
 0 512 l 257
256 512 m 257
 256 640 l 257
 384 640 l 257
 384 512 l 257
 256 512 l 257
128 640 m 257
 128 768 l 257
 256 768 l 257
 256 640 l 257
 128 640 l 257
384 640 m 257
 384 768 l 257
 512 768 l 257
 512 640 l 257
 384 640 l 257
256 768 m 257
 256 896 l 257
 384 896 l 257
 384 768 l 257
 256 768 l 257
512 768 m 257
 512 896 l 257
 640 896 l 257
 640 768 l 257
 512 768 l 257
EndSplineSet
Fore
SplineSet
347 512 m 1
 256 603 l 1
 549 896 l 1
 640 805 l 1
 347 512 l 1
91 512 m 1
 0 603 l 1
 293 896 l 1
 384 805 l 1
 91 512 l 1
EndSplineSet
EndChar

StartChar: uni2102
Encoding: 120 8450 120
GlifName: uni2102
Width: 768
Flags: HW
LayerCount: 2
Back
SplineSet
128 0 m 257
 128 128 l 257
 256 128 l 257
 256 0 l 257
 128 0 l 257
256 0 m 257
 256 128 l 257
 384 128 l 257
 384 0 l 257
 256 0 l 257
384 0 m 257
 384 128 l 257
 512 128 l 257
 512 0 l 257
 384 0 l 257
0 128 m 257
 0 256 l 257
 128 256 l 257
 128 128 l 257
 0 128 l 257
128 128 m 257
 128 256 l 257
 256 256 l 257
 256 128 l 257
 128 128 l 257
512 128 m 257
 512 256 l 257
 640 256 l 257
 640 128 l 257
 512 128 l 257
0 256 m 257
 0 384 l 257
 128 384 l 257
 128 256 l 257
 0 256 l 257
128 256 m 257
 128 384 l 257
 256 384 l 257
 256 256 l 257
 128 256 l 257
0 384 m 257
 0 512 l 257
 128 512 l 257
 128 384 l 257
 0 384 l 257
128 384 m 257
 128 512 l 257
 256 512 l 257
 256 384 l 257
 128 384 l 257
0 512 m 257
 0 640 l 257
 128 640 l 257
 128 512 l 257
 0 512 l 257
128 512 m 257
 128 640 l 257
 256 640 l 257
 256 512 l 257
 128 512 l 257
0 640 m 257
 0 768 l 257
 128 768 l 257
 128 640 l 257
 0 640 l 257
128 640 m 257
 128 768 l 257
 256 768 l 257
 256 640 l 257
 128 640 l 257
512 640 m 257
 512 768 l 257
 640 768 l 257
 640 640 l 257
 512 640 l 257
128 768 m 257
 128 896 l 257
 256 896 l 257
 256 768 l 257
 128 768 l 257
256 768 m 257
 256 896 l 257
 384 896 l 257
 384 768 l 257
 256 768 l 257
384 768 m 257
 384 896 l 257
 512 896 l 257
 512 768 l 257
 384 768 l 257
EndSplineSet
Fore
SplineSet
165 0 m 1
 0 165 l 1
 0 731 l 1
 165 896 l 1
 475 896 l 1
 640 731 l 1
 549 640 l 1
 421 768 l 1
 256 768 l 1
 256 128 l 1
 421 128 l 1
 549 256 l 1
 640 165 l 1
 475 0 l 1
 165 0 l 1
EndSplineSet
EndChar

StartChar: uni2115
Encoding: 121 8469 121
GlifName: uni2115
Width: 768
Flags: HW
LayerCount: 2
Back
SplineSet
0 0 m 257
 0 128 l 257
 128 128 l 257
 128 0 l 257
 0 0 l 257
512 0 m 257
 512 128 l 257
 640 128 l 257
 640 0 l 257
 512 0 l 257
0 128 m 257
 0 256 l 257
 128 256 l 257
 128 128 l 257
 0 128 l 257
512 128 m 257
 512 256 l 257
 640 256 l 257
 640 128 l 257
 512 128 l 257
0 256 m 257
 0 384 l 257
 128 384 l 257
 128 256 l 257
 0 256 l 257
384 256 m 257
 384 384 l 257
 512 384 l 257
 512 256 l 257
 384 256 l 257
512 256 m 257
 512 384 l 257
 640 384 l 257
 640 256 l 257
 512 256 l 257
0 384 m 257
 0 512 l 257
 128 512 l 257
 128 384 l 257
 0 384 l 257
256 384 m 257
 256 512 l 257
 384 512 l 257
 384 384 l 257
 256 384 l 257
384 384 m 257
 384 512 l 257
 512 512 l 257
 512 384 l 257
 384 384 l 257
512 384 m 257
 512 512 l 257
 640 512 l 257
 640 384 l 257
 512 384 l 257
0 512 m 257
 0 640 l 257
 128 640 l 257
 128 512 l 257
 0 512 l 257
128 512 m 257
 128 640 l 257
 256 640 l 257
 256 512 l 257
 128 512 l 257
256 512 m 257
 256 640 l 257
 384 640 l 257
 384 512 l 257
 256 512 l 257
512 512 m 257
 512 640 l 257
 640 640 l 257
 640 512 l 257
 512 512 l 257
0 640 m 257
 0 768 l 257
 128 768 l 257
 128 640 l 257
 0 640 l 257
128 640 m 257
 128 768 l 257
 256 768 l 257
 256 640 l 257
 128 640 l 257
512 640 m 257
 512 768 l 257
 640 768 l 257
 640 640 l 257
 512 640 l 257
0 768 m 257
 0 896 l 257
 128 896 l 257
 128 768 l 257
 0 768 l 257
512 768 m 257
 512 896 l 257
 640 896 l 257
 640 768 l 257
 512 768 l 257
EndSplineSet
Fore
SplineSet
0 0 m 1
 0 896 l 1
 91 896 l 1
 512 475 l 1
 512 896 l 1
 640 896 l 1
 640 0 l 1
 512 0 l 1
 512 165 l 1
 128 549 l 1
 128 0 l 1
 0 0 l 1
EndSplineSet
EndChar

StartChar: uni211A
Encoding: 122 8474 122
GlifName: uni211A_
Width: 768
Flags: HW
LayerCount: 2
Back
SplineSet
512 -256 m 257
 512 -128 l 257
 640 -128 l 257
 640 -256 l 257
 512 -256 l 257
512 -128 m 257
 512 0 l 257
 640 0 l 257
 640 -128 l 257
 512 -128 l 257
128 0 m 257
 128 128 l 257
 256 128 l 257
 256 0 l 257
 128 0 l 257
256 0 m 257
 256 128 l 257
 384 128 l 257
 384 0 l 257
 256 0 l 257
384 0 m 257
 384 128 l 257
 512 128 l 257
 512 0 l 257
 384 0 l 257
0 128 m 257
 0 256 l 257
 128 256 l 257
 128 128 l 257
 0 128 l 257
128 128 m 257
 128 256 l 257
 256 256 l 257
 256 128 l 257
 128 128 l 257
512 128 m 257
 512 256 l 257
 640 256 l 257
 640 128 l 257
 512 128 l 257
0 256 m 257
 0 384 l 257
 128 384 l 257
 128 256 l 257
 0 256 l 257
128 256 m 257
 128 384 l 257
 256 384 l 257
 256 256 l 257
 128 256 l 257
512 256 m 257
 512 384 l 257
 640 384 l 257
 640 256 l 257
 512 256 l 257
0 384 m 257
 0 512 l 257
 128 512 l 257
 128 384 l 257
 0 384 l 257
128 384 m 257
 128 512 l 257
 256 512 l 257
 256 384 l 257
 128 384 l 257
512 384 m 257
 512 512 l 257
 640 512 l 257
 640 384 l 257
 512 384 l 257
0 512 m 257
 0 640 l 257
 128 640 l 257
 128 512 l 257
 0 512 l 257
128 512 m 257
 128 640 l 257
 256 640 l 257
 256 512 l 257
 128 512 l 257
512 512 m 257
 512 640 l 257
 640 640 l 257
 640 512 l 257
 512 512 l 257
0 640 m 257
 0 768 l 257
 128 768 l 257
 128 640 l 257
 0 640 l 257
128 640 m 257
 128 768 l 257
 256 768 l 257
 256 640 l 257
 128 640 l 257
512 640 m 257
 512 768 l 257
 640 768 l 257
 640 640 l 257
 512 640 l 257
128 768 m 257
 128 896 l 257
 256 896 l 257
 256 768 l 257
 128 768 l 257
256 768 m 257
 256 896 l 257
 384 896 l 257
 384 768 l 257
 256 768 l 257
384 768 m 257
 384 896 l 257
 512 896 l 257
 512 768 l 257
 384 768 l 257
EndSplineSet
Fore
SplineSet
256 128 m 1
 421 128 l 1
 512 219 l 1
 512 677 l 1
 421 768 l 1
 256 768 l 1
 256 128 l 1
165 0 m 1
 0 165 l 1
 0 731 l 1
 165 896 l 1
 475 896 l 1
 640 731 l 1
 640 165 l 1
 539 64 l 1
 640 -37 l 1
 640 -256 l 1
 512 -256 l 1
 512 -91 l 1
 421 0 l 1
 165 0 l 1
EndSplineSet
EndChar

StartChar: uni211D
Encoding: 123 8477 123
GlifName: uni211D_
Width: 768
Flags: HW
LayerCount: 2
Back
SplineSet
0 0 m 257
 0 128 l 257
 128 128 l 257
 128 0 l 257
 0 0 l 257
128 0 m 257
 128 128 l 257
 256 128 l 257
 256 0 l 257
 128 0 l 257
512 0 m 257
 512 128 l 257
 640 128 l 257
 640 0 l 257
 512 0 l 257
0 128 m 257
 0 256 l 257
 128 256 l 257
 128 128 l 257
 0 128 l 257
128 128 m 257
 128 256 l 257
 256 256 l 257
 256 128 l 257
 128 128 l 257
512 128 m 257
 512 256 l 257
 640 256 l 257
 640 128 l 257
 512 128 l 257
0 256 m 257
 0 384 l 257
 128 384 l 257
 128 256 l 257
 0 256 l 257
128 256 m 257
 128 384 l 257
 256 384 l 257
 256 256 l 257
 128 256 l 257
512 256 m 257
 512 384 l 257
 640 384 l 257
 640 256 l 257
 512 256 l 257
0 384 m 257
 0 512 l 257
 128 512 l 257
 128 384 l 257
 0 384 l 257
128 384 m 257
 128 512 l 257
 256 512 l 257
 256 384 l 257
 128 384 l 257
256 384 m 257
 256 512 l 257
 384 512 l 257
 384 384 l 257
 256 384 l 257
384 384 m 257
 384 512 l 257
 512 512 l 257
 512 384 l 257
 384 384 l 257
0 512 m 257
 0 640 l 257
 128 640 l 257
 128 512 l 257
 0 512 l 257
128 512 m 257
 128 640 l 257
 256 640 l 257
 256 512 l 257
 128 512 l 257
512 512 m 257
 512 640 l 257
 640 640 l 257
 640 512 l 257
 512 512 l 257
0 640 m 257
 0 768 l 257
 128 768 l 257
 128 640 l 257
 0 640 l 257
128 640 m 257
 128 768 l 257
 256 768 l 257
 256 640 l 257
 128 640 l 257
512 640 m 257
 512 768 l 257
 640 768 l 257
 640 640 l 257
 512 640 l 257
0 768 m 257
 0 896 l 257
 128 896 l 257
 128 768 l 257
 0 768 l 257
128 768 m 257
 128 896 l 257
 256 896 l 257
 256 768 l 257
 128 768 l 257
256 768 m 257
 256 896 l 257
 384 896 l 257
 384 768 l 257
 256 768 l 257
384 768 m 257
 384 896 l 257
 512 896 l 257
 512 768 l 257
 384 768 l 257
EndSplineSet
Fore
SplineSet
256 512 m 1
 410 512 l 1
 512 603 l 1
 512 677 l 1
 421 768 l 1
 256 768 l 1
 256 512 l 1
0 0 m 1
 0 896 l 1
 475 896 l 1
 640 731 l 1
 640 549 l 1
 539 448 l 1
 640 347 l 1
 640 0 l 1
 512 0 l 1
 512 293 l 1
 421 384 l 1
 256 384 l 1
 256 0 l 1
 0 0 l 1
EndSplineSet
EndChar

StartChar: uni2124
Encoding: 124 8484 124
GlifName: uni2124
Width: 768
Flags: HW
LayerCount: 2
Back
SplineSet
0 0 m 257
 0 128 l 257
 128 128 l 257
 128 0 l 257
 0 0 l 257
128 0 m 257
 128 128 l 257
 256 128 l 257
 256 0 l 257
 128 0 l 257
256 0 m 257
 256 128 l 257
 384 128 l 257
 384 0 l 257
 256 0 l 257
384 0 m 257
 384 128 l 257
 512 128 l 257
 512 0 l 257
 384 0 l 257
512 0 m 257
 512 128 l 257
 640 128 l 257
 640 0 l 257
 512 0 l 257
0 128 m 257
 0 256 l 257
 128 256 l 257
 128 128 l 257
 0 128 l 257
128 128 m 257
 128 256 l 257
 256 256 l 257
 256 128 l 257
 128 128 l 257
0 256 m 257
 0 384 l 257
 128 384 l 257
 128 256 l 257
 0 256 l 257
128 256 m 257
 128 384 l 257
 256 384 l 257
 256 256 l 257
 128 256 l 257
256 256 m 257
 256 384 l 257
 384 384 l 257
 384 256 l 257
 256 256 l 257
128 384 m 257
 128 512 l 257
 256 512 l 257
 256 384 l 257
 128 384 l 257
256 384 m 257
 256 512 l 257
 384 512 l 257
 384 384 l 257
 256 384 l 257
384 384 m 257
 384 512 l 257
 512 512 l 257
 512 384 l 257
 384 384 l 257
256 512 m 257
 256 640 l 257
 384 640 l 257
 384 512 l 257
 256 512 l 257
384 512 m 257
 384 640 l 257
 512 640 l 257
 512 512 l 257
 384 512 l 257
512 512 m 257
 512 640 l 257
 640 640 l 257
 640 512 l 257
 512 512 l 257
384 640 m 257
 384 768 l 257
 512 768 l 257
 512 640 l 257
 384 640 l 257
512 640 m 257
 512 768 l 257
 640 768 l 257
 640 640 l 257
 512 640 l 257
0 768 m 257
 0 896 l 257
 128 896 l 257
 128 768 l 257
 0 768 l 257
128 768 m 257
 128 896 l 257
 256 896 l 257
 256 768 l 257
 128 768 l 257
256 768 m 257
 256 896 l 257
 384 896 l 257
 384 768 l 257
 256 768 l 257
384 768 m 257
 384 896 l 257
 512 896 l 257
 512 768 l 257
 384 768 l 257
512 768 m 257
 512 896 l 257
 640 896 l 257
 640 768 l 257
 512 768 l 257
EndSplineSet
Fore
SplineSet
0 0 m 1
 0 347 l 1
 384 731 l 1
 384 768 l 1
 0 768 l 1
 0 896 l 1
 640 896 l 1
 640 549 l 1
 256 165 l 1
 256 128 l 1
 640 128 l 1
 640 0 l 1
 0 0 l 1
EndSplineSet
EndChar

StartChar: arrowleft
Encoding: 125 8592 125
GlifName: arrowleft
Width: 768
Flags: HW
LayerCount: 2
Back
SplineSet
128 256 m 257
 128 384 l 257
 256 384 l 257
 256 256 l 257
 128 256 l 257
0 384 m 257
 0 512 l 257
 128 512 l 257
 128 384 l 257
 0 384 l 257
256 384 m 257
 256 512 l 257
 384 512 l 257
 384 384 l 257
 256 384 l 257
384 384 m 257
 384 512 l 257
 512 512 l 257
 512 384 l 257
 384 384 l 257
512 384 m 257
 512 512 l 257
 640 512 l 257
 640 384 l 257
 512 384 l 257
128 512 m 257
 128 640 l 257
 256 640 l 257
 256 512 l 257
 128 512 l 257
EndSplineSet
Fore
SplineSet
256 165 m 1
 0 421 l 1
 0 475 l 1
 256 731 l 1
 256 512 l 1
 640 512 l 1
 640 384 l 1
 256 384 l 1
 256 165 l 1
EndSplineSet
EndChar

StartChar: arrowright
Encoding: 126 8594 126
GlifName: arrowright
Width: 768
Flags: HW
LayerCount: 2
Back
SplineSet
384 256 m 257
 384 384 l 257
 512 384 l 257
 512 256 l 257
 384 256 l 257
0 384 m 257
 0 512 l 257
 128 512 l 257
 128 384 l 257
 0 384 l 257
128 384 m 257
 128 512 l 257
 256 512 l 257
 256 384 l 257
 128 384 l 257
256 384 m 257
 256 512 l 257
 384 512 l 257
 384 384 l 257
 256 384 l 257
512 384 m 257
 512 512 l 257
 640 512 l 257
 640 384 l 257
 512 384 l 257
384 512 m 257
 384 640 l 257
 512 640 l 257
 512 512 l 257
 384 512 l 257
EndSplineSet
Fore
SplineSet
384 165 m 1
 640 421 l 1
 640 475 l 1
 384 731 l 1
 384 512 l 1
 0 512 l 1
 0 384 l 1
 384 384 l 1
 384 165 l 1
EndSplineSet
EndChar

StartChar: arrowboth
Encoding: 127 8596 127
GlifName: arrowboth
Width: 768
Flags: HW
LayerCount: 2
Back
SplineSet
128 256 m 257
 128 384 l 257
 256 384 l 257
 256 256 l 257
 128 256 l 257
384 256 m 257
 384 384 l 257
 512 384 l 257
 512 256 l 257
 384 256 l 257
0 384 m 257
 0 512 l 257
 128 512 l 257
 128 384 l 257
 0 384 l 257
256 384 m 257
 256 512 l 257
 384 512 l 257
 384 384 l 257
 256 384 l 257
512 384 m 257
 512 512 l 257
 640 512 l 257
 640 384 l 257
 512 384 l 257
128 512 m 257
 128 640 l 257
 256 640 l 257
 256 512 l 257
 128 512 l 257
384 512 m 257
 384 640 l 257
 512 640 l 257
 512 512 l 257
 384 512 l 257
EndSplineSet
Fore
SplineSet
256 165 m 1
 0 421 l 1
 0 475 l 1
 256 731 l 1
 256 512 l 1
 384 512 l 1
 384 731 l 1
 640 475 l 1
 640 421 l 1
 384 165 l 1
 384 384 l 1
 256 384 l 1
 256 165 l 1
EndSplineSet
EndChar

StartChar: universal
Encoding: 128 8704 128
GlifName: universal
Width: 1355
Flags: HW
LayerCount: 2
Back
SplineSet
640 0 m 257
 640 128 l 257
 768 128 l 257
 768 0 l 257
 640 0 l 257
640 128 m 257
 640 256 l 257
 768 256 l 257
 768 128 l 257
 640 128 l 257
512 256 m 257
 512 384 l 257
 640 384 l 257
 640 256 l 257
 512 256 l 257
768 256 m 257
 768 384 l 257
 896 384 l 257
 896 256 l 257
 768 256 l 257
512 384 m 257
 512 512 l 257
 640 512 l 257
 640 384 l 257
 512 384 l 257
640 384 m 257
 640 512 l 257
 768 512 l 257
 768 384 l 257
 640 384 l 257
768 384 m 257
 768 512 l 257
 896 512 l 257
 896 384 l 257
 768 384 l 257
384 512 m 257
 384 640 l 257
 512 640 l 257
 512 512 l 257
 384 512 l 257
896 512 m 257
 896 640 l 257
 1024 640 l 257
 1024 512 l 257
 896 512 l 257
384 640 m 257
 384 768 l 257
 512 768 l 257
 512 640 l 257
 384 640 l 257
896 640 m 257
 896 768 l 257
 1024 768 l 257
 1024 640 l 257
 896 640 l 257
256 768 m 257
 256 896 l 257
 384 896 l 257
 384 768 l 257
 256 768 l 257
384 768 m 257
 384 896 l 257
 512 896 l 257
 512 768 l 257
 384 768 l 257
896 768 m 257
 896 896 l 257
 1024 896 l 257
 1024 768 l 257
 896 768 l 257
1024 768 m 257
 1024 896 l 257
 1152 896 l 257
 1152 768 l 257
 1024 768 l 257
EndSplineSet
EndChar

StartChar: partialdiff
Encoding: 129 8706 129
GlifName: partialdiff
Width: 768
Flags: HW
LayerCount: 2
Back
SplineSet
128 0 m 257
 128 128 l 257
 256 128 l 257
 256 0 l 257
 128 0 l 257
256 0 m 257
 256 128 l 257
 384 128 l 257
 384 0 l 257
 256 0 l 257
384 0 m 257
 384 128 l 257
 512 128 l 257
 512 0 l 257
 384 0 l 257
0 128 m 257
 0 256 l 257
 128 256 l 257
 128 128 l 257
 0 128 l 257
512 128 m 257
 512 256 l 257
 640 256 l 257
 640 128 l 257
 512 128 l 257
0 256 m 257
 0 384 l 257
 128 384 l 257
 128 256 l 257
 0 256 l 257
512 256 m 257
 512 384 l 257
 640 384 l 257
 640 256 l 257
 512 256 l 257
128 384 m 257
 128 512 l 257
 256 512 l 257
 256 384 l 257
 128 384 l 257
256 384 m 257
 256 512 l 257
 384 512 l 257
 384 384 l 257
 256 384 l 257
384 384 m 257
 384 512 l 257
 512 512 l 257
 512 384 l 257
 384 384 l 257
512 384 m 257
 512 512 l 257
 640 512 l 257
 640 384 l 257
 512 384 l 257
512 512 m 257
 512 640 l 257
 640 640 l 257
 640 512 l 257
 512 512 l 257
384 640 m 257
 384 768 l 257
 512 768 l 257
 512 640 l 257
 384 640 l 257
128 768 m 257
 128 896 l 257
 256 896 l 257
 256 768 l 257
 128 768 l 257
256 768 m 257
 256 896 l 257
 384 896 l 257
 384 768 l 257
 256 768 l 257
EndSplineSet
Fore
SplineSet
219 128 m 1
 421 128 l 1
 512 219 l 1
 512 384 l 1
 219 384 l 1
 128 293 l 1
 128 219 l 1
 219 128 l 1
165 0 m 1
 0 165 l 1
 0 347 l 1
 165 512 l 1
 512 512 l 1
 512 549 l 1
 293 768 l 1
 128 768 l 1
 128 896 l 1
 347 896 l 1
 640 603 l 1
 640 165 l 1
 475 0 l 1
 165 0 l 1
EndSplineSet
EndChar

StartChar: existential
Encoding: 130 8707 130
GlifName: existential
Width: 2048
Flags: H
LayerCount: 2
Back
SplineSet
384 0 m 257
 384 128 l 257
 512 128 l 257
 512 0 l 257
 384 0 l 257
512 0 m 257
 512 128 l 257
 640 128 l 257
 640 0 l 257
 512 0 l 257
640 0 m 257
 640 128 l 257
 768 128 l 257
 768 0 l 257
 640 0 l 257
768 0 m 257
 768 128 l 257
 896 128 l 257
 896 0 l 257
 768 0 l 257
896 0 m 257
 896 128 l 257
 1024 128 l 257
 1024 0 l 257
 896 0 l 257
896 128 m 257
 896 256 l 257
 1024 256 l 257
 1024 128 l 257
 896 128 l 257
896 256 m 257
 896 384 l 257
 1024 384 l 257
 1024 256 l 257
 896 256 l 257
512 384 m 257
 512 512 l 257
 640 512 l 257
 640 384 l 257
 512 384 l 257
640 384 m 257
 640 512 l 257
 768 512 l 257
 768 384 l 257
 640 384 l 257
768 384 m 257
 768 512 l 257
 896 512 l 257
 896 384 l 257
 768 384 l 257
896 384 m 257
 896 512 l 257
 1024 512 l 257
 1024 384 l 257
 896 384 l 257
896 512 m 257
 896 640 l 257
 1024 640 l 257
 1024 512 l 257
 896 512 l 257
896 640 m 257
 896 768 l 257
 1024 768 l 257
 1024 640 l 257
 896 640 l 257
384 768 m 257
 384 896 l 257
 512 896 l 257
 512 768 l 257
 384 768 l 257
512 768 m 257
 512 896 l 257
 640 896 l 257
 640 768 l 257
 512 768 l 257
640 768 m 257
 640 896 l 257
 768 896 l 257
 768 768 l 257
 640 768 l 257
768 768 m 257
 768 896 l 257
 896 896 l 257
 896 768 l 257
 768 768 l 257
896 768 m 257
 896 896 l 257
 1024 896 l 257
 1024 768 l 257
 896 768 l 257
EndSplineSet
Fore
SplineSet
384 0 m 1
 384 128 l 1
 896 128 l 1
 896 384 l 1
 512 384 l 1
 512 512 l 1
 896 512 l 1
 896 768 l 1
 384 768 l 1
 384 896 l 1
 1024 896 l 1
 1024 0 l 1
 384 0 l 1
EndSplineSet
EndChar

StartChar: emptyset
Encoding: 131 8709 131
GlifName: emptyset
Width: 1388
Flags: HW
LayerCount: 2
Back
SplineSet
256 0 m 257
 256 128 l 257
 384 128 l 257
 384 0 l 257
 256 0 l 257
512 0 m 257
 512 128 l 257
 640 128 l 257
 640 0 l 257
 512 0 l 257
640 0 m 257
 640 128 l 257
 768 128 l 257
 768 0 l 257
 640 0 l 257
768 0 m 257
 768 128 l 257
 896 128 l 257
 896 0 l 257
 768 0 l 257
384 128 m 257
 384 256 l 257
 512 256 l 257
 512 128 l 257
 384 128 l 257
896 128 m 257
 896 256 l 257
 1024 256 l 257
 1024 128 l 257
 896 128 l 257
256 256 m 257
 256 384 l 257
 384 384 l 257
 384 256 l 257
 256 256 l 257
512 256 m 257
 512 384 l 257
 640 384 l 257
 640 256 l 257
 512 256 l 257
1024 256 m 257
 1024 384 l 257
 1152 384 l 257
 1152 256 l 257
 1024 256 l 257
256 384 m 257
 256 512 l 257
 384 512 l 257
 384 384 l 257
 256 384 l 257
640 384 m 257
 640 512 l 257
 768 512 l 257
 768 384 l 257
 640 384 l 257
1024 384 m 257
 1024 512 l 257
 1152 512 l 257
 1152 384 l 257
 1024 384 l 257
256 512 m 257
 256 640 l 257
 384 640 l 257
 384 512 l 257
 256 512 l 257
768 512 m 257
 768 640 l 257
 896 640 l 257
 896 512 l 257
 768 512 l 257
1024 512 m 257
 1024 640 l 257
 1152 640 l 257
 1152 512 l 257
 1024 512 l 257
384 640 m 257
 384 768 l 257
 512 768 l 257
 512 640 l 257
 384 640 l 257
896 640 m 257
 896 768 l 257
 1024 768 l 257
 1024 640 l 257
 896 640 l 257
512 768 m 257
 512 896 l 257
 640 896 l 257
 640 768 l 257
 512 768 l 257
640 768 m 257
 640 896 l 257
 768 896 l 257
 768 768 l 257
 640 768 l 257
768 768 m 257
 768 896 l 257
 896 896 l 257
 896 768 l 257
 768 768 l 257
1024 768 m 257
 1024 896 l 257
 1152 896 l 257
 1152 768 l 257
 1024 768 l 257
EndSplineSet
Fore
SplineSet
603 128 m 1
 805 128 l 1
 1024 347 l 1
 1024 549 l 1
 960 613 l 1
 539 192 l 1
 603 128 l 1
384 347 m 1
 448 283 l 1
 869 704 l 1
 805 768 l 1
 603 768 l 1
 384 549 l 1
 384 347 l 1
347 0 m 1
 256 91 l 1
 357 192 l 1
 256 293 l 1
 256 603 l 1
 549 896 l 1
 859 896 l 1
 960 795 l 1
 1061 896 l 1
 1152 805 l 1
 1051 704 l 1
 1152 603 l 1
 1152 293 l 1
 859 0 l 1
 549 0 l 1
 448 101 l 1
 347 0 l 1
EndSplineSet
EndChar

StartChar: element
Encoding: 132 8712 132
GlifName: element
Width: 768
Flags: HW
LayerCount: 2
Back
SplineSet
128 128 m 257
 128 256 l 257
 256 256 l 257
 256 128 l 257
 128 128 l 257
256 128 m 257
 256 256 l 257
 384 256 l 257
 384 128 l 257
 256 128 l 257
384 128 m 257
 384 256 l 257
 512 256 l 257
 512 128 l 257
 384 128 l 257
512 128 m 257
 512 256 l 257
 640 256 l 257
 640 128 l 257
 512 128 l 257
0 256 m 257
 0 384 l 257
 128 384 l 257
 128 256 l 257
 0 256 l 257
0 384 m 257
 0 512 l 257
 128 512 l 257
 128 384 l 257
 0 384 l 257
128 384 m 257
 128 512 l 257
 256 512 l 257
 256 384 l 257
 128 384 l 257
256 384 m 257
 256 512 l 257
 384 512 l 257
 384 384 l 257
 256 384 l 257
384 384 m 257
 384 512 l 257
 512 512 l 257
 512 384 l 257
 384 384 l 257
512 384 m 257
 512 512 l 257
 640 512 l 257
 640 384 l 257
 512 384 l 257
0 512 m 257
 0 640 l 257
 128 640 l 257
 128 512 l 257
 0 512 l 257
128 640 m 257
 128 768 l 257
 256 768 l 257
 256 640 l 257
 128 640 l 257
256 640 m 257
 256 768 l 257
 384 768 l 257
 384 640 l 257
 256 640 l 257
384 640 m 257
 384 768 l 257
 512 768 l 257
 512 640 l 257
 384 640 l 257
512 640 m 257
 512 768 l 257
 640 768 l 257
 640 640 l 257
 512 640 l 257
EndSplineSet
Fore
SplineSet
165 128 m 1
 0 293 l 1
 0 603 l 1
 165 768 l 1
 640 768 l 1
 640 640 l 1
 219 640 l 1
 128 549 l 1
 128 512 l 1
 640 512 l 1
 640 384 l 1
 128 384 l 1
 128 347 l 1
 219 256 l 1
 640 256 l 1
 640 128 l 1
 165 128 l 1
EndSplineSet
EndChar

StartChar: notelement
Encoding: 133 8713 133
GlifName: notelement
Width: 768
Flags: HW
LayerCount: 2
Back
SplineSet
256 0 m 257
 256 128 l 257
 384 128 l 257
 384 0 l 257
 256 0 l 257
128 128 m 257
 128 256 l 257
 256 256 l 257
 256 128 l 257
 128 128 l 257
256 128 m 257
 256 256 l 257
 384 256 l 257
 384 128 l 257
 256 128 l 257
384 128 m 257
 384 256 l 257
 512 256 l 257
 512 128 l 257
 384 128 l 257
512 128 m 257
 512 256 l 257
 640 256 l 257
 640 128 l 257
 512 128 l 257
0 256 m 257
 0 384 l 257
 128 384 l 257
 128 256 l 257
 0 256 l 257
256 256 m 257
 256 384 l 257
 384 384 l 257
 384 256 l 257
 256 256 l 257
0 384 m 257
 0 512 l 257
 128 512 l 257
 128 384 l 257
 0 384 l 257
128 384 m 257
 128 512 l 257
 256 512 l 257
 256 384 l 257
 128 384 l 257
256 384 m 257
 256 512 l 257
 384 512 l 257
 384 384 l 257
 256 384 l 257
384 384 m 257
 384 512 l 257
 512 512 l 257
 512 384 l 257
 384 384 l 257
512 384 m 257
 512 512 l 257
 640 512 l 257
 640 384 l 257
 512 384 l 257
0 512 m 257
 0 640 l 257
 128 640 l 257
 128 512 l 257
 0 512 l 257
256 512 m 257
 256 640 l 257
 384 640 l 257
 384 512 l 257
 256 512 l 257
128 640 m 257
 128 768 l 257
 256 768 l 257
 256 640 l 257
 128 640 l 257
256 640 m 257
 256 768 l 257
 384 768 l 257
 384 640 l 257
 256 640 l 257
384 640 m 257
 384 768 l 257
 512 768 l 257
 512 640 l 257
 384 640 l 257
512 640 m 257
 512 768 l 257
 640 768 l 257
 640 640 l 257
 512 640 l 257
256 768 m 257
 256 896 l 257
 384 896 l 257
 384 768 l 257
 256 768 l 257
EndSplineSet
Fore
SplineSet
165 128 m 1
 0 293 l 1
 0 603 l 1
 165 768 l 1
 256 768 l 1
 256 896 l 1
 384 896 l 1
 384 768 l 1
 640 768 l 1
 640 640 l 1
 384 640 l 1
 384 512 l 1
 640 512 l 1
 640 384 l 1
 384 384 l 1
 384 256 l 1
 640 256 l 1
 640 128 l 1
 384 128 l 1
 384 0 l 1
 256 0 l 1
 256 128 l 1
 165 128 l 1
256 384 m 1
 128 384 l 1
 128 347 l 1
 219 256 l 1
 256 256 l 1
 256 384 l 1
256 640 m 1
 219 640 l 1
 128 549 l 1
 128 512 l 1
 256 512 l 1
 256 640 l 1
EndSplineSet
EndChar

StartChar: uni2218
Encoding: 134 8728 134
GlifName: uni2218
Width: 768
Flags: HW
LayerCount: 2
Back
SplineSet
256 256 m 257
 256 384 l 257
 384 384 l 257
 384 256 l 257
 256 256 l 257
128 384 m 257
 128 512 l 257
 256 512 l 257
 256 384 l 257
 128 384 l 257
384 384 m 257
 384 512 l 257
 512 512 l 257
 512 384 l 257
 384 384 l 257
256 512 m 257
 256 640 l 257
 384 640 l 257
 384 512 l 257
 256 512 l 257
EndSplineSet
Fore
SplineSet
283 448 m 1
 320 411 l 1
 357 448 l 1
 320 485 l 1
 283 448 l 1
293 256 m 1
 128 421 l 1
 128 475 l 1
 293 640 l 1
 347 640 l 1
 512 475 l 1
 512 421 l 1
 347 256 l 1
 293 256 l 1
EndSplineSet
EndChar

StartChar: infinity
Encoding: 135 8734 135
GlifName: infinity
Width: 768
Flags: HW
LayerCount: 2
Back
SplineSet
128 256 m 257
 128 384 l 257
 256 384 l 257
 256 256 l 257
 128 256 l 257
384 256 m 257
 384 384 l 257
 512 384 l 257
 512 256 l 257
 384 256 l 257
0 384 m 257
 0 512 l 257
 128 512 l 257
 128 384 l 257
 0 384 l 257
256 384 m 257
 256 512 l 257
 384 512 l 257
 384 384 l 257
 256 384 l 257
512 384 m 257
 512 512 l 257
 640 512 l 257
 640 384 l 257
 512 384 l 257
128 512 m 257
 128 640 l 257
 256 640 l 257
 256 512 l 257
 128 512 l 257
384 512 m 257
 384 640 l 257
 512 640 l 257
 512 512 l 257
 384 512 l 257
EndSplineSet
Fore
SplineSet
411 448 m 1
 448 411 l 1
 485 448 l 1
 448 485 l 1
 411 448 l 1
155 448 m 1
 192 411 l 1
 229 448 l 1
 192 485 l 1
 155 448 l 1
219 256 m 1
 165 256 l 1
 0 421 l 1
 0 475 l 1
 165 640 l 1
 219 640 l 1
 320 539 l 1
 421 640 l 1
 475 640 l 1
 640 475 l 1
 640 421 l 1
 475 256 l 1
 421 256 l 1
 320 357 l 1
 219 256 l 1
EndSplineSet
EndChar

StartChar: logicaland
Encoding: 136 8743 136
GlifName: logicaland
Width: 768
Flags: HW
LayerCount: 2
Back
SplineSet
0 256 m 257
 0 384 l 257
 128 384 l 257
 128 256 l 257
 0 256 l 257
512 256 m 257
 512 384 l 257
 640 384 l 257
 640 256 l 257
 512 256 l 257
128 384 m 257
 128 512 l 257
 256 512 l 257
 256 384 l 257
 128 384 l 257
384 384 m 257
 384 512 l 257
 512 512 l 257
 512 384 l 257
 384 384 l 257
256 512 m 257
 256 640 l 257
 384 640 l 257
 384 512 l 257
 256 512 l 257
EndSplineSet
Fore
SplineSet
91 256 m 1
 0 347 l 1
 320 667 l 1
 640 347 l 1
 549 256 l 1
 320 485 l 1
 91 256 l 1
EndSplineSet
EndChar

StartChar: logicalor
Encoding: 137 8744 137
GlifName: logicalor
Width: 768
Flags: HW
LayerCount: 2
Back
SplineSet
256 256 m 257
 256 384 l 257
 384 384 l 257
 384 256 l 257
 256 256 l 257
128 384 m 257
 128 512 l 257
 256 512 l 257
 256 384 l 257
 128 384 l 257
384 384 m 257
 384 512 l 257
 512 512 l 257
 512 384 l 257
 384 384 l 257
0 512 m 257
 0 640 l 257
 128 640 l 257
 128 512 l 257
 0 512 l 257
512 512 m 257
 512 640 l 257
 640 640 l 257
 640 512 l 257
 512 512 l 257
EndSplineSet
Fore
SplineSet
91 640 m 1
 0 549 l 1
 320 229 l 1
 640 549 l 1
 549 640 l 1
 320 411 l 1
 91 640 l 1
EndSplineSet
EndChar

StartChar: intersection
Encoding: 138 8745 138
GlifName: intersection
Width: 768
Flags: HW
LayerCount: 2
Back
SplineSet
0 0 m 257
 0 128 l 257
 128 128 l 257
 128 0 l 257
 0 0 l 257
512 0 m 257
 512 128 l 257
 640 128 l 257
 640 0 l 257
 512 0 l 257
0 128 m 257
 0 256 l 257
 128 256 l 257
 128 128 l 257
 0 128 l 257
512 128 m 257
 512 256 l 257
 640 256 l 257
 640 128 l 257
 512 128 l 257
0 256 m 257
 0 384 l 257
 128 384 l 257
 128 256 l 257
 0 256 l 257
512 256 m 257
 512 384 l 257
 640 384 l 257
 640 256 l 257
 512 256 l 257
0 384 m 257
 0 512 l 257
 128 512 l 257
 128 384 l 257
 0 384 l 257
512 384 m 257
 512 512 l 257
 640 512 l 257
 640 384 l 257
 512 384 l 257
0 512 m 257
 0 640 l 257
 128 640 l 257
 128 512 l 257
 0 512 l 257
512 512 m 257
 512 640 l 257
 640 640 l 257
 640 512 l 257
 512 512 l 257
0 640 m 257
 0 768 l 257
 128 768 l 257
 128 640 l 257
 0 640 l 257
512 640 m 257
 512 768 l 257
 640 768 l 257
 640 640 l 257
 512 640 l 257
128 768 m 257
 128 896 l 257
 256 896 l 257
 256 768 l 257
 128 768 l 257
256 768 m 257
 256 896 l 257
 384 896 l 257
 384 768 l 257
 256 768 l 257
384 768 m 257
 384 896 l 257
 512 896 l 257
 512 768 l 257
 384 768 l 257
EndSplineSet
Fore
SplineSet
0 0 m 1
 0 731 l 1
 165 896 l 1
 475 896 l 1
 640 731 l 1
 640 0 l 1
 512 0 l 1
 512 677 l 1
 421 768 l 1
 219 768 l 1
 128 677 l 1
 128 0 l 1
 0 0 l 1
EndSplineSet
EndChar

StartChar: union
Encoding: 139 8746 139
GlifName: union
Width: 768
Flags: HW
LayerCount: 2
Back
SplineSet
128 0 m 257
 128 128 l 257
 256 128 l 257
 256 0 l 257
 128 0 l 257
256 0 m 257
 256 128 l 257
 384 128 l 257
 384 0 l 257
 256 0 l 257
384 0 m 257
 384 128 l 257
 512 128 l 257
 512 0 l 257
 384 0 l 257
0 128 m 257
 0 256 l 257
 128 256 l 257
 128 128 l 257
 0 128 l 257
512 128 m 257
 512 256 l 257
 640 256 l 257
 640 128 l 257
 512 128 l 257
0 256 m 257
 0 384 l 257
 128 384 l 257
 128 256 l 257
 0 256 l 257
512 256 m 257
 512 384 l 257
 640 384 l 257
 640 256 l 257
 512 256 l 257
0 384 m 257
 0 512 l 257
 128 512 l 257
 128 384 l 257
 0 384 l 257
512 384 m 257
 512 512 l 257
 640 512 l 257
 640 384 l 257
 512 384 l 257
0 512 m 257
 0 640 l 257
 128 640 l 257
 128 512 l 257
 0 512 l 257
512 512 m 257
 512 640 l 257
 640 640 l 257
 640 512 l 257
 512 512 l 257
0 640 m 257
 0 768 l 257
 128 768 l 257
 128 640 l 257
 0 640 l 257
512 640 m 257
 512 768 l 257
 640 768 l 257
 640 640 l 257
 512 640 l 257
0 768 m 257
 0 896 l 257
 128 896 l 257
 128 768 l 257
 0 768 l 257
512 768 m 257
 512 896 l 257
 640 896 l 257
 640 768 l 257
 512 768 l 257
EndSplineSet
Fore
SplineSet
0 896 m 1
 0 165 l 1
 165 0 l 1
 475 0 l 1
 640 165 l 1
 640 896 l 1
 512 896 l 1
 512 219 l 1
 421 128 l 1
 219 128 l 1
 128 219 l 1
 128 896 l 1
 0 896 l 1
EndSplineSet
EndChar

StartChar: notequal
Encoding: 140 8800 140
GlifName: notequal
Width: 768
Flags: HW
LayerCount: 2
Back
SplineSet
256 128 m 257
 256 256 l 257
 384 256 l 257
 384 128 l 257
 256 128 l 257
0 256 m 257
 0 384 l 257
 128 384 l 257
 128 256 l 257
 0 256 l 257
128 256 m 257
 128 384 l 257
 256 384 l 257
 256 256 l 257
 128 256 l 257
256 256 m 257
 256 384 l 257
 384 384 l 257
 384 256 l 257
 256 256 l 257
384 256 m 257
 384 384 l 257
 512 384 l 257
 512 256 l 257
 384 256 l 257
512 256 m 257
 512 384 l 257
 640 384 l 257
 640 256 l 257
 512 256 l 257
256 384 m 257
 256 512 l 257
 384 512 l 257
 384 384 l 257
 256 384 l 257
0 512 m 257
 0 640 l 257
 128 640 l 257
 128 512 l 257
 0 512 l 257
128 512 m 257
 128 640 l 257
 256 640 l 257
 256 512 l 257
 128 512 l 257
256 512 m 257
 256 640 l 257
 384 640 l 257
 384 512 l 257
 256 512 l 257
384 512 m 257
 384 640 l 257
 512 640 l 257
 512 512 l 257
 384 512 l 257
512 512 m 257
 512 640 l 257
 640 640 l 257
 640 512 l 257
 512 512 l 257
256 640 m 257
 256 768 l 257
 384 768 l 257
 384 640 l 257
 256 640 l 257
EndSplineSet
Fore
SplineSet
256 128 m 1
 256 256 l 1
 0 256 l 1
 0 384 l 1
 256 384 l 1
 256 512 l 1
 0 512 l 1
 0 640 l 1
 256 640 l 1
 256 768 l 1
 384 768 l 1
 384 640 l 1
 640 640 l 1
 640 512 l 1
 384 512 l 1
 384 384 l 1
 640 384 l 1
 640 256 l 1
 384 256 l 1
 384 128 l 1
 256 128 l 1
EndSplineSet
EndChar

StartChar: equivalence
Encoding: 141 8801 141
GlifName: equivalence
Width: 768
Flags: HW
LayerCount: 2
Back
SplineSet
0 128 m 257
 0 256 l 257
 128 256 l 257
 128 128 l 257
 0 128 l 257
128 128 m 257
 128 256 l 257
 256 256 l 257
 256 128 l 257
 128 128 l 257
256 128 m 257
 256 256 l 257
 384 256 l 257
 384 128 l 257
 256 128 l 257
384 128 m 257
 384 256 l 257
 512 256 l 257
 512 128 l 257
 384 128 l 257
512 128 m 257
 512 256 l 257
 640 256 l 257
 640 128 l 257
 512 128 l 257
0 384 m 257
 0 512 l 257
 128 512 l 257
 128 384 l 257
 0 384 l 257
128 384 m 257
 128 512 l 257
 256 512 l 257
 256 384 l 257
 128 384 l 257
256 384 m 257
 256 512 l 257
 384 512 l 257
 384 384 l 257
 256 384 l 257
384 384 m 257
 384 512 l 257
 512 512 l 257
 512 384 l 257
 384 384 l 257
512 384 m 257
 512 512 l 257
 640 512 l 257
 640 384 l 257
 512 384 l 257
0 640 m 257
 0 768 l 257
 128 768 l 257
 128 640 l 257
 0 640 l 257
128 640 m 257
 128 768 l 257
 256 768 l 257
 256 640 l 257
 128 640 l 257
256 640 m 257
 256 768 l 257
 384 768 l 257
 384 640 l 257
 256 640 l 257
384 640 m 257
 384 768 l 257
 512 768 l 257
 512 640 l 257
 384 640 l 257
512 640 m 257
 512 768 l 257
 640 768 l 257
 640 640 l 257
 512 640 l 257
EndSplineSet
Fore
SplineSet
0 640 m 1
 0 768 l 1
 640 768 l 1
 640 640 l 1
 0 640 l 1
0 384 m 1
 0 512 l 1
 640 512 l 1
 640 384 l 1
 0 384 l 1
0 128 m 1
 0 256 l 1
 640 256 l 1
 640 128 l 1
 0 128 l 1
EndSplineSet
EndChar

StartChar: lessequal
Encoding: 142 8804 142
GlifName: lessequal
Width: 768
Flags: HW
LayerCount: 2
Back
SplineSet
128 -128 m 257
 128 0 l 257
 256 0 l 257
 256 -128 l 257
 128 -128 l 257
256 -128 m 257
 256 0 l 257
 384 0 l 257
 384 -128 l 257
 256 -128 l 257
384 -128 m 257
 384 0 l 257
 512 0 l 257
 512 -128 l 257
 384 -128 l 257
384 128 m 257
 384 256 l 257
 512 256 l 257
 512 128 l 257
 384 128 l 257
256 256 m 257
 256 384 l 257
 384 384 l 257
 384 256 l 257
 256 256 l 257
128 384 m 257
 128 512 l 257
 256 512 l 257
 256 384 l 257
 128 384 l 257
256 512 m 257
 256 640 l 257
 384 640 l 257
 384 512 l 257
 256 512 l 257
384 640 m 257
 384 768 l 257
 512 768 l 257
 512 640 l 257
 384 640 l 257
EndSplineSet
Fore
SplineSet
421 128 m 1
 101 448 l 1
 421 768 l 1
 512 677 l 1
 288 446 l 1
 512 219 l 1
 421 128 l 1
128 -128 m 1
 128 0 l 1
 512 0 l 1
 512 -128 l 1
 128 -128 l 1
EndSplineSet
EndChar

StartChar: greaterequal
Encoding: 143 8805 143
GlifName: greaterequal
Width: 768
Flags: HW
LayerCount: 2
Back
SplineSet
128 -128 m 257
 128 0 l 257
 256 0 l 257
 256 -128 l 257
 128 -128 l 257
256 -128 m 257
 256 0 l 257
 384 0 l 257
 384 -128 l 257
 256 -128 l 257
384 -128 m 257
 384 0 l 257
 512 0 l 257
 512 -128 l 257
 384 -128 l 257
128 128 m 257
 128 256 l 257
 256 256 l 257
 256 128 l 257
 128 128 l 257
256 256 m 257
 256 384 l 257
 384 384 l 257
 384 256 l 257
 256 256 l 257
384 384 m 257
 384 512 l 257
 512 512 l 257
 512 384 l 257
 384 384 l 257
256 512 m 257
 256 640 l 257
 384 640 l 257
 384 512 l 257
 256 512 l 257
128 640 m 257
 128 768 l 257
 256 768 l 257
 256 640 l 257
 128 640 l 257
EndSplineSet
Fore
SplineSet
219 128 m 1
 539 448 l 1
 219 768 l 1
 128 677 l 1
 352 446 l 1
 128 219 l 1
 219 128 l 1
512 -128 m 1
 512 0 l 1
 128 0 l 1
 128 -128 l 1
 512 -128 l 1
EndSplineSet
EndChar

StartChar: propersubset
Encoding: 144 8834 144
GlifName: propersubset
Width: 768
Flags: HW
LayerCount: 2
Back
SplineSet
256 0 m 257
 256 128 l 257
 384 128 l 257
 384 0 l 257
 256 0 l 257
384 0 m 257
 384 128 l 257
 512 128 l 257
 512 0 l 257
 384 0 l 257
512 0 m 257
 512 128 l 257
 640 128 l 257
 640 0 l 257
 512 0 l 257
128 128 m 257
 128 256 l 257
 256 256 l 257
 256 128 l 257
 128 128 l 257
0 256 m 257
 0 384 l 257
 128 384 l 257
 128 256 l 257
 0 256 l 257
0 384 m 257
 0 512 l 257
 128 512 l 257
 128 384 l 257
 0 384 l 257
0 512 m 257
 0 640 l 257
 128 640 l 257
 128 512 l 257
 0 512 l 257
128 640 m 257
 128 768 l 257
 256 768 l 257
 256 640 l 257
 128 640 l 257
256 768 m 257
 256 896 l 257
 384 896 l 257
 384 768 l 257
 256 768 l 257
384 768 m 257
 384 896 l 257
 512 896 l 257
 512 768 l 257
 384 768 l 257
512 768 m 257
 512 896 l 257
 640 896 l 257
 640 768 l 257
 512 768 l 257
EndSplineSet
Fore
SplineSet
640 0 m 1
 293 0 l 1
 0 293 l 1
 0 603 l 1
 293 896 l 1
 640 896 l 1
 640 768 l 1
 347 768 l 1
 128 549 l 1
 128 347 l 1
 347 128 l 1
 640 128 l 1
 640 0 l 1
EndSplineSet
EndChar

StartChar: reflexsubset
Encoding: 145 8838 145
GlifName: reflexsubset
Width: 768
Flags: HW
LayerCount: 2
Back
SplineSet
128 -256 m 257
 128 -128 l 257
 256 -128 l 257
 256 -256 l 257
 128 -256 l 257
256 -256 m 257
 256 -128 l 257
 384 -128 l 257
 384 -256 l 257
 256 -256 l 257
384 -256 m 257
 384 -128 l 257
 512 -128 l 257
 512 -256 l 257
 384 -256 l 257
512 -256 m 257
 512 -128 l 257
 640 -128 l 257
 640 -256 l 257
 512 -256 l 257
256 0 m 257
 256 128 l 257
 384 128 l 257
 384 0 l 257
 256 0 l 257
384 0 m 257
 384 128 l 257
 512 128 l 257
 512 0 l 257
 384 0 l 257
512 0 m 257
 512 128 l 257
 640 128 l 257
 640 0 l 257
 512 0 l 257
128 128 m 257
 128 256 l 257
 256 256 l 257
 256 128 l 257
 128 128 l 257
0 256 m 257
 0 384 l 257
 128 384 l 257
 128 256 l 257
 0 256 l 257
0 384 m 257
 0 512 l 257
 128 512 l 257
 128 384 l 257
 0 384 l 257
0 512 m 257
 0 640 l 257
 128 640 l 257
 128 512 l 257
 0 512 l 257
128 640 m 257
 128 768 l 257
 256 768 l 257
 256 640 l 257
 128 640 l 257
256 768 m 257
 256 896 l 257
 384 896 l 257
 384 768 l 257
 256 768 l 257
384 768 m 257
 384 896 l 257
 512 896 l 257
 512 768 l 257
 384 768 l 257
512 768 m 257
 512 896 l 257
 640 896 l 257
 640 768 l 257
 512 768 l 257
EndSplineSet
Fore
SplineSet
128 -256 m 1
 128 -128 l 1
 640 -128 l 1
 640 -256 l 1
 128 -256 l 1
640 0 m 1
 293 0 l 1
 0 293 l 1
 0 603 l 1
 293 896 l 1
 640 896 l 1
 640 768 l 1
 347 768 l 1
 128 549 l 1
 128 347 l 1
 347 128 l 1
 640 128 l 1
 640 0 l 1
EndSplineSet
EndChar

StartChar: uni22C2
Encoding: 146 8898 146
GlifName: uni22C_2
Width: 768
Flags: HW
LayerCount: 2
Back
SplineSet
0 -256 m 257
 0 -128 l 257
 128 -128 l 257
 128 -256 l 257
 0 -256 l 257
512 -256 m 257
 512 -128 l 257
 640 -128 l 257
 640 -256 l 257
 512 -256 l 257
0 -128 m 257
 0 0 l 257
 128 0 l 257
 128 -128 l 257
 0 -128 l 257
512 -128 m 257
 512 0 l 257
 640 0 l 257
 640 -128 l 257
 512 -128 l 257
0 0 m 257
 0 128 l 257
 128 128 l 257
 128 0 l 257
 0 0 l 257
512 0 m 257
 512 128 l 257
 640 128 l 257
 640 0 l 257
 512 0 l 257
0 128 m 257
 0 256 l 257
 128 256 l 257
 128 128 l 257
 0 128 l 257
512 128 m 257
 512 256 l 257
 640 256 l 257
 640 128 l 257
 512 128 l 257
0 256 m 257
 0 384 l 257
 128 384 l 257
 128 256 l 257
 0 256 l 257
512 256 m 257
 512 384 l 257
 640 384 l 257
 640 256 l 257
 512 256 l 257
0 384 m 257
 0 512 l 257
 128 512 l 257
 128 384 l 257
 0 384 l 257
512 384 m 257
 512 512 l 257
 640 512 l 257
 640 384 l 257
 512 384 l 257
0 512 m 257
 0 640 l 257
 128 640 l 257
 128 512 l 257
 0 512 l 257
512 512 m 257
 512 640 l 257
 640 640 l 257
 640 512 l 257
 512 512 l 257
0 640 m 257
 0 768 l 257
 128 768 l 257
 128 640 l 257
 0 640 l 257
512 640 m 257
 512 768 l 257
 640 768 l 257
 640 640 l 257
 512 640 l 257
128 768 m 257
 128 896 l 257
 256 896 l 257
 256 768 l 257
 128 768 l 257
256 768 m 257
 256 896 l 257
 384 896 l 257
 384 768 l 257
 256 768 l 257
384 768 m 257
 384 896 l 257
 512 896 l 257
 512 768 l 257
 384 768 l 257
EndSplineSet
Fore
SplineSet
0 -256 m 1
 0 731 l 1
 165 896 l 1
 475 896 l 1
 640 731 l 1
 640 -256 l 1
 512 -256 l 1
 512 677 l 1
 421 768 l 1
 219 768 l 1
 128 677 l 1
 128 -256 l 1
 0 -256 l 1
EndSplineSet
EndChar

StartChar: uni22C3
Encoding: 147 8899 147
GlifName: uni22C_3
Width: 768
Flags: HW
LayerCount: 2
Back
SplineSet
128 -256 m 257
 128 -128 l 257
 256 -128 l 257
 256 -256 l 257
 128 -256 l 257
256 -256 m 257
 256 -128 l 257
 384 -128 l 257
 384 -256 l 257
 256 -256 l 257
384 -256 m 257
 384 -128 l 257
 512 -128 l 257
 512 -256 l 257
 384 -256 l 257
0 -128 m 257
 0 0 l 257
 128 0 l 257
 128 -128 l 257
 0 -128 l 257
512 -128 m 257
 512 0 l 257
 640 0 l 257
 640 -128 l 257
 512 -128 l 257
0 0 m 257
 0 128 l 257
 128 128 l 257
 128 0 l 257
 0 0 l 257
512 0 m 257
 512 128 l 257
 640 128 l 257
 640 0 l 257
 512 0 l 257
0 128 m 257
 0 256 l 257
 128 256 l 257
 128 128 l 257
 0 128 l 257
512 128 m 257
 512 256 l 257
 640 256 l 257
 640 128 l 257
 512 128 l 257
0 256 m 257
 0 384 l 257
 128 384 l 257
 128 256 l 257
 0 256 l 257
512 256 m 257
 512 384 l 257
 640 384 l 257
 640 256 l 257
 512 256 l 257
0 384 m 257
 0 512 l 257
 128 512 l 257
 128 384 l 257
 0 384 l 257
512 384 m 257
 512 512 l 257
 640 512 l 257
 640 384 l 257
 512 384 l 257
0 512 m 257
 0 640 l 257
 128 640 l 257
 128 512 l 257
 0 512 l 257
512 512 m 257
 512 640 l 257
 640 640 l 257
 640 512 l 257
 512 512 l 257
0 640 m 257
 0 768 l 257
 128 768 l 257
 128 640 l 257
 0 640 l 257
512 640 m 257
 512 768 l 257
 640 768 l 257
 640 640 l 257
 512 640 l 257
0 768 m 257
 0 896 l 257
 128 896 l 257
 128 768 l 257
 0 768 l 257
512 768 m 257
 512 896 l 257
 640 896 l 257
 640 768 l 257
 512 768 l 257
EndSplineSet
Fore
SplineSet
0 896 m 1
 0 -91 l 1
 165 -256 l 1
 475 -256 l 1
 640 -91 l 1
 640 896 l 1
 512 896 l 1
 512 -37 l 1
 421 -128 l 1
 219 -128 l 1
 128 -37 l 1
 128 896 l 1
 0 896 l 1
EndSplineSet
EndChar

StartChar: uni27E8
Encoding: 148 10216 148
GlifName: uni27E_8
Width: 768
Flags: HW
LayerCount: 2
Back
SplineSet
512 -256 m 257
 512 -128 l 257
 640 -128 l 257
 640 -256 l 257
 512 -256 l 257
384 -128 m 257
 384 0 l 257
 512 0 l 257
 512 -128 l 257
 384 -128 l 257
256 0 m 257
 256 128 l 257
 384 128 l 257
 384 0 l 257
 256 0 l 257
128 128 m 257
 128 256 l 257
 256 256 l 257
 256 128 l 257
 128 128 l 257
0 256 m 257
 0 384 l 257
 128 384 l 257
 128 256 l 257
 0 256 l 257
128 384 m 257
 128 512 l 257
 256 512 l 257
 256 384 l 257
 128 384 l 257
256 512 m 257
 256 640 l 257
 384 640 l 257
 384 512 l 257
 256 512 l 257
384 640 m 257
 384 768 l 257
 512 768 l 257
 512 640 l 257
 384 640 l 257
512 768 m 257
 512 896 l 257
 640 896 l 257
 640 768 l 257
 512 768 l 257
EndSplineSet
Fore
SplineSet
549 -256 m 1
 0 293 l 1
 0 347 l 1
 549 896 l 1
 640 805 l 1
 155 320 l 1
 640 -165 l 1
 549 -256 l 1
EndSplineSet
EndChar

StartChar: uni27E9
Encoding: 149 10217 149
GlifName: uni27E_9
Width: 768
Flags: HWO
LayerCount: 2
Back
SplineSet
0 -256 m 257
 0 -128 l 257
 128 -128 l 257
 128 -256 l 257
 0 -256 l 257
128 -128 m 257
 128 0 l 257
 256 0 l 257
 256 -128 l 257
 128 -128 l 257
256 0 m 257
 256 128 l 257
 384 128 l 257
 384 0 l 257
 256 0 l 257
384 128 m 257
 384 256 l 257
 512 256 l 257
 512 128 l 257
 384 128 l 257
512 256 m 257
 512 384 l 257
 640 384 l 257
 640 256 l 257
 512 256 l 257
384 384 m 257
 384 512 l 257
 512 512 l 257
 512 384 l 257
 384 384 l 257
256 512 m 257
 256 640 l 257
 384 640 l 257
 384 512 l 257
 256 512 l 257
128 640 m 257
 128 768 l 257
 256 768 l 257
 256 640 l 257
 128 640 l 257
0 768 m 257
 0 896 l 257
 128 896 l 257
 128 768 l 257
 0 768 l 257
EndSplineSet
Fore
SplineSet
91 -256 m 1
 640 293 l 1
 640 347 l 1
 91 896 l 1
 0 805 l 1
 485 320 l 1
 0 -165 l 1
 91 -256 l 1
EndSplineSet
EndChar
